G04 #@! TF.GenerationSoftware,KiCad,Pcbnew,(5.1.6)-1*
G04 #@! TF.CreationDate,2020-07-05T17:14:59-07:00*
G04 #@! TF.ProjectId,LED controller board - Wemos,4c454420-636f-46e7-9472-6f6c6c657220,rev?*
G04 #@! TF.SameCoordinates,Original*
G04 #@! TF.FileFunction,Copper,L2,Bot*
G04 #@! TF.FilePolarity,Positive*
%FSLAX46Y46*%
G04 Gerber Fmt 4.6, Leading zero omitted, Abs format (unit mm)*
G04 Created by KiCad (PCBNEW (5.1.6)-1) date 2020-07-05 17:14:59*
%MOMM*%
%LPD*%
G01*
G04 APERTURE LIST*
G04 #@! TA.AperFunction,ComponentPad*
%ADD10O,2.000000X1.600000*%
G04 #@! TD*
G04 #@! TA.AperFunction,ComponentPad*
%ADD11R,2.000000X2.000000*%
G04 #@! TD*
G04 #@! TA.AperFunction,ComponentPad*
%ADD12C,6.000000*%
G04 #@! TD*
G04 #@! TA.AperFunction,ComponentPad*
%ADD13O,1.740000X2.190000*%
G04 #@! TD*
G04 #@! TA.AperFunction,ComponentPad*
%ADD14C,1.600000*%
G04 #@! TD*
G04 #@! TA.AperFunction,ComponentPad*
%ADD15R,1.700000X1.700000*%
G04 #@! TD*
G04 #@! TA.AperFunction,ComponentPad*
%ADD16O,1.700000X1.700000*%
G04 #@! TD*
G04 #@! TA.AperFunction,ViaPad*
%ADD17C,0.800000*%
G04 #@! TD*
G04 #@! TA.AperFunction,Conductor*
%ADD18C,0.250000*%
G04 #@! TD*
G04 #@! TA.AperFunction,Conductor*
%ADD19C,0.254000*%
G04 #@! TD*
G04 APERTURE END LIST*
D10*
X84201000Y-65992000D03*
D11*
X84201000Y-63452000D03*
D10*
X84201000Y-68532000D03*
X84201000Y-71072000D03*
X84201000Y-73612000D03*
X84201000Y-76152000D03*
X84201000Y-78692000D03*
X84201000Y-81232000D03*
X107061000Y-81232000D03*
X107061000Y-78692000D03*
X107061000Y-76152000D03*
X107061000Y-73612000D03*
X107061000Y-71072000D03*
X107061000Y-68532000D03*
X107061000Y-65992000D03*
X107061000Y-63452000D03*
D12*
X75000000Y-97000000D03*
X115000000Y-97000000D03*
X115000000Y-58000000D03*
X75000000Y-58000000D03*
G04 #@! TA.AperFunction,ComponentPad*
G36*
G01*
X94088000Y-89705999D02*
X94088000Y-91396001D01*
G75*
G02*
X93838001Y-91646000I-249999J0D01*
G01*
X92597999Y-91646000D01*
G75*
G02*
X92348000Y-91396001I0J249999D01*
G01*
X92348000Y-89705999D01*
G75*
G02*
X92597999Y-89456000I249999J0D01*
G01*
X93838001Y-89456000D01*
G75*
G02*
X94088000Y-89705999I0J-249999D01*
G01*
G37*
G04 #@! TD.AperFunction*
D13*
X90678000Y-90551000D03*
X88138000Y-90551000D03*
X85598000Y-90551000D03*
D14*
X97282000Y-95972000D03*
X97282000Y-93472000D03*
X93980000Y-68405000D03*
X98980000Y-68405000D03*
D15*
X77597000Y-67516000D03*
D16*
X77597000Y-70056000D03*
X77597000Y-72596000D03*
X77597000Y-75136000D03*
X77597000Y-77676000D03*
X77597000Y-80216000D03*
X77597000Y-82756000D03*
X77597000Y-85296000D03*
X113665000Y-85296000D03*
X113665000Y-82756000D03*
X113665000Y-80216000D03*
X113665000Y-77676000D03*
X113665000Y-75136000D03*
X113665000Y-72596000D03*
X113665000Y-70056000D03*
D15*
X113665000Y-67516000D03*
G04 #@! TA.AperFunction,ComponentPad*
G36*
G01*
X104756000Y-89578999D02*
X104756000Y-91269001D01*
G75*
G02*
X104506001Y-91519000I-249999J0D01*
G01*
X103265999Y-91519000D01*
G75*
G02*
X103016000Y-91269001I0J249999D01*
G01*
X103016000Y-89578999D01*
G75*
G02*
X103265999Y-89329000I249999J0D01*
G01*
X104506001Y-89329000D01*
G75*
G02*
X104756000Y-89578999I0J-249999D01*
G01*
G37*
G04 #@! TD.AperFunction*
D13*
X101346000Y-90424000D03*
D17*
X73660000Y-62738000D03*
X78740000Y-62738000D03*
X78740000Y-89408000D03*
X73406000Y-89408000D03*
X116840000Y-89408000D03*
X112014000Y-62738000D03*
X116840000Y-62738000D03*
X104140000Y-86360000D03*
X87630000Y-63500000D03*
X104140000Y-63500000D03*
X87630000Y-86360000D03*
X111760000Y-89408000D03*
X100076000Y-77422000D03*
X95504000Y-75898000D03*
X102918000Y-75898000D03*
X97790000Y-74999400D03*
X100838000Y-71882000D03*
X94996000Y-79454000D03*
X97536000Y-79454000D03*
D18*
X95504000Y-75898000D02*
X102918000Y-75898000D01*
X106797400Y-65992000D02*
X106934000Y-65992000D01*
X97790000Y-74999400D02*
X100838000Y-71951400D01*
X100838000Y-71951400D02*
X100838000Y-71882000D01*
X94996000Y-79454000D02*
X97536000Y-79454000D01*
D19*
G36*
X118259659Y-53688625D02*
G01*
X118509429Y-53764035D01*
X118739792Y-53886522D01*
X118941980Y-54051422D01*
X119108286Y-54252450D01*
X119232378Y-54481954D01*
X119309531Y-54731195D01*
X119340000Y-55021088D01*
X119340001Y-100967711D01*
X119311375Y-101259660D01*
X119235965Y-101509429D01*
X119113477Y-101739794D01*
X118948579Y-101941979D01*
X118747546Y-102108288D01*
X118518046Y-102232378D01*
X118268805Y-102309531D01*
X117978911Y-102340000D01*
X72032279Y-102340000D01*
X71740340Y-102311375D01*
X71490571Y-102235965D01*
X71260206Y-102113477D01*
X71058021Y-101948579D01*
X70891712Y-101747546D01*
X70767622Y-101518046D01*
X70690469Y-101268805D01*
X70660000Y-100978911D01*
X70660000Y-96641984D01*
X71365000Y-96641984D01*
X71365000Y-97358016D01*
X71504691Y-98060290D01*
X71778705Y-98721818D01*
X72176511Y-99317177D01*
X72682823Y-99823489D01*
X73278182Y-100221295D01*
X73939710Y-100495309D01*
X74641984Y-100635000D01*
X75358016Y-100635000D01*
X76060290Y-100495309D01*
X76721818Y-100221295D01*
X77317177Y-99823489D01*
X77823489Y-99317177D01*
X78221295Y-98721818D01*
X78495309Y-98060290D01*
X78635000Y-97358016D01*
X78635000Y-96964702D01*
X96468903Y-96964702D01*
X96540486Y-97208671D01*
X96795996Y-97329571D01*
X97070184Y-97398300D01*
X97352512Y-97412217D01*
X97632130Y-97370787D01*
X97898292Y-97275603D01*
X98023514Y-97208671D01*
X98095097Y-96964702D01*
X97282000Y-96151605D01*
X96468903Y-96964702D01*
X78635000Y-96964702D01*
X78635000Y-96641984D01*
X78515758Y-96042512D01*
X95841783Y-96042512D01*
X95883213Y-96322130D01*
X95978397Y-96588292D01*
X96045329Y-96713514D01*
X96289298Y-96785097D01*
X97102395Y-95972000D01*
X97461605Y-95972000D01*
X98274702Y-96785097D01*
X98518671Y-96713514D01*
X98552516Y-96641984D01*
X111365000Y-96641984D01*
X111365000Y-97358016D01*
X111504691Y-98060290D01*
X111778705Y-98721818D01*
X112176511Y-99317177D01*
X112682823Y-99823489D01*
X113278182Y-100221295D01*
X113939710Y-100495309D01*
X114641984Y-100635000D01*
X115358016Y-100635000D01*
X116060290Y-100495309D01*
X116721818Y-100221295D01*
X117317177Y-99823489D01*
X117823489Y-99317177D01*
X118221295Y-98721818D01*
X118495309Y-98060290D01*
X118635000Y-97358016D01*
X118635000Y-96641984D01*
X118495309Y-95939710D01*
X118221295Y-95278182D01*
X117823489Y-94682823D01*
X117317177Y-94176511D01*
X116721818Y-93778705D01*
X116060290Y-93504691D01*
X115358016Y-93365000D01*
X114641984Y-93365000D01*
X113939710Y-93504691D01*
X113278182Y-93778705D01*
X112682823Y-94176511D01*
X112176511Y-94682823D01*
X111778705Y-95278182D01*
X111504691Y-95939710D01*
X111365000Y-96641984D01*
X98552516Y-96641984D01*
X98639571Y-96458004D01*
X98708300Y-96183816D01*
X98722217Y-95901488D01*
X98680787Y-95621870D01*
X98585603Y-95355708D01*
X98518671Y-95230486D01*
X98274702Y-95158903D01*
X97461605Y-95972000D01*
X97102395Y-95972000D01*
X96289298Y-95158903D01*
X96045329Y-95230486D01*
X95924429Y-95485996D01*
X95855700Y-95760184D01*
X95841783Y-96042512D01*
X78515758Y-96042512D01*
X78495309Y-95939710D01*
X78221295Y-95278182D01*
X77823489Y-94682823D01*
X77317177Y-94176511D01*
X76721818Y-93778705D01*
X76060290Y-93504691D01*
X75358016Y-93365000D01*
X74641984Y-93365000D01*
X73939710Y-93504691D01*
X73278182Y-93778705D01*
X72682823Y-94176511D01*
X72176511Y-94682823D01*
X71778705Y-95278182D01*
X71504691Y-95939710D01*
X71365000Y-96641984D01*
X70660000Y-96641984D01*
X70660000Y-93330665D01*
X95847000Y-93330665D01*
X95847000Y-93613335D01*
X95902147Y-93890574D01*
X96010320Y-94151727D01*
X96167363Y-94386759D01*
X96367241Y-94586637D01*
X96567869Y-94720692D01*
X96540486Y-94735329D01*
X96468903Y-94979298D01*
X97282000Y-95792395D01*
X98095097Y-94979298D01*
X98023514Y-94735329D01*
X97994659Y-94721676D01*
X98196759Y-94586637D01*
X98396637Y-94386759D01*
X98553680Y-94151727D01*
X98661853Y-93890574D01*
X98717000Y-93613335D01*
X98717000Y-93330665D01*
X98661853Y-93053426D01*
X98553680Y-92792273D01*
X98396637Y-92557241D01*
X98196759Y-92357363D01*
X97961727Y-92200320D01*
X97700574Y-92092147D01*
X97423335Y-92037000D01*
X97140665Y-92037000D01*
X96863426Y-92092147D01*
X96602273Y-92200320D01*
X96367241Y-92357363D01*
X96167363Y-92557241D01*
X96010320Y-92792273D01*
X95902147Y-93053426D01*
X95847000Y-93330665D01*
X70660000Y-93330665D01*
X70660000Y-89306061D01*
X72371000Y-89306061D01*
X72371000Y-89509939D01*
X72410774Y-89709898D01*
X72488795Y-89898256D01*
X72602063Y-90067774D01*
X72746226Y-90211937D01*
X72915744Y-90325205D01*
X73104102Y-90403226D01*
X73304061Y-90443000D01*
X73507939Y-90443000D01*
X73707898Y-90403226D01*
X73896256Y-90325205D01*
X74065774Y-90211937D01*
X74209937Y-90067774D01*
X74323205Y-89898256D01*
X74401226Y-89709898D01*
X74441000Y-89509939D01*
X74441000Y-89306061D01*
X77705000Y-89306061D01*
X77705000Y-89509939D01*
X77744774Y-89709898D01*
X77822795Y-89898256D01*
X77936063Y-90067774D01*
X78080226Y-90211937D01*
X78249744Y-90325205D01*
X78438102Y-90403226D01*
X78638061Y-90443000D01*
X78841939Y-90443000D01*
X79041898Y-90403226D01*
X79230256Y-90325205D01*
X79339719Y-90252064D01*
X84093000Y-90252064D01*
X84093000Y-90849935D01*
X84114776Y-91071031D01*
X84200834Y-91354724D01*
X84340583Y-91616178D01*
X84528655Y-91845345D01*
X84757821Y-92033417D01*
X85019275Y-92173166D01*
X85302968Y-92259224D01*
X85598000Y-92288282D01*
X85893031Y-92259224D01*
X86176724Y-92173166D01*
X86438178Y-92033417D01*
X86667345Y-91845345D01*
X86855417Y-91616179D01*
X86870560Y-91587848D01*
X86963292Y-91728433D01*
X87171674Y-91939306D01*
X87417191Y-92105474D01*
X87690409Y-92220551D01*
X87777969Y-92237302D01*
X88011000Y-92116246D01*
X88011000Y-90678000D01*
X87991000Y-90678000D01*
X87991000Y-90424000D01*
X88011000Y-90424000D01*
X88011000Y-88985754D01*
X88265000Y-88985754D01*
X88265000Y-90424000D01*
X88285000Y-90424000D01*
X88285000Y-90678000D01*
X88265000Y-90678000D01*
X88265000Y-92116246D01*
X88498031Y-92237302D01*
X88585591Y-92220551D01*
X88858809Y-92105474D01*
X89104326Y-91939306D01*
X89312708Y-91728433D01*
X89405440Y-91587848D01*
X89420583Y-91616178D01*
X89608655Y-91845345D01*
X89837821Y-92033417D01*
X90099275Y-92173166D01*
X90382968Y-92259224D01*
X90678000Y-92288282D01*
X90973031Y-92259224D01*
X91256724Y-92173166D01*
X91518178Y-92033417D01*
X91747345Y-91845345D01*
X91801066Y-91779886D01*
X91859595Y-91889387D01*
X91970038Y-92023962D01*
X92104613Y-92134405D01*
X92258149Y-92216472D01*
X92424745Y-92267008D01*
X92597999Y-92284072D01*
X93838001Y-92284072D01*
X94011255Y-92267008D01*
X94177851Y-92216472D01*
X94331387Y-92134405D01*
X94465962Y-92023962D01*
X94576405Y-91889387D01*
X94658472Y-91735851D01*
X94709008Y-91569255D01*
X94726072Y-91396001D01*
X94726072Y-90125064D01*
X99841000Y-90125064D01*
X99841000Y-90722935D01*
X99862776Y-90944031D01*
X99948834Y-91227724D01*
X100088583Y-91489178D01*
X100276655Y-91718345D01*
X100505821Y-91906417D01*
X100767275Y-92046166D01*
X101050968Y-92132224D01*
X101346000Y-92161282D01*
X101641031Y-92132224D01*
X101924724Y-92046166D01*
X102186178Y-91906417D01*
X102413385Y-91719953D01*
X102426498Y-91763180D01*
X102485463Y-91873494D01*
X102564815Y-91970185D01*
X102661506Y-92049537D01*
X102771820Y-92108502D01*
X102891518Y-92144812D01*
X103016000Y-92157072D01*
X103600250Y-92154000D01*
X103759000Y-91995250D01*
X103759000Y-90551000D01*
X104013000Y-90551000D01*
X104013000Y-91995250D01*
X104171750Y-92154000D01*
X104756000Y-92157072D01*
X104880482Y-92144812D01*
X105000180Y-92108502D01*
X105110494Y-92049537D01*
X105207185Y-91970185D01*
X105286537Y-91873494D01*
X105345502Y-91763180D01*
X105381812Y-91643482D01*
X105394072Y-91519000D01*
X105391000Y-90709750D01*
X105232250Y-90551000D01*
X104013000Y-90551000D01*
X103759000Y-90551000D01*
X103739000Y-90551000D01*
X103739000Y-90297000D01*
X103759000Y-90297000D01*
X103759000Y-88852750D01*
X104013000Y-88852750D01*
X104013000Y-90297000D01*
X105232250Y-90297000D01*
X105391000Y-90138250D01*
X105394072Y-89329000D01*
X105391813Y-89306061D01*
X110725000Y-89306061D01*
X110725000Y-89509939D01*
X110764774Y-89709898D01*
X110842795Y-89898256D01*
X110956063Y-90067774D01*
X111100226Y-90211937D01*
X111269744Y-90325205D01*
X111458102Y-90403226D01*
X111658061Y-90443000D01*
X111861939Y-90443000D01*
X112061898Y-90403226D01*
X112250256Y-90325205D01*
X112419774Y-90211937D01*
X112563937Y-90067774D01*
X112677205Y-89898256D01*
X112755226Y-89709898D01*
X112795000Y-89509939D01*
X112795000Y-89306061D01*
X115805000Y-89306061D01*
X115805000Y-89509939D01*
X115844774Y-89709898D01*
X115922795Y-89898256D01*
X116036063Y-90067774D01*
X116180226Y-90211937D01*
X116349744Y-90325205D01*
X116538102Y-90403226D01*
X116738061Y-90443000D01*
X116941939Y-90443000D01*
X117141898Y-90403226D01*
X117330256Y-90325205D01*
X117499774Y-90211937D01*
X117643937Y-90067774D01*
X117757205Y-89898256D01*
X117835226Y-89709898D01*
X117875000Y-89509939D01*
X117875000Y-89306061D01*
X117835226Y-89106102D01*
X117757205Y-88917744D01*
X117643937Y-88748226D01*
X117499774Y-88604063D01*
X117330256Y-88490795D01*
X117141898Y-88412774D01*
X116941939Y-88373000D01*
X116738061Y-88373000D01*
X116538102Y-88412774D01*
X116349744Y-88490795D01*
X116180226Y-88604063D01*
X116036063Y-88748226D01*
X115922795Y-88917744D01*
X115844774Y-89106102D01*
X115805000Y-89306061D01*
X112795000Y-89306061D01*
X112755226Y-89106102D01*
X112677205Y-88917744D01*
X112563937Y-88748226D01*
X112419774Y-88604063D01*
X112250256Y-88490795D01*
X112061898Y-88412774D01*
X111861939Y-88373000D01*
X111658061Y-88373000D01*
X111458102Y-88412774D01*
X111269744Y-88490795D01*
X111100226Y-88604063D01*
X110956063Y-88748226D01*
X110842795Y-88917744D01*
X110764774Y-89106102D01*
X110725000Y-89306061D01*
X105391813Y-89306061D01*
X105381812Y-89204518D01*
X105345502Y-89084820D01*
X105286537Y-88974506D01*
X105207185Y-88877815D01*
X105110494Y-88798463D01*
X105000180Y-88739498D01*
X104880482Y-88703188D01*
X104756000Y-88690928D01*
X104171750Y-88694000D01*
X104013000Y-88852750D01*
X103759000Y-88852750D01*
X103600250Y-88694000D01*
X103016000Y-88690928D01*
X102891518Y-88703188D01*
X102771820Y-88739498D01*
X102661506Y-88798463D01*
X102564815Y-88877815D01*
X102485463Y-88974506D01*
X102426498Y-89084820D01*
X102413385Y-89128047D01*
X102186179Y-88941583D01*
X101924725Y-88801834D01*
X101641032Y-88715776D01*
X101346000Y-88686718D01*
X101050969Y-88715776D01*
X100767276Y-88801834D01*
X100505822Y-88941583D01*
X100276655Y-89129655D01*
X100088583Y-89358821D01*
X99948834Y-89620275D01*
X99862776Y-89903968D01*
X99841000Y-90125064D01*
X94726072Y-90125064D01*
X94726072Y-89705999D01*
X94709008Y-89532745D01*
X94658472Y-89366149D01*
X94576405Y-89212613D01*
X94465962Y-89078038D01*
X94331387Y-88967595D01*
X94177851Y-88885528D01*
X94011255Y-88834992D01*
X93838001Y-88817928D01*
X92597999Y-88817928D01*
X92424745Y-88834992D01*
X92258149Y-88885528D01*
X92104613Y-88967595D01*
X91970038Y-89078038D01*
X91859595Y-89212613D01*
X91801066Y-89322114D01*
X91747345Y-89256655D01*
X91518179Y-89068583D01*
X91256725Y-88928834D01*
X90973032Y-88842776D01*
X90678000Y-88813718D01*
X90382969Y-88842776D01*
X90099276Y-88928834D01*
X89837822Y-89068583D01*
X89608655Y-89256655D01*
X89420583Y-89485821D01*
X89405440Y-89514152D01*
X89312708Y-89373567D01*
X89104326Y-89162694D01*
X88858809Y-88996526D01*
X88585591Y-88881449D01*
X88498031Y-88864698D01*
X88265000Y-88985754D01*
X88011000Y-88985754D01*
X87777969Y-88864698D01*
X87690409Y-88881449D01*
X87417191Y-88996526D01*
X87171674Y-89162694D01*
X86963292Y-89373567D01*
X86870560Y-89514152D01*
X86855417Y-89485821D01*
X86667345Y-89256655D01*
X86438179Y-89068583D01*
X86176725Y-88928834D01*
X85893032Y-88842776D01*
X85598000Y-88813718D01*
X85302969Y-88842776D01*
X85019276Y-88928834D01*
X84757822Y-89068583D01*
X84528655Y-89256655D01*
X84340583Y-89485821D01*
X84200834Y-89747275D01*
X84114776Y-90030968D01*
X84093000Y-90252064D01*
X79339719Y-90252064D01*
X79399774Y-90211937D01*
X79543937Y-90067774D01*
X79657205Y-89898256D01*
X79735226Y-89709898D01*
X79775000Y-89509939D01*
X79775000Y-89306061D01*
X79735226Y-89106102D01*
X79657205Y-88917744D01*
X79543937Y-88748226D01*
X79399774Y-88604063D01*
X79230256Y-88490795D01*
X79041898Y-88412774D01*
X78841939Y-88373000D01*
X78638061Y-88373000D01*
X78438102Y-88412774D01*
X78249744Y-88490795D01*
X78080226Y-88604063D01*
X77936063Y-88748226D01*
X77822795Y-88917744D01*
X77744774Y-89106102D01*
X77705000Y-89306061D01*
X74441000Y-89306061D01*
X74401226Y-89106102D01*
X74323205Y-88917744D01*
X74209937Y-88748226D01*
X74065774Y-88604063D01*
X73896256Y-88490795D01*
X73707898Y-88412774D01*
X73507939Y-88373000D01*
X73304061Y-88373000D01*
X73104102Y-88412774D01*
X72915744Y-88490795D01*
X72746226Y-88604063D01*
X72602063Y-88748226D01*
X72488795Y-88917744D01*
X72410774Y-89106102D01*
X72371000Y-89306061D01*
X70660000Y-89306061D01*
X70660000Y-66666000D01*
X76108928Y-66666000D01*
X76108928Y-68366000D01*
X76121188Y-68490482D01*
X76157498Y-68610180D01*
X76216463Y-68720494D01*
X76295815Y-68817185D01*
X76392506Y-68896537D01*
X76502820Y-68955502D01*
X76575380Y-68977513D01*
X76443525Y-69109368D01*
X76281010Y-69352589D01*
X76169068Y-69622842D01*
X76112000Y-69909740D01*
X76112000Y-70202260D01*
X76169068Y-70489158D01*
X76281010Y-70759411D01*
X76443525Y-71002632D01*
X76650368Y-71209475D01*
X76824760Y-71326000D01*
X76650368Y-71442525D01*
X76443525Y-71649368D01*
X76281010Y-71892589D01*
X76169068Y-72162842D01*
X76112000Y-72449740D01*
X76112000Y-72742260D01*
X76169068Y-73029158D01*
X76281010Y-73299411D01*
X76443525Y-73542632D01*
X76650368Y-73749475D01*
X76824760Y-73866000D01*
X76650368Y-73982525D01*
X76443525Y-74189368D01*
X76281010Y-74432589D01*
X76169068Y-74702842D01*
X76112000Y-74989740D01*
X76112000Y-75282260D01*
X76169068Y-75569158D01*
X76281010Y-75839411D01*
X76443525Y-76082632D01*
X76650368Y-76289475D01*
X76824760Y-76406000D01*
X76650368Y-76522525D01*
X76443525Y-76729368D01*
X76281010Y-76972589D01*
X76169068Y-77242842D01*
X76112000Y-77529740D01*
X76112000Y-77822260D01*
X76169068Y-78109158D01*
X76281010Y-78379411D01*
X76443525Y-78622632D01*
X76650368Y-78829475D01*
X76824760Y-78946000D01*
X76650368Y-79062525D01*
X76443525Y-79269368D01*
X76281010Y-79512589D01*
X76169068Y-79782842D01*
X76112000Y-80069740D01*
X76112000Y-80362260D01*
X76169068Y-80649158D01*
X76281010Y-80919411D01*
X76443525Y-81162632D01*
X76650368Y-81369475D01*
X76824760Y-81486000D01*
X76650368Y-81602525D01*
X76443525Y-81809368D01*
X76281010Y-82052589D01*
X76169068Y-82322842D01*
X76112000Y-82609740D01*
X76112000Y-82902260D01*
X76169068Y-83189158D01*
X76281010Y-83459411D01*
X76443525Y-83702632D01*
X76650368Y-83909475D01*
X76824760Y-84026000D01*
X76650368Y-84142525D01*
X76443525Y-84349368D01*
X76281010Y-84592589D01*
X76169068Y-84862842D01*
X76112000Y-85149740D01*
X76112000Y-85442260D01*
X76169068Y-85729158D01*
X76281010Y-85999411D01*
X76443525Y-86242632D01*
X76650368Y-86449475D01*
X76893589Y-86611990D01*
X77163842Y-86723932D01*
X77450740Y-86781000D01*
X77743260Y-86781000D01*
X78030158Y-86723932D01*
X78300411Y-86611990D01*
X78543632Y-86449475D01*
X78735046Y-86258061D01*
X86595000Y-86258061D01*
X86595000Y-86461939D01*
X86634774Y-86661898D01*
X86712795Y-86850256D01*
X86826063Y-87019774D01*
X86970226Y-87163937D01*
X87139744Y-87277205D01*
X87328102Y-87355226D01*
X87528061Y-87395000D01*
X87731939Y-87395000D01*
X87931898Y-87355226D01*
X88120256Y-87277205D01*
X88289774Y-87163937D01*
X88433937Y-87019774D01*
X88547205Y-86850256D01*
X88625226Y-86661898D01*
X88665000Y-86461939D01*
X88665000Y-86258061D01*
X103105000Y-86258061D01*
X103105000Y-86461939D01*
X103144774Y-86661898D01*
X103222795Y-86850256D01*
X103336063Y-87019774D01*
X103480226Y-87163937D01*
X103649744Y-87277205D01*
X103838102Y-87355226D01*
X104038061Y-87395000D01*
X104241939Y-87395000D01*
X104441898Y-87355226D01*
X104630256Y-87277205D01*
X104799774Y-87163937D01*
X104943937Y-87019774D01*
X105057205Y-86850256D01*
X105135226Y-86661898D01*
X105175000Y-86461939D01*
X105175000Y-86258061D01*
X105135226Y-86058102D01*
X105057205Y-85869744D01*
X104943937Y-85700226D01*
X104799774Y-85556063D01*
X104630256Y-85442795D01*
X104441898Y-85364774D01*
X104241939Y-85325000D01*
X104038061Y-85325000D01*
X103838102Y-85364774D01*
X103649744Y-85442795D01*
X103480226Y-85556063D01*
X103336063Y-85700226D01*
X103222795Y-85869744D01*
X103144774Y-86058102D01*
X103105000Y-86258061D01*
X88665000Y-86258061D01*
X88625226Y-86058102D01*
X88547205Y-85869744D01*
X88433937Y-85700226D01*
X88289774Y-85556063D01*
X88120256Y-85442795D01*
X87931898Y-85364774D01*
X87731939Y-85325000D01*
X87528061Y-85325000D01*
X87328102Y-85364774D01*
X87139744Y-85442795D01*
X86970226Y-85556063D01*
X86826063Y-85700226D01*
X86712795Y-85869744D01*
X86634774Y-86058102D01*
X86595000Y-86258061D01*
X78735046Y-86258061D01*
X78750475Y-86242632D01*
X78912990Y-85999411D01*
X79024932Y-85729158D01*
X79082000Y-85442260D01*
X79082000Y-85149740D01*
X112180000Y-85149740D01*
X112180000Y-85442260D01*
X112237068Y-85729158D01*
X112349010Y-85999411D01*
X112511525Y-86242632D01*
X112718368Y-86449475D01*
X112961589Y-86611990D01*
X113231842Y-86723932D01*
X113518740Y-86781000D01*
X113811260Y-86781000D01*
X114098158Y-86723932D01*
X114368411Y-86611990D01*
X114611632Y-86449475D01*
X114818475Y-86242632D01*
X114980990Y-85999411D01*
X115092932Y-85729158D01*
X115150000Y-85442260D01*
X115150000Y-85149740D01*
X115092932Y-84862842D01*
X114980990Y-84592589D01*
X114818475Y-84349368D01*
X114611632Y-84142525D01*
X114429466Y-84020805D01*
X114546355Y-83951178D01*
X114762588Y-83756269D01*
X114936641Y-83522920D01*
X115061825Y-83260099D01*
X115106476Y-83112890D01*
X114985155Y-82883000D01*
X113792000Y-82883000D01*
X113792000Y-82903000D01*
X113538000Y-82903000D01*
X113538000Y-82883000D01*
X112344845Y-82883000D01*
X112223524Y-83112890D01*
X112268175Y-83260099D01*
X112393359Y-83522920D01*
X112567412Y-83756269D01*
X112783645Y-83951178D01*
X112900534Y-84020805D01*
X112718368Y-84142525D01*
X112511525Y-84349368D01*
X112349010Y-84592589D01*
X112237068Y-84862842D01*
X112180000Y-85149740D01*
X79082000Y-85149740D01*
X79024932Y-84862842D01*
X78912990Y-84592589D01*
X78750475Y-84349368D01*
X78543632Y-84142525D01*
X78369240Y-84026000D01*
X78543632Y-83909475D01*
X78750475Y-83702632D01*
X78912990Y-83459411D01*
X79024932Y-83189158D01*
X79082000Y-82902260D01*
X79082000Y-82609740D01*
X79024932Y-82322842D01*
X78912990Y-82052589D01*
X78750475Y-81809368D01*
X78543632Y-81602525D01*
X78369240Y-81486000D01*
X78543632Y-81369475D01*
X78750475Y-81162632D01*
X78912990Y-80919411D01*
X79024932Y-80649158D01*
X79082000Y-80362260D01*
X79082000Y-80069740D01*
X79024932Y-79782842D01*
X78912990Y-79512589D01*
X78750475Y-79269368D01*
X78543632Y-79062525D01*
X78369240Y-78946000D01*
X78543632Y-78829475D01*
X78750475Y-78622632D01*
X78912990Y-78379411D01*
X79024932Y-78109158D01*
X79082000Y-77822260D01*
X79082000Y-77529740D01*
X79024932Y-77242842D01*
X78912990Y-76972589D01*
X78750475Y-76729368D01*
X78543632Y-76522525D01*
X78369240Y-76406000D01*
X78543632Y-76289475D01*
X78750475Y-76082632D01*
X78912990Y-75839411D01*
X79024932Y-75569158D01*
X79082000Y-75282260D01*
X79082000Y-74989740D01*
X79024932Y-74702842D01*
X78912990Y-74432589D01*
X78750475Y-74189368D01*
X78543632Y-73982525D01*
X78369240Y-73866000D01*
X78543632Y-73749475D01*
X78750475Y-73542632D01*
X78912990Y-73299411D01*
X79024932Y-73029158D01*
X79082000Y-72742260D01*
X79082000Y-72449740D01*
X79024932Y-72162842D01*
X78912990Y-71892589D01*
X78750475Y-71649368D01*
X78543632Y-71442525D01*
X78369240Y-71326000D01*
X78543632Y-71209475D01*
X78750475Y-71002632D01*
X78912990Y-70759411D01*
X79024932Y-70489158D01*
X79082000Y-70202260D01*
X79082000Y-69909740D01*
X79024932Y-69622842D01*
X78912990Y-69352589D01*
X78750475Y-69109368D01*
X78618620Y-68977513D01*
X78691180Y-68955502D01*
X78801494Y-68896537D01*
X78898185Y-68817185D01*
X78977537Y-68720494D01*
X79036502Y-68610180D01*
X79072812Y-68490482D01*
X79085072Y-68366000D01*
X79085072Y-66666000D01*
X79072812Y-66541518D01*
X79036502Y-66421820D01*
X78977537Y-66311506D01*
X78898185Y-66214815D01*
X78801494Y-66135463D01*
X78691180Y-66076498D01*
X78571482Y-66040188D01*
X78447000Y-66027928D01*
X76747000Y-66027928D01*
X76622518Y-66040188D01*
X76502820Y-66076498D01*
X76392506Y-66135463D01*
X76295815Y-66214815D01*
X76216463Y-66311506D01*
X76157498Y-66421820D01*
X76121188Y-66541518D01*
X76108928Y-66666000D01*
X70660000Y-66666000D01*
X70660000Y-65992000D01*
X82559057Y-65992000D01*
X82586764Y-66273309D01*
X82668818Y-66543808D01*
X82802068Y-66793101D01*
X82981392Y-67011608D01*
X83199899Y-67190932D01*
X83332858Y-67262000D01*
X83199899Y-67333068D01*
X82981392Y-67512392D01*
X82802068Y-67730899D01*
X82668818Y-67980192D01*
X82586764Y-68250691D01*
X82559057Y-68532000D01*
X82586764Y-68813309D01*
X82668818Y-69083808D01*
X82802068Y-69333101D01*
X82981392Y-69551608D01*
X83199899Y-69730932D01*
X83332858Y-69802000D01*
X83199899Y-69873068D01*
X82981392Y-70052392D01*
X82802068Y-70270899D01*
X82668818Y-70520192D01*
X82586764Y-70790691D01*
X82559057Y-71072000D01*
X82586764Y-71353309D01*
X82668818Y-71623808D01*
X82802068Y-71873101D01*
X82981392Y-72091608D01*
X83199899Y-72270932D01*
X83332858Y-72342000D01*
X83199899Y-72413068D01*
X82981392Y-72592392D01*
X82802068Y-72810899D01*
X82668818Y-73060192D01*
X82586764Y-73330691D01*
X82559057Y-73612000D01*
X82586764Y-73893309D01*
X82668818Y-74163808D01*
X82802068Y-74413101D01*
X82981392Y-74631608D01*
X83199899Y-74810932D01*
X83332858Y-74882000D01*
X83199899Y-74953068D01*
X82981392Y-75132392D01*
X82802068Y-75350899D01*
X82668818Y-75600192D01*
X82586764Y-75870691D01*
X82559057Y-76152000D01*
X82586764Y-76433309D01*
X82668818Y-76703808D01*
X82802068Y-76953101D01*
X82981392Y-77171608D01*
X83199899Y-77350932D01*
X83332858Y-77422000D01*
X83199899Y-77493068D01*
X82981392Y-77672392D01*
X82802068Y-77890899D01*
X82668818Y-78140192D01*
X82586764Y-78410691D01*
X82559057Y-78692000D01*
X82586764Y-78973309D01*
X82668818Y-79243808D01*
X82802068Y-79493101D01*
X82981392Y-79711608D01*
X83199899Y-79890932D01*
X83332858Y-79962000D01*
X83199899Y-80033068D01*
X82981392Y-80212392D01*
X82802068Y-80430899D01*
X82668818Y-80680192D01*
X82586764Y-80950691D01*
X82559057Y-81232000D01*
X82586764Y-81513309D01*
X82668818Y-81783808D01*
X82802068Y-82033101D01*
X82981392Y-82251608D01*
X83199899Y-82430932D01*
X83449192Y-82564182D01*
X83719691Y-82646236D01*
X83930508Y-82667000D01*
X84471492Y-82667000D01*
X84682309Y-82646236D01*
X84952808Y-82564182D01*
X85202101Y-82430932D01*
X85420608Y-82251608D01*
X85599932Y-82033101D01*
X85733182Y-81783808D01*
X85815236Y-81513309D01*
X85842943Y-81232000D01*
X105419057Y-81232000D01*
X105446764Y-81513309D01*
X105528818Y-81783808D01*
X105662068Y-82033101D01*
X105841392Y-82251608D01*
X106059899Y-82430932D01*
X106309192Y-82564182D01*
X106579691Y-82646236D01*
X106790508Y-82667000D01*
X107331492Y-82667000D01*
X107542309Y-82646236D01*
X107812808Y-82564182D01*
X108062101Y-82430932D01*
X108280608Y-82251608D01*
X108459932Y-82033101D01*
X108593182Y-81783808D01*
X108675236Y-81513309D01*
X108702943Y-81232000D01*
X108675236Y-80950691D01*
X108593182Y-80680192D01*
X108459932Y-80430899D01*
X108280608Y-80212392D01*
X108062101Y-80033068D01*
X107932655Y-79963878D01*
X107950227Y-79956430D01*
X108183662Y-79797673D01*
X108381639Y-79596425D01*
X108536551Y-79360421D01*
X108642444Y-79098730D01*
X108652904Y-79041039D01*
X108530915Y-78819000D01*
X107188000Y-78819000D01*
X107188000Y-78839000D01*
X106934000Y-78839000D01*
X106934000Y-78819000D01*
X105591085Y-78819000D01*
X105469096Y-79041039D01*
X105479556Y-79098730D01*
X105585449Y-79360421D01*
X105740361Y-79596425D01*
X105938338Y-79797673D01*
X106171773Y-79956430D01*
X106189345Y-79963878D01*
X106059899Y-80033068D01*
X105841392Y-80212392D01*
X105662068Y-80430899D01*
X105528818Y-80680192D01*
X105446764Y-80950691D01*
X105419057Y-81232000D01*
X85842943Y-81232000D01*
X85815236Y-80950691D01*
X85733182Y-80680192D01*
X85599932Y-80430899D01*
X85420608Y-80212392D01*
X85202101Y-80033068D01*
X85069142Y-79962000D01*
X85202101Y-79890932D01*
X85420608Y-79711608D01*
X85599932Y-79493101D01*
X85675319Y-79352061D01*
X93961000Y-79352061D01*
X93961000Y-79555939D01*
X94000774Y-79755898D01*
X94078795Y-79944256D01*
X94192063Y-80113774D01*
X94336226Y-80257937D01*
X94505744Y-80371205D01*
X94694102Y-80449226D01*
X94894061Y-80489000D01*
X95097939Y-80489000D01*
X95297898Y-80449226D01*
X95486256Y-80371205D01*
X95655774Y-80257937D01*
X95699711Y-80214000D01*
X96832289Y-80214000D01*
X96876226Y-80257937D01*
X97045744Y-80371205D01*
X97234102Y-80449226D01*
X97434061Y-80489000D01*
X97637939Y-80489000D01*
X97837898Y-80449226D01*
X98026256Y-80371205D01*
X98195774Y-80257937D01*
X98339937Y-80113774D01*
X98453205Y-79944256D01*
X98531226Y-79755898D01*
X98571000Y-79555939D01*
X98571000Y-79352061D01*
X98531226Y-79152102D01*
X98453205Y-78963744D01*
X98339937Y-78794226D01*
X98195774Y-78650063D01*
X98026256Y-78536795D01*
X97837898Y-78458774D01*
X97637939Y-78419000D01*
X97434061Y-78419000D01*
X97234102Y-78458774D01*
X97045744Y-78536795D01*
X96876226Y-78650063D01*
X96832289Y-78694000D01*
X95699711Y-78694000D01*
X95655774Y-78650063D01*
X95486256Y-78536795D01*
X95297898Y-78458774D01*
X95097939Y-78419000D01*
X94894061Y-78419000D01*
X94694102Y-78458774D01*
X94505744Y-78536795D01*
X94336226Y-78650063D01*
X94192063Y-78794226D01*
X94078795Y-78963744D01*
X94000774Y-79152102D01*
X93961000Y-79352061D01*
X85675319Y-79352061D01*
X85733182Y-79243808D01*
X85815236Y-78973309D01*
X85842943Y-78692000D01*
X85815236Y-78410691D01*
X85733182Y-78140192D01*
X85599932Y-77890899D01*
X85420608Y-77672392D01*
X85202101Y-77493068D01*
X85069142Y-77422000D01*
X85202101Y-77350932D01*
X85420608Y-77171608D01*
X85599932Y-76953101D01*
X85733182Y-76703808D01*
X85815236Y-76433309D01*
X85842943Y-76152000D01*
X85815236Y-75870691D01*
X85792598Y-75796061D01*
X94469000Y-75796061D01*
X94469000Y-75999939D01*
X94508774Y-76199898D01*
X94586795Y-76388256D01*
X94700063Y-76557774D01*
X94844226Y-76701937D01*
X95013744Y-76815205D01*
X95202102Y-76893226D01*
X95402061Y-76933000D01*
X95605939Y-76933000D01*
X95805898Y-76893226D01*
X95994256Y-76815205D01*
X96163774Y-76701937D01*
X96207711Y-76658000D01*
X102214289Y-76658000D01*
X102258226Y-76701937D01*
X102427744Y-76815205D01*
X102616102Y-76893226D01*
X102816061Y-76933000D01*
X103019939Y-76933000D01*
X103219898Y-76893226D01*
X103408256Y-76815205D01*
X103577774Y-76701937D01*
X103721937Y-76557774D01*
X103835205Y-76388256D01*
X103913226Y-76199898D01*
X103953000Y-75999939D01*
X103953000Y-75796061D01*
X103913226Y-75596102D01*
X103835205Y-75407744D01*
X103721937Y-75238226D01*
X103577774Y-75094063D01*
X103408256Y-74980795D01*
X103219898Y-74902774D01*
X103019939Y-74863000D01*
X102816061Y-74863000D01*
X102616102Y-74902774D01*
X102427744Y-74980795D01*
X102258226Y-75094063D01*
X102214289Y-75138000D01*
X98817708Y-75138000D01*
X98825000Y-75101339D01*
X98825000Y-75039201D01*
X100949005Y-72915197D01*
X101139898Y-72877226D01*
X101328256Y-72799205D01*
X101497774Y-72685937D01*
X101641937Y-72541774D01*
X101755205Y-72372256D01*
X101833226Y-72183898D01*
X101873000Y-71983939D01*
X101873000Y-71780061D01*
X101833226Y-71580102D01*
X101755205Y-71391744D01*
X101641937Y-71222226D01*
X101497774Y-71078063D01*
X101328256Y-70964795D01*
X101139898Y-70886774D01*
X100939939Y-70847000D01*
X100736061Y-70847000D01*
X100536102Y-70886774D01*
X100347744Y-70964795D01*
X100178226Y-71078063D01*
X100034063Y-71222226D01*
X99920795Y-71391744D01*
X99842774Y-71580102D01*
X99803000Y-71780061D01*
X99803000Y-71911598D01*
X97750199Y-73964400D01*
X97688061Y-73964400D01*
X97488102Y-74004174D01*
X97299744Y-74082195D01*
X97130226Y-74195463D01*
X96986063Y-74339626D01*
X96872795Y-74509144D01*
X96794774Y-74697502D01*
X96755000Y-74897461D01*
X96755000Y-75101339D01*
X96762292Y-75138000D01*
X96207711Y-75138000D01*
X96163774Y-75094063D01*
X95994256Y-74980795D01*
X95805898Y-74902774D01*
X95605939Y-74863000D01*
X95402061Y-74863000D01*
X95202102Y-74902774D01*
X95013744Y-74980795D01*
X94844226Y-75094063D01*
X94700063Y-75238226D01*
X94586795Y-75407744D01*
X94508774Y-75596102D01*
X94469000Y-75796061D01*
X85792598Y-75796061D01*
X85733182Y-75600192D01*
X85599932Y-75350899D01*
X85420608Y-75132392D01*
X85202101Y-74953068D01*
X85069142Y-74882000D01*
X85202101Y-74810932D01*
X85420608Y-74631608D01*
X85599932Y-74413101D01*
X85733182Y-74163808D01*
X85815236Y-73893309D01*
X85842943Y-73612000D01*
X85815236Y-73330691D01*
X85733182Y-73060192D01*
X85599932Y-72810899D01*
X85420608Y-72592392D01*
X85202101Y-72413068D01*
X85069142Y-72342000D01*
X85202101Y-72270932D01*
X85420608Y-72091608D01*
X85599932Y-71873101D01*
X85733182Y-71623808D01*
X85815236Y-71353309D01*
X85842943Y-71072000D01*
X85815236Y-70790691D01*
X85733182Y-70520192D01*
X85599932Y-70270899D01*
X85420608Y-70052392D01*
X85202101Y-69873068D01*
X85069142Y-69802000D01*
X85202101Y-69730932D01*
X85420608Y-69551608D01*
X85599932Y-69333101D01*
X85733182Y-69083808D01*
X85815236Y-68813309D01*
X85842943Y-68532000D01*
X85816514Y-68263665D01*
X92545000Y-68263665D01*
X92545000Y-68546335D01*
X92600147Y-68823574D01*
X92708320Y-69084727D01*
X92865363Y-69319759D01*
X93065241Y-69519637D01*
X93300273Y-69676680D01*
X93561426Y-69784853D01*
X93838665Y-69840000D01*
X94121335Y-69840000D01*
X94398574Y-69784853D01*
X94659727Y-69676680D01*
X94894759Y-69519637D01*
X95016694Y-69397702D01*
X98166903Y-69397702D01*
X98238486Y-69641671D01*
X98493996Y-69762571D01*
X98768184Y-69831300D01*
X99050512Y-69845217D01*
X99330130Y-69803787D01*
X99596292Y-69708603D01*
X99721514Y-69641671D01*
X99793097Y-69397702D01*
X98980000Y-68584605D01*
X98166903Y-69397702D01*
X95016694Y-69397702D01*
X95094637Y-69319759D01*
X95251680Y-69084727D01*
X95359853Y-68823574D01*
X95415000Y-68546335D01*
X95415000Y-68475512D01*
X97539783Y-68475512D01*
X97581213Y-68755130D01*
X97676397Y-69021292D01*
X97743329Y-69146514D01*
X97987298Y-69218097D01*
X98800395Y-68405000D01*
X99159605Y-68405000D01*
X99972702Y-69218097D01*
X100216671Y-69146514D01*
X100337571Y-68891004D01*
X100406300Y-68616816D01*
X100420217Y-68334488D01*
X100378787Y-68054870D01*
X100283603Y-67788708D01*
X100216671Y-67663486D01*
X99972702Y-67591903D01*
X99159605Y-68405000D01*
X98800395Y-68405000D01*
X97987298Y-67591903D01*
X97743329Y-67663486D01*
X97622429Y-67918996D01*
X97553700Y-68193184D01*
X97539783Y-68475512D01*
X95415000Y-68475512D01*
X95415000Y-68263665D01*
X95359853Y-67986426D01*
X95251680Y-67725273D01*
X95094637Y-67490241D01*
X95016694Y-67412298D01*
X98166903Y-67412298D01*
X98980000Y-68225395D01*
X99793097Y-67412298D01*
X99721514Y-67168329D01*
X99466004Y-67047429D01*
X99191816Y-66978700D01*
X98909488Y-66964783D01*
X98629870Y-67006213D01*
X98363708Y-67101397D01*
X98238486Y-67168329D01*
X98166903Y-67412298D01*
X95016694Y-67412298D01*
X94894759Y-67290363D01*
X94659727Y-67133320D01*
X94398574Y-67025147D01*
X94121335Y-66970000D01*
X93838665Y-66970000D01*
X93561426Y-67025147D01*
X93300273Y-67133320D01*
X93065241Y-67290363D01*
X92865363Y-67490241D01*
X92708320Y-67725273D01*
X92600147Y-67986426D01*
X92545000Y-68263665D01*
X85816514Y-68263665D01*
X85815236Y-68250691D01*
X85733182Y-67980192D01*
X85599932Y-67730899D01*
X85420608Y-67512392D01*
X85202101Y-67333068D01*
X85069142Y-67262000D01*
X85202101Y-67190932D01*
X85420608Y-67011608D01*
X85599932Y-66793101D01*
X85733182Y-66543808D01*
X85815236Y-66273309D01*
X85842943Y-65992000D01*
X85815236Y-65710691D01*
X85733182Y-65440192D01*
X85599932Y-65190899D01*
X85467524Y-65029559D01*
X85555494Y-64982537D01*
X85652185Y-64903185D01*
X85731537Y-64806494D01*
X85790502Y-64696180D01*
X85826812Y-64576482D01*
X85839072Y-64452000D01*
X85839072Y-63398061D01*
X86595000Y-63398061D01*
X86595000Y-63601939D01*
X86634774Y-63801898D01*
X86712795Y-63990256D01*
X86826063Y-64159774D01*
X86970226Y-64303937D01*
X87139744Y-64417205D01*
X87328102Y-64495226D01*
X87528061Y-64535000D01*
X87731939Y-64535000D01*
X87931898Y-64495226D01*
X88120256Y-64417205D01*
X88289774Y-64303937D01*
X88433937Y-64159774D01*
X88547205Y-63990256D01*
X88625226Y-63801898D01*
X88665000Y-63601939D01*
X88665000Y-63398061D01*
X103105000Y-63398061D01*
X103105000Y-63601939D01*
X103144774Y-63801898D01*
X103222795Y-63990256D01*
X103336063Y-64159774D01*
X103480226Y-64303937D01*
X103649744Y-64417205D01*
X103838102Y-64495226D01*
X104038061Y-64535000D01*
X104241939Y-64535000D01*
X104441898Y-64495226D01*
X104630256Y-64417205D01*
X104799774Y-64303937D01*
X104943937Y-64159774D01*
X105057205Y-63990256D01*
X105135226Y-63801898D01*
X105175000Y-63601939D01*
X105175000Y-63398061D01*
X105135226Y-63198102D01*
X105057205Y-63009744D01*
X104943937Y-62840226D01*
X104799774Y-62696063D01*
X104630256Y-62582795D01*
X104441898Y-62504774D01*
X104241939Y-62465000D01*
X104038061Y-62465000D01*
X103838102Y-62504774D01*
X103649744Y-62582795D01*
X103480226Y-62696063D01*
X103336063Y-62840226D01*
X103222795Y-63009744D01*
X103144774Y-63198102D01*
X103105000Y-63398061D01*
X88665000Y-63398061D01*
X88625226Y-63198102D01*
X88547205Y-63009744D01*
X88433937Y-62840226D01*
X88289774Y-62696063D01*
X88120256Y-62582795D01*
X87931898Y-62504774D01*
X87731939Y-62465000D01*
X87528061Y-62465000D01*
X87328102Y-62504774D01*
X87139744Y-62582795D01*
X86970226Y-62696063D01*
X86826063Y-62840226D01*
X86712795Y-63009744D01*
X86634774Y-63198102D01*
X86595000Y-63398061D01*
X85839072Y-63398061D01*
X85839072Y-62452000D01*
X85826812Y-62327518D01*
X85790502Y-62207820D01*
X85731537Y-62097506D01*
X85696653Y-62055000D01*
X106522871Y-62055000D01*
X106309192Y-62119818D01*
X106059899Y-62253068D01*
X105841392Y-62432392D01*
X105662068Y-62650899D01*
X105528818Y-62900192D01*
X105446764Y-63170691D01*
X105419057Y-63452000D01*
X105446764Y-63733309D01*
X105528818Y-64003808D01*
X105662068Y-64253101D01*
X105841392Y-64471608D01*
X106059899Y-64650932D01*
X106192858Y-64722000D01*
X106059899Y-64793068D01*
X105841392Y-64972392D01*
X105662068Y-65190899D01*
X105528818Y-65440192D01*
X105446764Y-65710691D01*
X105419057Y-65992000D01*
X105446764Y-66273309D01*
X105528818Y-66543808D01*
X105662068Y-66793101D01*
X105841392Y-67011608D01*
X106059899Y-67190932D01*
X106192858Y-67262000D01*
X106059899Y-67333068D01*
X105841392Y-67512392D01*
X105662068Y-67730899D01*
X105528818Y-67980192D01*
X105446764Y-68250691D01*
X105419057Y-68532000D01*
X105446764Y-68813309D01*
X105528818Y-69083808D01*
X105662068Y-69333101D01*
X105841392Y-69551608D01*
X106059899Y-69730932D01*
X106192858Y-69802000D01*
X106059899Y-69873068D01*
X105841392Y-70052392D01*
X105662068Y-70270899D01*
X105528818Y-70520192D01*
X105446764Y-70790691D01*
X105419057Y-71072000D01*
X105446764Y-71353309D01*
X105528818Y-71623808D01*
X105662068Y-71873101D01*
X105841392Y-72091608D01*
X106059899Y-72270932D01*
X106192858Y-72342000D01*
X106059899Y-72413068D01*
X105841392Y-72592392D01*
X105662068Y-72810899D01*
X105528818Y-73060192D01*
X105446764Y-73330691D01*
X105419057Y-73612000D01*
X105446764Y-73893309D01*
X105528818Y-74163808D01*
X105662068Y-74413101D01*
X105841392Y-74631608D01*
X106059899Y-74810932D01*
X106192858Y-74882000D01*
X106059899Y-74953068D01*
X105841392Y-75132392D01*
X105662068Y-75350899D01*
X105528818Y-75600192D01*
X105446764Y-75870691D01*
X105419057Y-76152000D01*
X105446764Y-76433309D01*
X105528818Y-76703808D01*
X105662068Y-76953101D01*
X105841392Y-77171608D01*
X106059899Y-77350932D01*
X106189345Y-77420122D01*
X106171773Y-77427570D01*
X105938338Y-77586327D01*
X105740361Y-77787575D01*
X105585449Y-78023579D01*
X105479556Y-78285270D01*
X105469096Y-78342961D01*
X105591085Y-78565000D01*
X106934000Y-78565000D01*
X106934000Y-78545000D01*
X107188000Y-78545000D01*
X107188000Y-78565000D01*
X108530915Y-78565000D01*
X108652904Y-78342961D01*
X108642444Y-78285270D01*
X108536551Y-78023579D01*
X108381639Y-77787575D01*
X108183662Y-77586327D01*
X107950227Y-77427570D01*
X107932655Y-77420122D01*
X108062101Y-77350932D01*
X108280608Y-77171608D01*
X108459932Y-76953101D01*
X108593182Y-76703808D01*
X108675236Y-76433309D01*
X108702943Y-76152000D01*
X108675236Y-75870691D01*
X108593182Y-75600192D01*
X108459932Y-75350899D01*
X108280608Y-75132392D01*
X108062101Y-74953068D01*
X107929142Y-74882000D01*
X108062101Y-74810932D01*
X108280608Y-74631608D01*
X108459932Y-74413101D01*
X108593182Y-74163808D01*
X108675236Y-73893309D01*
X108702943Y-73612000D01*
X108675236Y-73330691D01*
X108593182Y-73060192D01*
X108459932Y-72810899D01*
X108280608Y-72592392D01*
X108062101Y-72413068D01*
X107929142Y-72342000D01*
X108062101Y-72270932D01*
X108280608Y-72091608D01*
X108459932Y-71873101D01*
X108593182Y-71623808D01*
X108675236Y-71353309D01*
X108702943Y-71072000D01*
X108675236Y-70790691D01*
X108593182Y-70520192D01*
X108459932Y-70270899D01*
X108280608Y-70052392D01*
X108062101Y-69873068D01*
X107929142Y-69802000D01*
X108062101Y-69730932D01*
X108280608Y-69551608D01*
X108459932Y-69333101D01*
X108593182Y-69083808D01*
X108675236Y-68813309D01*
X108702943Y-68532000D01*
X108675236Y-68250691D01*
X108593182Y-67980192D01*
X108459932Y-67730899D01*
X108280608Y-67512392D01*
X108062101Y-67333068D01*
X107929142Y-67262000D01*
X108062101Y-67190932D01*
X108280608Y-67011608D01*
X108459932Y-66793101D01*
X108527868Y-66666000D01*
X112176928Y-66666000D01*
X112176928Y-68366000D01*
X112189188Y-68490482D01*
X112225498Y-68610180D01*
X112284463Y-68720494D01*
X112363815Y-68817185D01*
X112460506Y-68896537D01*
X112570820Y-68955502D01*
X112643380Y-68977513D01*
X112511525Y-69109368D01*
X112349010Y-69352589D01*
X112237068Y-69622842D01*
X112180000Y-69909740D01*
X112180000Y-70202260D01*
X112237068Y-70489158D01*
X112349010Y-70759411D01*
X112511525Y-71002632D01*
X112718368Y-71209475D01*
X112892760Y-71326000D01*
X112718368Y-71442525D01*
X112511525Y-71649368D01*
X112349010Y-71892589D01*
X112237068Y-72162842D01*
X112180000Y-72449740D01*
X112180000Y-72742260D01*
X112237068Y-73029158D01*
X112349010Y-73299411D01*
X112511525Y-73542632D01*
X112718368Y-73749475D01*
X112892760Y-73866000D01*
X112718368Y-73982525D01*
X112511525Y-74189368D01*
X112349010Y-74432589D01*
X112237068Y-74702842D01*
X112180000Y-74989740D01*
X112180000Y-75282260D01*
X112237068Y-75569158D01*
X112349010Y-75839411D01*
X112511525Y-76082632D01*
X112718368Y-76289475D01*
X112892760Y-76406000D01*
X112718368Y-76522525D01*
X112511525Y-76729368D01*
X112349010Y-76972589D01*
X112237068Y-77242842D01*
X112180000Y-77529740D01*
X112180000Y-77822260D01*
X112237068Y-78109158D01*
X112349010Y-78379411D01*
X112511525Y-78622632D01*
X112718368Y-78829475D01*
X112892760Y-78946000D01*
X112718368Y-79062525D01*
X112511525Y-79269368D01*
X112349010Y-79512589D01*
X112237068Y-79782842D01*
X112180000Y-80069740D01*
X112180000Y-80362260D01*
X112237068Y-80649158D01*
X112349010Y-80919411D01*
X112511525Y-81162632D01*
X112718368Y-81369475D01*
X112900534Y-81491195D01*
X112783645Y-81560822D01*
X112567412Y-81755731D01*
X112393359Y-81989080D01*
X112268175Y-82251901D01*
X112223524Y-82399110D01*
X112344845Y-82629000D01*
X113538000Y-82629000D01*
X113538000Y-82609000D01*
X113792000Y-82609000D01*
X113792000Y-82629000D01*
X114985155Y-82629000D01*
X115106476Y-82399110D01*
X115061825Y-82251901D01*
X114936641Y-81989080D01*
X114762588Y-81755731D01*
X114546355Y-81560822D01*
X114429466Y-81491195D01*
X114611632Y-81369475D01*
X114818475Y-81162632D01*
X114980990Y-80919411D01*
X115092932Y-80649158D01*
X115150000Y-80362260D01*
X115150000Y-80069740D01*
X115092932Y-79782842D01*
X114980990Y-79512589D01*
X114818475Y-79269368D01*
X114611632Y-79062525D01*
X114437240Y-78946000D01*
X114611632Y-78829475D01*
X114818475Y-78622632D01*
X114980990Y-78379411D01*
X115092932Y-78109158D01*
X115150000Y-77822260D01*
X115150000Y-77529740D01*
X115092932Y-77242842D01*
X114980990Y-76972589D01*
X114818475Y-76729368D01*
X114611632Y-76522525D01*
X114437240Y-76406000D01*
X114611632Y-76289475D01*
X114818475Y-76082632D01*
X114980990Y-75839411D01*
X115092932Y-75569158D01*
X115150000Y-75282260D01*
X115150000Y-74989740D01*
X115092932Y-74702842D01*
X114980990Y-74432589D01*
X114818475Y-74189368D01*
X114611632Y-73982525D01*
X114437240Y-73866000D01*
X114611632Y-73749475D01*
X114818475Y-73542632D01*
X114980990Y-73299411D01*
X115092932Y-73029158D01*
X115150000Y-72742260D01*
X115150000Y-72449740D01*
X115092932Y-72162842D01*
X114980990Y-71892589D01*
X114818475Y-71649368D01*
X114611632Y-71442525D01*
X114437240Y-71326000D01*
X114611632Y-71209475D01*
X114818475Y-71002632D01*
X114980990Y-70759411D01*
X115092932Y-70489158D01*
X115150000Y-70202260D01*
X115150000Y-69909740D01*
X115092932Y-69622842D01*
X114980990Y-69352589D01*
X114818475Y-69109368D01*
X114686620Y-68977513D01*
X114759180Y-68955502D01*
X114869494Y-68896537D01*
X114966185Y-68817185D01*
X115045537Y-68720494D01*
X115104502Y-68610180D01*
X115140812Y-68490482D01*
X115153072Y-68366000D01*
X115153072Y-66666000D01*
X115140812Y-66541518D01*
X115104502Y-66421820D01*
X115045537Y-66311506D01*
X114966185Y-66214815D01*
X114869494Y-66135463D01*
X114759180Y-66076498D01*
X114639482Y-66040188D01*
X114515000Y-66027928D01*
X112815000Y-66027928D01*
X112690518Y-66040188D01*
X112570820Y-66076498D01*
X112460506Y-66135463D01*
X112363815Y-66214815D01*
X112284463Y-66311506D01*
X112225498Y-66421820D01*
X112189188Y-66541518D01*
X112176928Y-66666000D01*
X108527868Y-66666000D01*
X108593182Y-66543808D01*
X108675236Y-66273309D01*
X108702943Y-65992000D01*
X108675236Y-65710691D01*
X108593182Y-65440192D01*
X108459932Y-65190899D01*
X108280608Y-64972392D01*
X108062101Y-64793068D01*
X107929142Y-64722000D01*
X108062101Y-64650932D01*
X108280608Y-64471608D01*
X108459932Y-64253101D01*
X108593182Y-64003808D01*
X108675236Y-63733309D01*
X108702943Y-63452000D01*
X108675236Y-63170691D01*
X108593182Y-62900192D01*
X108459932Y-62650899D01*
X108447755Y-62636061D01*
X110979000Y-62636061D01*
X110979000Y-62839939D01*
X111018774Y-63039898D01*
X111096795Y-63228256D01*
X111210063Y-63397774D01*
X111354226Y-63541937D01*
X111523744Y-63655205D01*
X111712102Y-63733226D01*
X111912061Y-63773000D01*
X112115939Y-63773000D01*
X112315898Y-63733226D01*
X112504256Y-63655205D01*
X112673774Y-63541937D01*
X112817937Y-63397774D01*
X112931205Y-63228256D01*
X113009226Y-63039898D01*
X113049000Y-62839939D01*
X113049000Y-62636061D01*
X115805000Y-62636061D01*
X115805000Y-62839939D01*
X115844774Y-63039898D01*
X115922795Y-63228256D01*
X116036063Y-63397774D01*
X116180226Y-63541937D01*
X116349744Y-63655205D01*
X116538102Y-63733226D01*
X116738061Y-63773000D01*
X116941939Y-63773000D01*
X117141898Y-63733226D01*
X117330256Y-63655205D01*
X117499774Y-63541937D01*
X117643937Y-63397774D01*
X117757205Y-63228256D01*
X117835226Y-63039898D01*
X117875000Y-62839939D01*
X117875000Y-62636061D01*
X117835226Y-62436102D01*
X117757205Y-62247744D01*
X117643937Y-62078226D01*
X117499774Y-61934063D01*
X117330256Y-61820795D01*
X117141898Y-61742774D01*
X116941939Y-61703000D01*
X116738061Y-61703000D01*
X116538102Y-61742774D01*
X116349744Y-61820795D01*
X116180226Y-61934063D01*
X116036063Y-62078226D01*
X115922795Y-62247744D01*
X115844774Y-62436102D01*
X115805000Y-62636061D01*
X113049000Y-62636061D01*
X113009226Y-62436102D01*
X112931205Y-62247744D01*
X112817937Y-62078226D01*
X112673774Y-61934063D01*
X112504256Y-61820795D01*
X112315898Y-61742774D01*
X112115939Y-61703000D01*
X111912061Y-61703000D01*
X111712102Y-61742774D01*
X111523744Y-61820795D01*
X111354226Y-61934063D01*
X111210063Y-62078226D01*
X111096795Y-62247744D01*
X111018774Y-62436102D01*
X110979000Y-62636061D01*
X108447755Y-62636061D01*
X108280608Y-62432392D01*
X108062101Y-62253068D01*
X107812808Y-62119818D01*
X107599129Y-62055000D01*
X108458000Y-62055000D01*
X108482776Y-62052560D01*
X108506601Y-62045333D01*
X108528557Y-62033597D01*
X108547803Y-62017803D01*
X108563597Y-61998557D01*
X108575333Y-61976601D01*
X108582560Y-61952776D01*
X108585000Y-61928000D01*
X108585000Y-57641984D01*
X111365000Y-57641984D01*
X111365000Y-58358016D01*
X111504691Y-59060290D01*
X111778705Y-59721818D01*
X112176511Y-60317177D01*
X112682823Y-60823489D01*
X113278182Y-61221295D01*
X113939710Y-61495309D01*
X114641984Y-61635000D01*
X115358016Y-61635000D01*
X116060290Y-61495309D01*
X116721818Y-61221295D01*
X117317177Y-60823489D01*
X117823489Y-60317177D01*
X118221295Y-59721818D01*
X118495309Y-59060290D01*
X118635000Y-58358016D01*
X118635000Y-57641984D01*
X118495309Y-56939710D01*
X118221295Y-56278182D01*
X117823489Y-55682823D01*
X117317177Y-55176511D01*
X116721818Y-54778705D01*
X116060290Y-54504691D01*
X115358016Y-54365000D01*
X114641984Y-54365000D01*
X113939710Y-54504691D01*
X113278182Y-54778705D01*
X112682823Y-55176511D01*
X112176511Y-55682823D01*
X111778705Y-56278182D01*
X111504691Y-56939710D01*
X111365000Y-57641984D01*
X108585000Y-57641984D01*
X108585000Y-55070000D01*
X108582560Y-55045224D01*
X108575333Y-55021399D01*
X108563597Y-54999443D01*
X108547803Y-54980197D01*
X108528557Y-54964403D01*
X108506601Y-54952667D01*
X108482776Y-54945440D01*
X108458000Y-54943000D01*
X82804000Y-54943000D01*
X82779224Y-54945440D01*
X82755399Y-54952667D01*
X82733443Y-54964403D01*
X82714197Y-54980197D01*
X82698403Y-54999443D01*
X82686667Y-55021399D01*
X82679440Y-55045224D01*
X82677000Y-55070000D01*
X82677000Y-61928000D01*
X82679440Y-61952776D01*
X82686667Y-61976601D01*
X82698403Y-61998557D01*
X82714197Y-62017803D01*
X82727150Y-62028433D01*
X82670463Y-62097506D01*
X82611498Y-62207820D01*
X82575188Y-62327518D01*
X82562928Y-62452000D01*
X82562928Y-64452000D01*
X82575188Y-64576482D01*
X82611498Y-64696180D01*
X82670463Y-64806494D01*
X82749815Y-64903185D01*
X82846506Y-64982537D01*
X82934476Y-65029559D01*
X82802068Y-65190899D01*
X82668818Y-65440192D01*
X82586764Y-65710691D01*
X82559057Y-65992000D01*
X70660000Y-65992000D01*
X70660000Y-62636061D01*
X72625000Y-62636061D01*
X72625000Y-62839939D01*
X72664774Y-63039898D01*
X72742795Y-63228256D01*
X72856063Y-63397774D01*
X73000226Y-63541937D01*
X73169744Y-63655205D01*
X73358102Y-63733226D01*
X73558061Y-63773000D01*
X73761939Y-63773000D01*
X73961898Y-63733226D01*
X74150256Y-63655205D01*
X74319774Y-63541937D01*
X74463937Y-63397774D01*
X74577205Y-63228256D01*
X74655226Y-63039898D01*
X74695000Y-62839939D01*
X74695000Y-62636061D01*
X77705000Y-62636061D01*
X77705000Y-62839939D01*
X77744774Y-63039898D01*
X77822795Y-63228256D01*
X77936063Y-63397774D01*
X78080226Y-63541937D01*
X78249744Y-63655205D01*
X78438102Y-63733226D01*
X78638061Y-63773000D01*
X78841939Y-63773000D01*
X79041898Y-63733226D01*
X79230256Y-63655205D01*
X79399774Y-63541937D01*
X79543937Y-63397774D01*
X79657205Y-63228256D01*
X79735226Y-63039898D01*
X79775000Y-62839939D01*
X79775000Y-62636061D01*
X79735226Y-62436102D01*
X79657205Y-62247744D01*
X79543937Y-62078226D01*
X79399774Y-61934063D01*
X79230256Y-61820795D01*
X79041898Y-61742774D01*
X78841939Y-61703000D01*
X78638061Y-61703000D01*
X78438102Y-61742774D01*
X78249744Y-61820795D01*
X78080226Y-61934063D01*
X77936063Y-62078226D01*
X77822795Y-62247744D01*
X77744774Y-62436102D01*
X77705000Y-62636061D01*
X74695000Y-62636061D01*
X74655226Y-62436102D01*
X74577205Y-62247744D01*
X74463937Y-62078226D01*
X74319774Y-61934063D01*
X74150256Y-61820795D01*
X73961898Y-61742774D01*
X73761939Y-61703000D01*
X73558061Y-61703000D01*
X73358102Y-61742774D01*
X73169744Y-61820795D01*
X73000226Y-61934063D01*
X72856063Y-62078226D01*
X72742795Y-62247744D01*
X72664774Y-62436102D01*
X72625000Y-62636061D01*
X70660000Y-62636061D01*
X70660000Y-57641984D01*
X71365000Y-57641984D01*
X71365000Y-58358016D01*
X71504691Y-59060290D01*
X71778705Y-59721818D01*
X72176511Y-60317177D01*
X72682823Y-60823489D01*
X73278182Y-61221295D01*
X73939710Y-61495309D01*
X74641984Y-61635000D01*
X75358016Y-61635000D01*
X76060290Y-61495309D01*
X76721818Y-61221295D01*
X77317177Y-60823489D01*
X77823489Y-60317177D01*
X78221295Y-59721818D01*
X78495309Y-59060290D01*
X78635000Y-58358016D01*
X78635000Y-57641984D01*
X78495309Y-56939710D01*
X78221295Y-56278182D01*
X77823489Y-55682823D01*
X77317177Y-55176511D01*
X76721818Y-54778705D01*
X76060290Y-54504691D01*
X75358016Y-54365000D01*
X74641984Y-54365000D01*
X73939710Y-54504691D01*
X73278182Y-54778705D01*
X72682823Y-55176511D01*
X72176511Y-55682823D01*
X71778705Y-56278182D01*
X71504691Y-56939710D01*
X71365000Y-57641984D01*
X70660000Y-57641984D01*
X70660000Y-55032279D01*
X70688625Y-54740341D01*
X70764035Y-54490571D01*
X70886522Y-54260208D01*
X71051422Y-54058020D01*
X71252450Y-53891714D01*
X71481954Y-53767622D01*
X71731195Y-53690469D01*
X72021088Y-53660000D01*
X117967721Y-53660000D01*
X118259659Y-53688625D01*
G37*
X118259659Y-53688625D02*
X118509429Y-53764035D01*
X118739792Y-53886522D01*
X118941980Y-54051422D01*
X119108286Y-54252450D01*
X119232378Y-54481954D01*
X119309531Y-54731195D01*
X119340000Y-55021088D01*
X119340001Y-100967711D01*
X119311375Y-101259660D01*
X119235965Y-101509429D01*
X119113477Y-101739794D01*
X118948579Y-101941979D01*
X118747546Y-102108288D01*
X118518046Y-102232378D01*
X118268805Y-102309531D01*
X117978911Y-102340000D01*
X72032279Y-102340000D01*
X71740340Y-102311375D01*
X71490571Y-102235965D01*
X71260206Y-102113477D01*
X71058021Y-101948579D01*
X70891712Y-101747546D01*
X70767622Y-101518046D01*
X70690469Y-101268805D01*
X70660000Y-100978911D01*
X70660000Y-96641984D01*
X71365000Y-96641984D01*
X71365000Y-97358016D01*
X71504691Y-98060290D01*
X71778705Y-98721818D01*
X72176511Y-99317177D01*
X72682823Y-99823489D01*
X73278182Y-100221295D01*
X73939710Y-100495309D01*
X74641984Y-100635000D01*
X75358016Y-100635000D01*
X76060290Y-100495309D01*
X76721818Y-100221295D01*
X77317177Y-99823489D01*
X77823489Y-99317177D01*
X78221295Y-98721818D01*
X78495309Y-98060290D01*
X78635000Y-97358016D01*
X78635000Y-96964702D01*
X96468903Y-96964702D01*
X96540486Y-97208671D01*
X96795996Y-97329571D01*
X97070184Y-97398300D01*
X97352512Y-97412217D01*
X97632130Y-97370787D01*
X97898292Y-97275603D01*
X98023514Y-97208671D01*
X98095097Y-96964702D01*
X97282000Y-96151605D01*
X96468903Y-96964702D01*
X78635000Y-96964702D01*
X78635000Y-96641984D01*
X78515758Y-96042512D01*
X95841783Y-96042512D01*
X95883213Y-96322130D01*
X95978397Y-96588292D01*
X96045329Y-96713514D01*
X96289298Y-96785097D01*
X97102395Y-95972000D01*
X97461605Y-95972000D01*
X98274702Y-96785097D01*
X98518671Y-96713514D01*
X98552516Y-96641984D01*
X111365000Y-96641984D01*
X111365000Y-97358016D01*
X111504691Y-98060290D01*
X111778705Y-98721818D01*
X112176511Y-99317177D01*
X112682823Y-99823489D01*
X113278182Y-100221295D01*
X113939710Y-100495309D01*
X114641984Y-100635000D01*
X115358016Y-100635000D01*
X116060290Y-100495309D01*
X116721818Y-100221295D01*
X117317177Y-99823489D01*
X117823489Y-99317177D01*
X118221295Y-98721818D01*
X118495309Y-98060290D01*
X118635000Y-97358016D01*
X118635000Y-96641984D01*
X118495309Y-95939710D01*
X118221295Y-95278182D01*
X117823489Y-94682823D01*
X117317177Y-94176511D01*
X116721818Y-93778705D01*
X116060290Y-93504691D01*
X115358016Y-93365000D01*
X114641984Y-93365000D01*
X113939710Y-93504691D01*
X113278182Y-93778705D01*
X112682823Y-94176511D01*
X112176511Y-94682823D01*
X111778705Y-95278182D01*
X111504691Y-95939710D01*
X111365000Y-96641984D01*
X98552516Y-96641984D01*
X98639571Y-96458004D01*
X98708300Y-96183816D01*
X98722217Y-95901488D01*
X98680787Y-95621870D01*
X98585603Y-95355708D01*
X98518671Y-95230486D01*
X98274702Y-95158903D01*
X97461605Y-95972000D01*
X97102395Y-95972000D01*
X96289298Y-95158903D01*
X96045329Y-95230486D01*
X95924429Y-95485996D01*
X95855700Y-95760184D01*
X95841783Y-96042512D01*
X78515758Y-96042512D01*
X78495309Y-95939710D01*
X78221295Y-95278182D01*
X77823489Y-94682823D01*
X77317177Y-94176511D01*
X76721818Y-93778705D01*
X76060290Y-93504691D01*
X75358016Y-93365000D01*
X74641984Y-93365000D01*
X73939710Y-93504691D01*
X73278182Y-93778705D01*
X72682823Y-94176511D01*
X72176511Y-94682823D01*
X71778705Y-95278182D01*
X71504691Y-95939710D01*
X71365000Y-96641984D01*
X70660000Y-96641984D01*
X70660000Y-93330665D01*
X95847000Y-93330665D01*
X95847000Y-93613335D01*
X95902147Y-93890574D01*
X96010320Y-94151727D01*
X96167363Y-94386759D01*
X96367241Y-94586637D01*
X96567869Y-94720692D01*
X96540486Y-94735329D01*
X96468903Y-94979298D01*
X97282000Y-95792395D01*
X98095097Y-94979298D01*
X98023514Y-94735329D01*
X97994659Y-94721676D01*
X98196759Y-94586637D01*
X98396637Y-94386759D01*
X98553680Y-94151727D01*
X98661853Y-93890574D01*
X98717000Y-93613335D01*
X98717000Y-93330665D01*
X98661853Y-93053426D01*
X98553680Y-92792273D01*
X98396637Y-92557241D01*
X98196759Y-92357363D01*
X97961727Y-92200320D01*
X97700574Y-92092147D01*
X97423335Y-92037000D01*
X97140665Y-92037000D01*
X96863426Y-92092147D01*
X96602273Y-92200320D01*
X96367241Y-92357363D01*
X96167363Y-92557241D01*
X96010320Y-92792273D01*
X95902147Y-93053426D01*
X95847000Y-93330665D01*
X70660000Y-93330665D01*
X70660000Y-89306061D01*
X72371000Y-89306061D01*
X72371000Y-89509939D01*
X72410774Y-89709898D01*
X72488795Y-89898256D01*
X72602063Y-90067774D01*
X72746226Y-90211937D01*
X72915744Y-90325205D01*
X73104102Y-90403226D01*
X73304061Y-90443000D01*
X73507939Y-90443000D01*
X73707898Y-90403226D01*
X73896256Y-90325205D01*
X74065774Y-90211937D01*
X74209937Y-90067774D01*
X74323205Y-89898256D01*
X74401226Y-89709898D01*
X74441000Y-89509939D01*
X74441000Y-89306061D01*
X77705000Y-89306061D01*
X77705000Y-89509939D01*
X77744774Y-89709898D01*
X77822795Y-89898256D01*
X77936063Y-90067774D01*
X78080226Y-90211937D01*
X78249744Y-90325205D01*
X78438102Y-90403226D01*
X78638061Y-90443000D01*
X78841939Y-90443000D01*
X79041898Y-90403226D01*
X79230256Y-90325205D01*
X79339719Y-90252064D01*
X84093000Y-90252064D01*
X84093000Y-90849935D01*
X84114776Y-91071031D01*
X84200834Y-91354724D01*
X84340583Y-91616178D01*
X84528655Y-91845345D01*
X84757821Y-92033417D01*
X85019275Y-92173166D01*
X85302968Y-92259224D01*
X85598000Y-92288282D01*
X85893031Y-92259224D01*
X86176724Y-92173166D01*
X86438178Y-92033417D01*
X86667345Y-91845345D01*
X86855417Y-91616179D01*
X86870560Y-91587848D01*
X86963292Y-91728433D01*
X87171674Y-91939306D01*
X87417191Y-92105474D01*
X87690409Y-92220551D01*
X87777969Y-92237302D01*
X88011000Y-92116246D01*
X88011000Y-90678000D01*
X87991000Y-90678000D01*
X87991000Y-90424000D01*
X88011000Y-90424000D01*
X88011000Y-88985754D01*
X88265000Y-88985754D01*
X88265000Y-90424000D01*
X88285000Y-90424000D01*
X88285000Y-90678000D01*
X88265000Y-90678000D01*
X88265000Y-92116246D01*
X88498031Y-92237302D01*
X88585591Y-92220551D01*
X88858809Y-92105474D01*
X89104326Y-91939306D01*
X89312708Y-91728433D01*
X89405440Y-91587848D01*
X89420583Y-91616178D01*
X89608655Y-91845345D01*
X89837821Y-92033417D01*
X90099275Y-92173166D01*
X90382968Y-92259224D01*
X90678000Y-92288282D01*
X90973031Y-92259224D01*
X91256724Y-92173166D01*
X91518178Y-92033417D01*
X91747345Y-91845345D01*
X91801066Y-91779886D01*
X91859595Y-91889387D01*
X91970038Y-92023962D01*
X92104613Y-92134405D01*
X92258149Y-92216472D01*
X92424745Y-92267008D01*
X92597999Y-92284072D01*
X93838001Y-92284072D01*
X94011255Y-92267008D01*
X94177851Y-92216472D01*
X94331387Y-92134405D01*
X94465962Y-92023962D01*
X94576405Y-91889387D01*
X94658472Y-91735851D01*
X94709008Y-91569255D01*
X94726072Y-91396001D01*
X94726072Y-90125064D01*
X99841000Y-90125064D01*
X99841000Y-90722935D01*
X99862776Y-90944031D01*
X99948834Y-91227724D01*
X100088583Y-91489178D01*
X100276655Y-91718345D01*
X100505821Y-91906417D01*
X100767275Y-92046166D01*
X101050968Y-92132224D01*
X101346000Y-92161282D01*
X101641031Y-92132224D01*
X101924724Y-92046166D01*
X102186178Y-91906417D01*
X102413385Y-91719953D01*
X102426498Y-91763180D01*
X102485463Y-91873494D01*
X102564815Y-91970185D01*
X102661506Y-92049537D01*
X102771820Y-92108502D01*
X102891518Y-92144812D01*
X103016000Y-92157072D01*
X103600250Y-92154000D01*
X103759000Y-91995250D01*
X103759000Y-90551000D01*
X104013000Y-90551000D01*
X104013000Y-91995250D01*
X104171750Y-92154000D01*
X104756000Y-92157072D01*
X104880482Y-92144812D01*
X105000180Y-92108502D01*
X105110494Y-92049537D01*
X105207185Y-91970185D01*
X105286537Y-91873494D01*
X105345502Y-91763180D01*
X105381812Y-91643482D01*
X105394072Y-91519000D01*
X105391000Y-90709750D01*
X105232250Y-90551000D01*
X104013000Y-90551000D01*
X103759000Y-90551000D01*
X103739000Y-90551000D01*
X103739000Y-90297000D01*
X103759000Y-90297000D01*
X103759000Y-88852750D01*
X104013000Y-88852750D01*
X104013000Y-90297000D01*
X105232250Y-90297000D01*
X105391000Y-90138250D01*
X105394072Y-89329000D01*
X105391813Y-89306061D01*
X110725000Y-89306061D01*
X110725000Y-89509939D01*
X110764774Y-89709898D01*
X110842795Y-89898256D01*
X110956063Y-90067774D01*
X111100226Y-90211937D01*
X111269744Y-90325205D01*
X111458102Y-90403226D01*
X111658061Y-90443000D01*
X111861939Y-90443000D01*
X112061898Y-90403226D01*
X112250256Y-90325205D01*
X112419774Y-90211937D01*
X112563937Y-90067774D01*
X112677205Y-89898256D01*
X112755226Y-89709898D01*
X112795000Y-89509939D01*
X112795000Y-89306061D01*
X115805000Y-89306061D01*
X115805000Y-89509939D01*
X115844774Y-89709898D01*
X115922795Y-89898256D01*
X116036063Y-90067774D01*
X116180226Y-90211937D01*
X116349744Y-90325205D01*
X116538102Y-90403226D01*
X116738061Y-90443000D01*
X116941939Y-90443000D01*
X117141898Y-90403226D01*
X117330256Y-90325205D01*
X117499774Y-90211937D01*
X117643937Y-90067774D01*
X117757205Y-89898256D01*
X117835226Y-89709898D01*
X117875000Y-89509939D01*
X117875000Y-89306061D01*
X117835226Y-89106102D01*
X117757205Y-88917744D01*
X117643937Y-88748226D01*
X117499774Y-88604063D01*
X117330256Y-88490795D01*
X117141898Y-88412774D01*
X116941939Y-88373000D01*
X116738061Y-88373000D01*
X116538102Y-88412774D01*
X116349744Y-88490795D01*
X116180226Y-88604063D01*
X116036063Y-88748226D01*
X115922795Y-88917744D01*
X115844774Y-89106102D01*
X115805000Y-89306061D01*
X112795000Y-89306061D01*
X112755226Y-89106102D01*
X112677205Y-88917744D01*
X112563937Y-88748226D01*
X112419774Y-88604063D01*
X112250256Y-88490795D01*
X112061898Y-88412774D01*
X111861939Y-88373000D01*
X111658061Y-88373000D01*
X111458102Y-88412774D01*
X111269744Y-88490795D01*
X111100226Y-88604063D01*
X110956063Y-88748226D01*
X110842795Y-88917744D01*
X110764774Y-89106102D01*
X110725000Y-89306061D01*
X105391813Y-89306061D01*
X105381812Y-89204518D01*
X105345502Y-89084820D01*
X105286537Y-88974506D01*
X105207185Y-88877815D01*
X105110494Y-88798463D01*
X105000180Y-88739498D01*
X104880482Y-88703188D01*
X104756000Y-88690928D01*
X104171750Y-88694000D01*
X104013000Y-88852750D01*
X103759000Y-88852750D01*
X103600250Y-88694000D01*
X103016000Y-88690928D01*
X102891518Y-88703188D01*
X102771820Y-88739498D01*
X102661506Y-88798463D01*
X102564815Y-88877815D01*
X102485463Y-88974506D01*
X102426498Y-89084820D01*
X102413385Y-89128047D01*
X102186179Y-88941583D01*
X101924725Y-88801834D01*
X101641032Y-88715776D01*
X101346000Y-88686718D01*
X101050969Y-88715776D01*
X100767276Y-88801834D01*
X100505822Y-88941583D01*
X100276655Y-89129655D01*
X100088583Y-89358821D01*
X99948834Y-89620275D01*
X99862776Y-89903968D01*
X99841000Y-90125064D01*
X94726072Y-90125064D01*
X94726072Y-89705999D01*
X94709008Y-89532745D01*
X94658472Y-89366149D01*
X94576405Y-89212613D01*
X94465962Y-89078038D01*
X94331387Y-88967595D01*
X94177851Y-88885528D01*
X94011255Y-88834992D01*
X93838001Y-88817928D01*
X92597999Y-88817928D01*
X92424745Y-88834992D01*
X92258149Y-88885528D01*
X92104613Y-88967595D01*
X91970038Y-89078038D01*
X91859595Y-89212613D01*
X91801066Y-89322114D01*
X91747345Y-89256655D01*
X91518179Y-89068583D01*
X91256725Y-88928834D01*
X90973032Y-88842776D01*
X90678000Y-88813718D01*
X90382969Y-88842776D01*
X90099276Y-88928834D01*
X89837822Y-89068583D01*
X89608655Y-89256655D01*
X89420583Y-89485821D01*
X89405440Y-89514152D01*
X89312708Y-89373567D01*
X89104326Y-89162694D01*
X88858809Y-88996526D01*
X88585591Y-88881449D01*
X88498031Y-88864698D01*
X88265000Y-88985754D01*
X88011000Y-88985754D01*
X87777969Y-88864698D01*
X87690409Y-88881449D01*
X87417191Y-88996526D01*
X87171674Y-89162694D01*
X86963292Y-89373567D01*
X86870560Y-89514152D01*
X86855417Y-89485821D01*
X86667345Y-89256655D01*
X86438179Y-89068583D01*
X86176725Y-88928834D01*
X85893032Y-88842776D01*
X85598000Y-88813718D01*
X85302969Y-88842776D01*
X85019276Y-88928834D01*
X84757822Y-89068583D01*
X84528655Y-89256655D01*
X84340583Y-89485821D01*
X84200834Y-89747275D01*
X84114776Y-90030968D01*
X84093000Y-90252064D01*
X79339719Y-90252064D01*
X79399774Y-90211937D01*
X79543937Y-90067774D01*
X79657205Y-89898256D01*
X79735226Y-89709898D01*
X79775000Y-89509939D01*
X79775000Y-89306061D01*
X79735226Y-89106102D01*
X79657205Y-88917744D01*
X79543937Y-88748226D01*
X79399774Y-88604063D01*
X79230256Y-88490795D01*
X79041898Y-88412774D01*
X78841939Y-88373000D01*
X78638061Y-88373000D01*
X78438102Y-88412774D01*
X78249744Y-88490795D01*
X78080226Y-88604063D01*
X77936063Y-88748226D01*
X77822795Y-88917744D01*
X77744774Y-89106102D01*
X77705000Y-89306061D01*
X74441000Y-89306061D01*
X74401226Y-89106102D01*
X74323205Y-88917744D01*
X74209937Y-88748226D01*
X74065774Y-88604063D01*
X73896256Y-88490795D01*
X73707898Y-88412774D01*
X73507939Y-88373000D01*
X73304061Y-88373000D01*
X73104102Y-88412774D01*
X72915744Y-88490795D01*
X72746226Y-88604063D01*
X72602063Y-88748226D01*
X72488795Y-88917744D01*
X72410774Y-89106102D01*
X72371000Y-89306061D01*
X70660000Y-89306061D01*
X70660000Y-66666000D01*
X76108928Y-66666000D01*
X76108928Y-68366000D01*
X76121188Y-68490482D01*
X76157498Y-68610180D01*
X76216463Y-68720494D01*
X76295815Y-68817185D01*
X76392506Y-68896537D01*
X76502820Y-68955502D01*
X76575380Y-68977513D01*
X76443525Y-69109368D01*
X76281010Y-69352589D01*
X76169068Y-69622842D01*
X76112000Y-69909740D01*
X76112000Y-70202260D01*
X76169068Y-70489158D01*
X76281010Y-70759411D01*
X76443525Y-71002632D01*
X76650368Y-71209475D01*
X76824760Y-71326000D01*
X76650368Y-71442525D01*
X76443525Y-71649368D01*
X76281010Y-71892589D01*
X76169068Y-72162842D01*
X76112000Y-72449740D01*
X76112000Y-72742260D01*
X76169068Y-73029158D01*
X76281010Y-73299411D01*
X76443525Y-73542632D01*
X76650368Y-73749475D01*
X76824760Y-73866000D01*
X76650368Y-73982525D01*
X76443525Y-74189368D01*
X76281010Y-74432589D01*
X76169068Y-74702842D01*
X76112000Y-74989740D01*
X76112000Y-75282260D01*
X76169068Y-75569158D01*
X76281010Y-75839411D01*
X76443525Y-76082632D01*
X76650368Y-76289475D01*
X76824760Y-76406000D01*
X76650368Y-76522525D01*
X76443525Y-76729368D01*
X76281010Y-76972589D01*
X76169068Y-77242842D01*
X76112000Y-77529740D01*
X76112000Y-77822260D01*
X76169068Y-78109158D01*
X76281010Y-78379411D01*
X76443525Y-78622632D01*
X76650368Y-78829475D01*
X76824760Y-78946000D01*
X76650368Y-79062525D01*
X76443525Y-79269368D01*
X76281010Y-79512589D01*
X76169068Y-79782842D01*
X76112000Y-80069740D01*
X76112000Y-80362260D01*
X76169068Y-80649158D01*
X76281010Y-80919411D01*
X76443525Y-81162632D01*
X76650368Y-81369475D01*
X76824760Y-81486000D01*
X76650368Y-81602525D01*
X76443525Y-81809368D01*
X76281010Y-82052589D01*
X76169068Y-82322842D01*
X76112000Y-82609740D01*
X76112000Y-82902260D01*
X76169068Y-83189158D01*
X76281010Y-83459411D01*
X76443525Y-83702632D01*
X76650368Y-83909475D01*
X76824760Y-84026000D01*
X76650368Y-84142525D01*
X76443525Y-84349368D01*
X76281010Y-84592589D01*
X76169068Y-84862842D01*
X76112000Y-85149740D01*
X76112000Y-85442260D01*
X76169068Y-85729158D01*
X76281010Y-85999411D01*
X76443525Y-86242632D01*
X76650368Y-86449475D01*
X76893589Y-86611990D01*
X77163842Y-86723932D01*
X77450740Y-86781000D01*
X77743260Y-86781000D01*
X78030158Y-86723932D01*
X78300411Y-86611990D01*
X78543632Y-86449475D01*
X78735046Y-86258061D01*
X86595000Y-86258061D01*
X86595000Y-86461939D01*
X86634774Y-86661898D01*
X86712795Y-86850256D01*
X86826063Y-87019774D01*
X86970226Y-87163937D01*
X87139744Y-87277205D01*
X87328102Y-87355226D01*
X87528061Y-87395000D01*
X87731939Y-87395000D01*
X87931898Y-87355226D01*
X88120256Y-87277205D01*
X88289774Y-87163937D01*
X88433937Y-87019774D01*
X88547205Y-86850256D01*
X88625226Y-86661898D01*
X88665000Y-86461939D01*
X88665000Y-86258061D01*
X103105000Y-86258061D01*
X103105000Y-86461939D01*
X103144774Y-86661898D01*
X103222795Y-86850256D01*
X103336063Y-87019774D01*
X103480226Y-87163937D01*
X103649744Y-87277205D01*
X103838102Y-87355226D01*
X104038061Y-87395000D01*
X104241939Y-87395000D01*
X104441898Y-87355226D01*
X104630256Y-87277205D01*
X104799774Y-87163937D01*
X104943937Y-87019774D01*
X105057205Y-86850256D01*
X105135226Y-86661898D01*
X105175000Y-86461939D01*
X105175000Y-86258061D01*
X105135226Y-86058102D01*
X105057205Y-85869744D01*
X104943937Y-85700226D01*
X104799774Y-85556063D01*
X104630256Y-85442795D01*
X104441898Y-85364774D01*
X104241939Y-85325000D01*
X104038061Y-85325000D01*
X103838102Y-85364774D01*
X103649744Y-85442795D01*
X103480226Y-85556063D01*
X103336063Y-85700226D01*
X103222795Y-85869744D01*
X103144774Y-86058102D01*
X103105000Y-86258061D01*
X88665000Y-86258061D01*
X88625226Y-86058102D01*
X88547205Y-85869744D01*
X88433937Y-85700226D01*
X88289774Y-85556063D01*
X88120256Y-85442795D01*
X87931898Y-85364774D01*
X87731939Y-85325000D01*
X87528061Y-85325000D01*
X87328102Y-85364774D01*
X87139744Y-85442795D01*
X86970226Y-85556063D01*
X86826063Y-85700226D01*
X86712795Y-85869744D01*
X86634774Y-86058102D01*
X86595000Y-86258061D01*
X78735046Y-86258061D01*
X78750475Y-86242632D01*
X78912990Y-85999411D01*
X79024932Y-85729158D01*
X79082000Y-85442260D01*
X79082000Y-85149740D01*
X112180000Y-85149740D01*
X112180000Y-85442260D01*
X112237068Y-85729158D01*
X112349010Y-85999411D01*
X112511525Y-86242632D01*
X112718368Y-86449475D01*
X112961589Y-86611990D01*
X113231842Y-86723932D01*
X113518740Y-86781000D01*
X113811260Y-86781000D01*
X114098158Y-86723932D01*
X114368411Y-86611990D01*
X114611632Y-86449475D01*
X114818475Y-86242632D01*
X114980990Y-85999411D01*
X115092932Y-85729158D01*
X115150000Y-85442260D01*
X115150000Y-85149740D01*
X115092932Y-84862842D01*
X114980990Y-84592589D01*
X114818475Y-84349368D01*
X114611632Y-84142525D01*
X114429466Y-84020805D01*
X114546355Y-83951178D01*
X114762588Y-83756269D01*
X114936641Y-83522920D01*
X115061825Y-83260099D01*
X115106476Y-83112890D01*
X114985155Y-82883000D01*
X113792000Y-82883000D01*
X113792000Y-82903000D01*
X113538000Y-82903000D01*
X113538000Y-82883000D01*
X112344845Y-82883000D01*
X112223524Y-83112890D01*
X112268175Y-83260099D01*
X112393359Y-83522920D01*
X112567412Y-83756269D01*
X112783645Y-83951178D01*
X112900534Y-84020805D01*
X112718368Y-84142525D01*
X112511525Y-84349368D01*
X112349010Y-84592589D01*
X112237068Y-84862842D01*
X112180000Y-85149740D01*
X79082000Y-85149740D01*
X79024932Y-84862842D01*
X78912990Y-84592589D01*
X78750475Y-84349368D01*
X78543632Y-84142525D01*
X78369240Y-84026000D01*
X78543632Y-83909475D01*
X78750475Y-83702632D01*
X78912990Y-83459411D01*
X79024932Y-83189158D01*
X79082000Y-82902260D01*
X79082000Y-82609740D01*
X79024932Y-82322842D01*
X78912990Y-82052589D01*
X78750475Y-81809368D01*
X78543632Y-81602525D01*
X78369240Y-81486000D01*
X78543632Y-81369475D01*
X78750475Y-81162632D01*
X78912990Y-80919411D01*
X79024932Y-80649158D01*
X79082000Y-80362260D01*
X79082000Y-80069740D01*
X79024932Y-79782842D01*
X78912990Y-79512589D01*
X78750475Y-79269368D01*
X78543632Y-79062525D01*
X78369240Y-78946000D01*
X78543632Y-78829475D01*
X78750475Y-78622632D01*
X78912990Y-78379411D01*
X79024932Y-78109158D01*
X79082000Y-77822260D01*
X79082000Y-77529740D01*
X79024932Y-77242842D01*
X78912990Y-76972589D01*
X78750475Y-76729368D01*
X78543632Y-76522525D01*
X78369240Y-76406000D01*
X78543632Y-76289475D01*
X78750475Y-76082632D01*
X78912990Y-75839411D01*
X79024932Y-75569158D01*
X79082000Y-75282260D01*
X79082000Y-74989740D01*
X79024932Y-74702842D01*
X78912990Y-74432589D01*
X78750475Y-74189368D01*
X78543632Y-73982525D01*
X78369240Y-73866000D01*
X78543632Y-73749475D01*
X78750475Y-73542632D01*
X78912990Y-73299411D01*
X79024932Y-73029158D01*
X79082000Y-72742260D01*
X79082000Y-72449740D01*
X79024932Y-72162842D01*
X78912990Y-71892589D01*
X78750475Y-71649368D01*
X78543632Y-71442525D01*
X78369240Y-71326000D01*
X78543632Y-71209475D01*
X78750475Y-71002632D01*
X78912990Y-70759411D01*
X79024932Y-70489158D01*
X79082000Y-70202260D01*
X79082000Y-69909740D01*
X79024932Y-69622842D01*
X78912990Y-69352589D01*
X78750475Y-69109368D01*
X78618620Y-68977513D01*
X78691180Y-68955502D01*
X78801494Y-68896537D01*
X78898185Y-68817185D01*
X78977537Y-68720494D01*
X79036502Y-68610180D01*
X79072812Y-68490482D01*
X79085072Y-68366000D01*
X79085072Y-66666000D01*
X79072812Y-66541518D01*
X79036502Y-66421820D01*
X78977537Y-66311506D01*
X78898185Y-66214815D01*
X78801494Y-66135463D01*
X78691180Y-66076498D01*
X78571482Y-66040188D01*
X78447000Y-66027928D01*
X76747000Y-66027928D01*
X76622518Y-66040188D01*
X76502820Y-66076498D01*
X76392506Y-66135463D01*
X76295815Y-66214815D01*
X76216463Y-66311506D01*
X76157498Y-66421820D01*
X76121188Y-66541518D01*
X76108928Y-66666000D01*
X70660000Y-66666000D01*
X70660000Y-65992000D01*
X82559057Y-65992000D01*
X82586764Y-66273309D01*
X82668818Y-66543808D01*
X82802068Y-66793101D01*
X82981392Y-67011608D01*
X83199899Y-67190932D01*
X83332858Y-67262000D01*
X83199899Y-67333068D01*
X82981392Y-67512392D01*
X82802068Y-67730899D01*
X82668818Y-67980192D01*
X82586764Y-68250691D01*
X82559057Y-68532000D01*
X82586764Y-68813309D01*
X82668818Y-69083808D01*
X82802068Y-69333101D01*
X82981392Y-69551608D01*
X83199899Y-69730932D01*
X83332858Y-69802000D01*
X83199899Y-69873068D01*
X82981392Y-70052392D01*
X82802068Y-70270899D01*
X82668818Y-70520192D01*
X82586764Y-70790691D01*
X82559057Y-71072000D01*
X82586764Y-71353309D01*
X82668818Y-71623808D01*
X82802068Y-71873101D01*
X82981392Y-72091608D01*
X83199899Y-72270932D01*
X83332858Y-72342000D01*
X83199899Y-72413068D01*
X82981392Y-72592392D01*
X82802068Y-72810899D01*
X82668818Y-73060192D01*
X82586764Y-73330691D01*
X82559057Y-73612000D01*
X82586764Y-73893309D01*
X82668818Y-74163808D01*
X82802068Y-74413101D01*
X82981392Y-74631608D01*
X83199899Y-74810932D01*
X83332858Y-74882000D01*
X83199899Y-74953068D01*
X82981392Y-75132392D01*
X82802068Y-75350899D01*
X82668818Y-75600192D01*
X82586764Y-75870691D01*
X82559057Y-76152000D01*
X82586764Y-76433309D01*
X82668818Y-76703808D01*
X82802068Y-76953101D01*
X82981392Y-77171608D01*
X83199899Y-77350932D01*
X83332858Y-77422000D01*
X83199899Y-77493068D01*
X82981392Y-77672392D01*
X82802068Y-77890899D01*
X82668818Y-78140192D01*
X82586764Y-78410691D01*
X82559057Y-78692000D01*
X82586764Y-78973309D01*
X82668818Y-79243808D01*
X82802068Y-79493101D01*
X82981392Y-79711608D01*
X83199899Y-79890932D01*
X83332858Y-79962000D01*
X83199899Y-80033068D01*
X82981392Y-80212392D01*
X82802068Y-80430899D01*
X82668818Y-80680192D01*
X82586764Y-80950691D01*
X82559057Y-81232000D01*
X82586764Y-81513309D01*
X82668818Y-81783808D01*
X82802068Y-82033101D01*
X82981392Y-82251608D01*
X83199899Y-82430932D01*
X83449192Y-82564182D01*
X83719691Y-82646236D01*
X83930508Y-82667000D01*
X84471492Y-82667000D01*
X84682309Y-82646236D01*
X84952808Y-82564182D01*
X85202101Y-82430932D01*
X85420608Y-82251608D01*
X85599932Y-82033101D01*
X85733182Y-81783808D01*
X85815236Y-81513309D01*
X85842943Y-81232000D01*
X105419057Y-81232000D01*
X105446764Y-81513309D01*
X105528818Y-81783808D01*
X105662068Y-82033101D01*
X105841392Y-82251608D01*
X106059899Y-82430932D01*
X106309192Y-82564182D01*
X106579691Y-82646236D01*
X106790508Y-82667000D01*
X107331492Y-82667000D01*
X107542309Y-82646236D01*
X107812808Y-82564182D01*
X108062101Y-82430932D01*
X108280608Y-82251608D01*
X108459932Y-82033101D01*
X108593182Y-81783808D01*
X108675236Y-81513309D01*
X108702943Y-81232000D01*
X108675236Y-80950691D01*
X108593182Y-80680192D01*
X108459932Y-80430899D01*
X108280608Y-80212392D01*
X108062101Y-80033068D01*
X107932655Y-79963878D01*
X107950227Y-79956430D01*
X108183662Y-79797673D01*
X108381639Y-79596425D01*
X108536551Y-79360421D01*
X108642444Y-79098730D01*
X108652904Y-79041039D01*
X108530915Y-78819000D01*
X107188000Y-78819000D01*
X107188000Y-78839000D01*
X106934000Y-78839000D01*
X106934000Y-78819000D01*
X105591085Y-78819000D01*
X105469096Y-79041039D01*
X105479556Y-79098730D01*
X105585449Y-79360421D01*
X105740361Y-79596425D01*
X105938338Y-79797673D01*
X106171773Y-79956430D01*
X106189345Y-79963878D01*
X106059899Y-80033068D01*
X105841392Y-80212392D01*
X105662068Y-80430899D01*
X105528818Y-80680192D01*
X105446764Y-80950691D01*
X105419057Y-81232000D01*
X85842943Y-81232000D01*
X85815236Y-80950691D01*
X85733182Y-80680192D01*
X85599932Y-80430899D01*
X85420608Y-80212392D01*
X85202101Y-80033068D01*
X85069142Y-79962000D01*
X85202101Y-79890932D01*
X85420608Y-79711608D01*
X85599932Y-79493101D01*
X85675319Y-79352061D01*
X93961000Y-79352061D01*
X93961000Y-79555939D01*
X94000774Y-79755898D01*
X94078795Y-79944256D01*
X94192063Y-80113774D01*
X94336226Y-80257937D01*
X94505744Y-80371205D01*
X94694102Y-80449226D01*
X94894061Y-80489000D01*
X95097939Y-80489000D01*
X95297898Y-80449226D01*
X95486256Y-80371205D01*
X95655774Y-80257937D01*
X95699711Y-80214000D01*
X96832289Y-80214000D01*
X96876226Y-80257937D01*
X97045744Y-80371205D01*
X97234102Y-80449226D01*
X97434061Y-80489000D01*
X97637939Y-80489000D01*
X97837898Y-80449226D01*
X98026256Y-80371205D01*
X98195774Y-80257937D01*
X98339937Y-80113774D01*
X98453205Y-79944256D01*
X98531226Y-79755898D01*
X98571000Y-79555939D01*
X98571000Y-79352061D01*
X98531226Y-79152102D01*
X98453205Y-78963744D01*
X98339937Y-78794226D01*
X98195774Y-78650063D01*
X98026256Y-78536795D01*
X97837898Y-78458774D01*
X97637939Y-78419000D01*
X97434061Y-78419000D01*
X97234102Y-78458774D01*
X97045744Y-78536795D01*
X96876226Y-78650063D01*
X96832289Y-78694000D01*
X95699711Y-78694000D01*
X95655774Y-78650063D01*
X95486256Y-78536795D01*
X95297898Y-78458774D01*
X95097939Y-78419000D01*
X94894061Y-78419000D01*
X94694102Y-78458774D01*
X94505744Y-78536795D01*
X94336226Y-78650063D01*
X94192063Y-78794226D01*
X94078795Y-78963744D01*
X94000774Y-79152102D01*
X93961000Y-79352061D01*
X85675319Y-79352061D01*
X85733182Y-79243808D01*
X85815236Y-78973309D01*
X85842943Y-78692000D01*
X85815236Y-78410691D01*
X85733182Y-78140192D01*
X85599932Y-77890899D01*
X85420608Y-77672392D01*
X85202101Y-77493068D01*
X85069142Y-77422000D01*
X85202101Y-77350932D01*
X85420608Y-77171608D01*
X85599932Y-76953101D01*
X85733182Y-76703808D01*
X85815236Y-76433309D01*
X85842943Y-76152000D01*
X85815236Y-75870691D01*
X85792598Y-75796061D01*
X94469000Y-75796061D01*
X94469000Y-75999939D01*
X94508774Y-76199898D01*
X94586795Y-76388256D01*
X94700063Y-76557774D01*
X94844226Y-76701937D01*
X95013744Y-76815205D01*
X95202102Y-76893226D01*
X95402061Y-76933000D01*
X95605939Y-76933000D01*
X95805898Y-76893226D01*
X95994256Y-76815205D01*
X96163774Y-76701937D01*
X96207711Y-76658000D01*
X102214289Y-76658000D01*
X102258226Y-76701937D01*
X102427744Y-76815205D01*
X102616102Y-76893226D01*
X102816061Y-76933000D01*
X103019939Y-76933000D01*
X103219898Y-76893226D01*
X103408256Y-76815205D01*
X103577774Y-76701937D01*
X103721937Y-76557774D01*
X103835205Y-76388256D01*
X103913226Y-76199898D01*
X103953000Y-75999939D01*
X103953000Y-75796061D01*
X103913226Y-75596102D01*
X103835205Y-75407744D01*
X103721937Y-75238226D01*
X103577774Y-75094063D01*
X103408256Y-74980795D01*
X103219898Y-74902774D01*
X103019939Y-74863000D01*
X102816061Y-74863000D01*
X102616102Y-74902774D01*
X102427744Y-74980795D01*
X102258226Y-75094063D01*
X102214289Y-75138000D01*
X98817708Y-75138000D01*
X98825000Y-75101339D01*
X98825000Y-75039201D01*
X100949005Y-72915197D01*
X101139898Y-72877226D01*
X101328256Y-72799205D01*
X101497774Y-72685937D01*
X101641937Y-72541774D01*
X101755205Y-72372256D01*
X101833226Y-72183898D01*
X101873000Y-71983939D01*
X101873000Y-71780061D01*
X101833226Y-71580102D01*
X101755205Y-71391744D01*
X101641937Y-71222226D01*
X101497774Y-71078063D01*
X101328256Y-70964795D01*
X101139898Y-70886774D01*
X100939939Y-70847000D01*
X100736061Y-70847000D01*
X100536102Y-70886774D01*
X100347744Y-70964795D01*
X100178226Y-71078063D01*
X100034063Y-71222226D01*
X99920795Y-71391744D01*
X99842774Y-71580102D01*
X99803000Y-71780061D01*
X99803000Y-71911598D01*
X97750199Y-73964400D01*
X97688061Y-73964400D01*
X97488102Y-74004174D01*
X97299744Y-74082195D01*
X97130226Y-74195463D01*
X96986063Y-74339626D01*
X96872795Y-74509144D01*
X96794774Y-74697502D01*
X96755000Y-74897461D01*
X96755000Y-75101339D01*
X96762292Y-75138000D01*
X96207711Y-75138000D01*
X96163774Y-75094063D01*
X95994256Y-74980795D01*
X95805898Y-74902774D01*
X95605939Y-74863000D01*
X95402061Y-74863000D01*
X95202102Y-74902774D01*
X95013744Y-74980795D01*
X94844226Y-75094063D01*
X94700063Y-75238226D01*
X94586795Y-75407744D01*
X94508774Y-75596102D01*
X94469000Y-75796061D01*
X85792598Y-75796061D01*
X85733182Y-75600192D01*
X85599932Y-75350899D01*
X85420608Y-75132392D01*
X85202101Y-74953068D01*
X85069142Y-74882000D01*
X85202101Y-74810932D01*
X85420608Y-74631608D01*
X85599932Y-74413101D01*
X85733182Y-74163808D01*
X85815236Y-73893309D01*
X85842943Y-73612000D01*
X85815236Y-73330691D01*
X85733182Y-73060192D01*
X85599932Y-72810899D01*
X85420608Y-72592392D01*
X85202101Y-72413068D01*
X85069142Y-72342000D01*
X85202101Y-72270932D01*
X85420608Y-72091608D01*
X85599932Y-71873101D01*
X85733182Y-71623808D01*
X85815236Y-71353309D01*
X85842943Y-71072000D01*
X85815236Y-70790691D01*
X85733182Y-70520192D01*
X85599932Y-70270899D01*
X85420608Y-70052392D01*
X85202101Y-69873068D01*
X85069142Y-69802000D01*
X85202101Y-69730932D01*
X85420608Y-69551608D01*
X85599932Y-69333101D01*
X85733182Y-69083808D01*
X85815236Y-68813309D01*
X85842943Y-68532000D01*
X85816514Y-68263665D01*
X92545000Y-68263665D01*
X92545000Y-68546335D01*
X92600147Y-68823574D01*
X92708320Y-69084727D01*
X92865363Y-69319759D01*
X93065241Y-69519637D01*
X93300273Y-69676680D01*
X93561426Y-69784853D01*
X93838665Y-69840000D01*
X94121335Y-69840000D01*
X94398574Y-69784853D01*
X94659727Y-69676680D01*
X94894759Y-69519637D01*
X95016694Y-69397702D01*
X98166903Y-69397702D01*
X98238486Y-69641671D01*
X98493996Y-69762571D01*
X98768184Y-69831300D01*
X99050512Y-69845217D01*
X99330130Y-69803787D01*
X99596292Y-69708603D01*
X99721514Y-69641671D01*
X99793097Y-69397702D01*
X98980000Y-68584605D01*
X98166903Y-69397702D01*
X95016694Y-69397702D01*
X95094637Y-69319759D01*
X95251680Y-69084727D01*
X95359853Y-68823574D01*
X95415000Y-68546335D01*
X95415000Y-68475512D01*
X97539783Y-68475512D01*
X97581213Y-68755130D01*
X97676397Y-69021292D01*
X97743329Y-69146514D01*
X97987298Y-69218097D01*
X98800395Y-68405000D01*
X99159605Y-68405000D01*
X99972702Y-69218097D01*
X100216671Y-69146514D01*
X100337571Y-68891004D01*
X100406300Y-68616816D01*
X100420217Y-68334488D01*
X100378787Y-68054870D01*
X100283603Y-67788708D01*
X100216671Y-67663486D01*
X99972702Y-67591903D01*
X99159605Y-68405000D01*
X98800395Y-68405000D01*
X97987298Y-67591903D01*
X97743329Y-67663486D01*
X97622429Y-67918996D01*
X97553700Y-68193184D01*
X97539783Y-68475512D01*
X95415000Y-68475512D01*
X95415000Y-68263665D01*
X95359853Y-67986426D01*
X95251680Y-67725273D01*
X95094637Y-67490241D01*
X95016694Y-67412298D01*
X98166903Y-67412298D01*
X98980000Y-68225395D01*
X99793097Y-67412298D01*
X99721514Y-67168329D01*
X99466004Y-67047429D01*
X99191816Y-66978700D01*
X98909488Y-66964783D01*
X98629870Y-67006213D01*
X98363708Y-67101397D01*
X98238486Y-67168329D01*
X98166903Y-67412298D01*
X95016694Y-67412298D01*
X94894759Y-67290363D01*
X94659727Y-67133320D01*
X94398574Y-67025147D01*
X94121335Y-66970000D01*
X93838665Y-66970000D01*
X93561426Y-67025147D01*
X93300273Y-67133320D01*
X93065241Y-67290363D01*
X92865363Y-67490241D01*
X92708320Y-67725273D01*
X92600147Y-67986426D01*
X92545000Y-68263665D01*
X85816514Y-68263665D01*
X85815236Y-68250691D01*
X85733182Y-67980192D01*
X85599932Y-67730899D01*
X85420608Y-67512392D01*
X85202101Y-67333068D01*
X85069142Y-67262000D01*
X85202101Y-67190932D01*
X85420608Y-67011608D01*
X85599932Y-66793101D01*
X85733182Y-66543808D01*
X85815236Y-66273309D01*
X85842943Y-65992000D01*
X85815236Y-65710691D01*
X85733182Y-65440192D01*
X85599932Y-65190899D01*
X85467524Y-65029559D01*
X85555494Y-64982537D01*
X85652185Y-64903185D01*
X85731537Y-64806494D01*
X85790502Y-64696180D01*
X85826812Y-64576482D01*
X85839072Y-64452000D01*
X85839072Y-63398061D01*
X86595000Y-63398061D01*
X86595000Y-63601939D01*
X86634774Y-63801898D01*
X86712795Y-63990256D01*
X86826063Y-64159774D01*
X86970226Y-64303937D01*
X87139744Y-64417205D01*
X87328102Y-64495226D01*
X87528061Y-64535000D01*
X87731939Y-64535000D01*
X87931898Y-64495226D01*
X88120256Y-64417205D01*
X88289774Y-64303937D01*
X88433937Y-64159774D01*
X88547205Y-63990256D01*
X88625226Y-63801898D01*
X88665000Y-63601939D01*
X88665000Y-63398061D01*
X103105000Y-63398061D01*
X103105000Y-63601939D01*
X103144774Y-63801898D01*
X103222795Y-63990256D01*
X103336063Y-64159774D01*
X103480226Y-64303937D01*
X103649744Y-64417205D01*
X103838102Y-64495226D01*
X104038061Y-64535000D01*
X104241939Y-64535000D01*
X104441898Y-64495226D01*
X104630256Y-64417205D01*
X104799774Y-64303937D01*
X104943937Y-64159774D01*
X105057205Y-63990256D01*
X105135226Y-63801898D01*
X105175000Y-63601939D01*
X105175000Y-63398061D01*
X105135226Y-63198102D01*
X105057205Y-63009744D01*
X104943937Y-62840226D01*
X104799774Y-62696063D01*
X104630256Y-62582795D01*
X104441898Y-62504774D01*
X104241939Y-62465000D01*
X104038061Y-62465000D01*
X103838102Y-62504774D01*
X103649744Y-62582795D01*
X103480226Y-62696063D01*
X103336063Y-62840226D01*
X103222795Y-63009744D01*
X103144774Y-63198102D01*
X103105000Y-63398061D01*
X88665000Y-63398061D01*
X88625226Y-63198102D01*
X88547205Y-63009744D01*
X88433937Y-62840226D01*
X88289774Y-62696063D01*
X88120256Y-62582795D01*
X87931898Y-62504774D01*
X87731939Y-62465000D01*
X87528061Y-62465000D01*
X87328102Y-62504774D01*
X87139744Y-62582795D01*
X86970226Y-62696063D01*
X86826063Y-62840226D01*
X86712795Y-63009744D01*
X86634774Y-63198102D01*
X86595000Y-63398061D01*
X85839072Y-63398061D01*
X85839072Y-62452000D01*
X85826812Y-62327518D01*
X85790502Y-62207820D01*
X85731537Y-62097506D01*
X85696653Y-62055000D01*
X106522871Y-62055000D01*
X106309192Y-62119818D01*
X106059899Y-62253068D01*
X105841392Y-62432392D01*
X105662068Y-62650899D01*
X105528818Y-62900192D01*
X105446764Y-63170691D01*
X105419057Y-63452000D01*
X105446764Y-63733309D01*
X105528818Y-64003808D01*
X105662068Y-64253101D01*
X105841392Y-64471608D01*
X106059899Y-64650932D01*
X106192858Y-64722000D01*
X106059899Y-64793068D01*
X105841392Y-64972392D01*
X105662068Y-65190899D01*
X105528818Y-65440192D01*
X105446764Y-65710691D01*
X105419057Y-65992000D01*
X105446764Y-66273309D01*
X105528818Y-66543808D01*
X105662068Y-66793101D01*
X105841392Y-67011608D01*
X106059899Y-67190932D01*
X106192858Y-67262000D01*
X106059899Y-67333068D01*
X105841392Y-67512392D01*
X105662068Y-67730899D01*
X105528818Y-67980192D01*
X105446764Y-68250691D01*
X105419057Y-68532000D01*
X105446764Y-68813309D01*
X105528818Y-69083808D01*
X105662068Y-69333101D01*
X105841392Y-69551608D01*
X106059899Y-69730932D01*
X106192858Y-69802000D01*
X106059899Y-69873068D01*
X105841392Y-70052392D01*
X105662068Y-70270899D01*
X105528818Y-70520192D01*
X105446764Y-70790691D01*
X105419057Y-71072000D01*
X105446764Y-71353309D01*
X105528818Y-71623808D01*
X105662068Y-71873101D01*
X105841392Y-72091608D01*
X106059899Y-72270932D01*
X106192858Y-72342000D01*
X106059899Y-72413068D01*
X105841392Y-72592392D01*
X105662068Y-72810899D01*
X105528818Y-73060192D01*
X105446764Y-73330691D01*
X105419057Y-73612000D01*
X105446764Y-73893309D01*
X105528818Y-74163808D01*
X105662068Y-74413101D01*
X105841392Y-74631608D01*
X106059899Y-74810932D01*
X106192858Y-74882000D01*
X106059899Y-74953068D01*
X105841392Y-75132392D01*
X105662068Y-75350899D01*
X105528818Y-75600192D01*
X105446764Y-75870691D01*
X105419057Y-76152000D01*
X105446764Y-76433309D01*
X105528818Y-76703808D01*
X105662068Y-76953101D01*
X105841392Y-77171608D01*
X106059899Y-77350932D01*
X106189345Y-77420122D01*
X106171773Y-77427570D01*
X105938338Y-77586327D01*
X105740361Y-77787575D01*
X105585449Y-78023579D01*
X105479556Y-78285270D01*
X105469096Y-78342961D01*
X105591085Y-78565000D01*
X106934000Y-78565000D01*
X106934000Y-78545000D01*
X107188000Y-78545000D01*
X107188000Y-78565000D01*
X108530915Y-78565000D01*
X108652904Y-78342961D01*
X108642444Y-78285270D01*
X108536551Y-78023579D01*
X108381639Y-77787575D01*
X108183662Y-77586327D01*
X107950227Y-77427570D01*
X107932655Y-77420122D01*
X108062101Y-77350932D01*
X108280608Y-77171608D01*
X108459932Y-76953101D01*
X108593182Y-76703808D01*
X108675236Y-76433309D01*
X108702943Y-76152000D01*
X108675236Y-75870691D01*
X108593182Y-75600192D01*
X108459932Y-75350899D01*
X108280608Y-75132392D01*
X108062101Y-74953068D01*
X107929142Y-74882000D01*
X108062101Y-74810932D01*
X108280608Y-74631608D01*
X108459932Y-74413101D01*
X108593182Y-74163808D01*
X108675236Y-73893309D01*
X108702943Y-73612000D01*
X108675236Y-73330691D01*
X108593182Y-73060192D01*
X108459932Y-72810899D01*
X108280608Y-72592392D01*
X108062101Y-72413068D01*
X107929142Y-72342000D01*
X108062101Y-72270932D01*
X108280608Y-72091608D01*
X108459932Y-71873101D01*
X108593182Y-71623808D01*
X108675236Y-71353309D01*
X108702943Y-71072000D01*
X108675236Y-70790691D01*
X108593182Y-70520192D01*
X108459932Y-70270899D01*
X108280608Y-70052392D01*
X108062101Y-69873068D01*
X107929142Y-69802000D01*
X108062101Y-69730932D01*
X108280608Y-69551608D01*
X108459932Y-69333101D01*
X108593182Y-69083808D01*
X108675236Y-68813309D01*
X108702943Y-68532000D01*
X108675236Y-68250691D01*
X108593182Y-67980192D01*
X108459932Y-67730899D01*
X108280608Y-67512392D01*
X108062101Y-67333068D01*
X107929142Y-67262000D01*
X108062101Y-67190932D01*
X108280608Y-67011608D01*
X108459932Y-66793101D01*
X108527868Y-66666000D01*
X112176928Y-66666000D01*
X112176928Y-68366000D01*
X112189188Y-68490482D01*
X112225498Y-68610180D01*
X112284463Y-68720494D01*
X112363815Y-68817185D01*
X112460506Y-68896537D01*
X112570820Y-68955502D01*
X112643380Y-68977513D01*
X112511525Y-69109368D01*
X112349010Y-69352589D01*
X112237068Y-69622842D01*
X112180000Y-69909740D01*
X112180000Y-70202260D01*
X112237068Y-70489158D01*
X112349010Y-70759411D01*
X112511525Y-71002632D01*
X112718368Y-71209475D01*
X112892760Y-71326000D01*
X112718368Y-71442525D01*
X112511525Y-71649368D01*
X112349010Y-71892589D01*
X112237068Y-72162842D01*
X112180000Y-72449740D01*
X112180000Y-72742260D01*
X112237068Y-73029158D01*
X112349010Y-73299411D01*
X112511525Y-73542632D01*
X112718368Y-73749475D01*
X112892760Y-73866000D01*
X112718368Y-73982525D01*
X112511525Y-74189368D01*
X112349010Y-74432589D01*
X112237068Y-74702842D01*
X112180000Y-74989740D01*
X112180000Y-75282260D01*
X112237068Y-75569158D01*
X112349010Y-75839411D01*
X112511525Y-76082632D01*
X112718368Y-76289475D01*
X112892760Y-76406000D01*
X112718368Y-76522525D01*
X112511525Y-76729368D01*
X112349010Y-76972589D01*
X112237068Y-77242842D01*
X112180000Y-77529740D01*
X112180000Y-77822260D01*
X112237068Y-78109158D01*
X112349010Y-78379411D01*
X112511525Y-78622632D01*
X112718368Y-78829475D01*
X112892760Y-78946000D01*
X112718368Y-79062525D01*
X112511525Y-79269368D01*
X112349010Y-79512589D01*
X112237068Y-79782842D01*
X112180000Y-80069740D01*
X112180000Y-80362260D01*
X112237068Y-80649158D01*
X112349010Y-80919411D01*
X112511525Y-81162632D01*
X112718368Y-81369475D01*
X112900534Y-81491195D01*
X112783645Y-81560822D01*
X112567412Y-81755731D01*
X112393359Y-81989080D01*
X112268175Y-82251901D01*
X112223524Y-82399110D01*
X112344845Y-82629000D01*
X113538000Y-82629000D01*
X113538000Y-82609000D01*
X113792000Y-82609000D01*
X113792000Y-82629000D01*
X114985155Y-82629000D01*
X115106476Y-82399110D01*
X115061825Y-82251901D01*
X114936641Y-81989080D01*
X114762588Y-81755731D01*
X114546355Y-81560822D01*
X114429466Y-81491195D01*
X114611632Y-81369475D01*
X114818475Y-81162632D01*
X114980990Y-80919411D01*
X115092932Y-80649158D01*
X115150000Y-80362260D01*
X115150000Y-80069740D01*
X115092932Y-79782842D01*
X114980990Y-79512589D01*
X114818475Y-79269368D01*
X114611632Y-79062525D01*
X114437240Y-78946000D01*
X114611632Y-78829475D01*
X114818475Y-78622632D01*
X114980990Y-78379411D01*
X115092932Y-78109158D01*
X115150000Y-77822260D01*
X115150000Y-77529740D01*
X115092932Y-77242842D01*
X114980990Y-76972589D01*
X114818475Y-76729368D01*
X114611632Y-76522525D01*
X114437240Y-76406000D01*
X114611632Y-76289475D01*
X114818475Y-76082632D01*
X114980990Y-75839411D01*
X115092932Y-75569158D01*
X115150000Y-75282260D01*
X115150000Y-74989740D01*
X115092932Y-74702842D01*
X114980990Y-74432589D01*
X114818475Y-74189368D01*
X114611632Y-73982525D01*
X114437240Y-73866000D01*
X114611632Y-73749475D01*
X114818475Y-73542632D01*
X114980990Y-73299411D01*
X115092932Y-73029158D01*
X115150000Y-72742260D01*
X115150000Y-72449740D01*
X115092932Y-72162842D01*
X114980990Y-71892589D01*
X114818475Y-71649368D01*
X114611632Y-71442525D01*
X114437240Y-71326000D01*
X114611632Y-71209475D01*
X114818475Y-71002632D01*
X114980990Y-70759411D01*
X115092932Y-70489158D01*
X115150000Y-70202260D01*
X115150000Y-69909740D01*
X115092932Y-69622842D01*
X114980990Y-69352589D01*
X114818475Y-69109368D01*
X114686620Y-68977513D01*
X114759180Y-68955502D01*
X114869494Y-68896537D01*
X114966185Y-68817185D01*
X115045537Y-68720494D01*
X115104502Y-68610180D01*
X115140812Y-68490482D01*
X115153072Y-68366000D01*
X115153072Y-66666000D01*
X115140812Y-66541518D01*
X115104502Y-66421820D01*
X115045537Y-66311506D01*
X114966185Y-66214815D01*
X114869494Y-66135463D01*
X114759180Y-66076498D01*
X114639482Y-66040188D01*
X114515000Y-66027928D01*
X112815000Y-66027928D01*
X112690518Y-66040188D01*
X112570820Y-66076498D01*
X112460506Y-66135463D01*
X112363815Y-66214815D01*
X112284463Y-66311506D01*
X112225498Y-66421820D01*
X112189188Y-66541518D01*
X112176928Y-66666000D01*
X108527868Y-66666000D01*
X108593182Y-66543808D01*
X108675236Y-66273309D01*
X108702943Y-65992000D01*
X108675236Y-65710691D01*
X108593182Y-65440192D01*
X108459932Y-65190899D01*
X108280608Y-64972392D01*
X108062101Y-64793068D01*
X107929142Y-64722000D01*
X108062101Y-64650932D01*
X108280608Y-64471608D01*
X108459932Y-64253101D01*
X108593182Y-64003808D01*
X108675236Y-63733309D01*
X108702943Y-63452000D01*
X108675236Y-63170691D01*
X108593182Y-62900192D01*
X108459932Y-62650899D01*
X108447755Y-62636061D01*
X110979000Y-62636061D01*
X110979000Y-62839939D01*
X111018774Y-63039898D01*
X111096795Y-63228256D01*
X111210063Y-63397774D01*
X111354226Y-63541937D01*
X111523744Y-63655205D01*
X111712102Y-63733226D01*
X111912061Y-63773000D01*
X112115939Y-63773000D01*
X112315898Y-63733226D01*
X112504256Y-63655205D01*
X112673774Y-63541937D01*
X112817937Y-63397774D01*
X112931205Y-63228256D01*
X113009226Y-63039898D01*
X113049000Y-62839939D01*
X113049000Y-62636061D01*
X115805000Y-62636061D01*
X115805000Y-62839939D01*
X115844774Y-63039898D01*
X115922795Y-63228256D01*
X116036063Y-63397774D01*
X116180226Y-63541937D01*
X116349744Y-63655205D01*
X116538102Y-63733226D01*
X116738061Y-63773000D01*
X116941939Y-63773000D01*
X117141898Y-63733226D01*
X117330256Y-63655205D01*
X117499774Y-63541937D01*
X117643937Y-63397774D01*
X117757205Y-63228256D01*
X117835226Y-63039898D01*
X117875000Y-62839939D01*
X117875000Y-62636061D01*
X117835226Y-62436102D01*
X117757205Y-62247744D01*
X117643937Y-62078226D01*
X117499774Y-61934063D01*
X117330256Y-61820795D01*
X117141898Y-61742774D01*
X116941939Y-61703000D01*
X116738061Y-61703000D01*
X116538102Y-61742774D01*
X116349744Y-61820795D01*
X116180226Y-61934063D01*
X116036063Y-62078226D01*
X115922795Y-62247744D01*
X115844774Y-62436102D01*
X115805000Y-62636061D01*
X113049000Y-62636061D01*
X113009226Y-62436102D01*
X112931205Y-62247744D01*
X112817937Y-62078226D01*
X112673774Y-61934063D01*
X112504256Y-61820795D01*
X112315898Y-61742774D01*
X112115939Y-61703000D01*
X111912061Y-61703000D01*
X111712102Y-61742774D01*
X111523744Y-61820795D01*
X111354226Y-61934063D01*
X111210063Y-62078226D01*
X111096795Y-62247744D01*
X111018774Y-62436102D01*
X110979000Y-62636061D01*
X108447755Y-62636061D01*
X108280608Y-62432392D01*
X108062101Y-62253068D01*
X107812808Y-62119818D01*
X107599129Y-62055000D01*
X108458000Y-62055000D01*
X108482776Y-62052560D01*
X108506601Y-62045333D01*
X108528557Y-62033597D01*
X108547803Y-62017803D01*
X108563597Y-61998557D01*
X108575333Y-61976601D01*
X108582560Y-61952776D01*
X108585000Y-61928000D01*
X108585000Y-57641984D01*
X111365000Y-57641984D01*
X111365000Y-58358016D01*
X111504691Y-59060290D01*
X111778705Y-59721818D01*
X112176511Y-60317177D01*
X112682823Y-60823489D01*
X113278182Y-61221295D01*
X113939710Y-61495309D01*
X114641984Y-61635000D01*
X115358016Y-61635000D01*
X116060290Y-61495309D01*
X116721818Y-61221295D01*
X117317177Y-60823489D01*
X117823489Y-60317177D01*
X118221295Y-59721818D01*
X118495309Y-59060290D01*
X118635000Y-58358016D01*
X118635000Y-57641984D01*
X118495309Y-56939710D01*
X118221295Y-56278182D01*
X117823489Y-55682823D01*
X117317177Y-55176511D01*
X116721818Y-54778705D01*
X116060290Y-54504691D01*
X115358016Y-54365000D01*
X114641984Y-54365000D01*
X113939710Y-54504691D01*
X113278182Y-54778705D01*
X112682823Y-55176511D01*
X112176511Y-55682823D01*
X111778705Y-56278182D01*
X111504691Y-56939710D01*
X111365000Y-57641984D01*
X108585000Y-57641984D01*
X108585000Y-55070000D01*
X108582560Y-55045224D01*
X108575333Y-55021399D01*
X108563597Y-54999443D01*
X108547803Y-54980197D01*
X108528557Y-54964403D01*
X108506601Y-54952667D01*
X108482776Y-54945440D01*
X108458000Y-54943000D01*
X82804000Y-54943000D01*
X82779224Y-54945440D01*
X82755399Y-54952667D01*
X82733443Y-54964403D01*
X82714197Y-54980197D01*
X82698403Y-54999443D01*
X82686667Y-55021399D01*
X82679440Y-55045224D01*
X82677000Y-55070000D01*
X82677000Y-61928000D01*
X82679440Y-61952776D01*
X82686667Y-61976601D01*
X82698403Y-61998557D01*
X82714197Y-62017803D01*
X82727150Y-62028433D01*
X82670463Y-62097506D01*
X82611498Y-62207820D01*
X82575188Y-62327518D01*
X82562928Y-62452000D01*
X82562928Y-64452000D01*
X82575188Y-64576482D01*
X82611498Y-64696180D01*
X82670463Y-64806494D01*
X82749815Y-64903185D01*
X82846506Y-64982537D01*
X82934476Y-65029559D01*
X82802068Y-65190899D01*
X82668818Y-65440192D01*
X82586764Y-65710691D01*
X82559057Y-65992000D01*
X70660000Y-65992000D01*
X70660000Y-62636061D01*
X72625000Y-62636061D01*
X72625000Y-62839939D01*
X72664774Y-63039898D01*
X72742795Y-63228256D01*
X72856063Y-63397774D01*
X73000226Y-63541937D01*
X73169744Y-63655205D01*
X73358102Y-63733226D01*
X73558061Y-63773000D01*
X73761939Y-63773000D01*
X73961898Y-63733226D01*
X74150256Y-63655205D01*
X74319774Y-63541937D01*
X74463937Y-63397774D01*
X74577205Y-63228256D01*
X74655226Y-63039898D01*
X74695000Y-62839939D01*
X74695000Y-62636061D01*
X77705000Y-62636061D01*
X77705000Y-62839939D01*
X77744774Y-63039898D01*
X77822795Y-63228256D01*
X77936063Y-63397774D01*
X78080226Y-63541937D01*
X78249744Y-63655205D01*
X78438102Y-63733226D01*
X78638061Y-63773000D01*
X78841939Y-63773000D01*
X79041898Y-63733226D01*
X79230256Y-63655205D01*
X79399774Y-63541937D01*
X79543937Y-63397774D01*
X79657205Y-63228256D01*
X79735226Y-63039898D01*
X79775000Y-62839939D01*
X79775000Y-62636061D01*
X79735226Y-62436102D01*
X79657205Y-62247744D01*
X79543937Y-62078226D01*
X79399774Y-61934063D01*
X79230256Y-61820795D01*
X79041898Y-61742774D01*
X78841939Y-61703000D01*
X78638061Y-61703000D01*
X78438102Y-61742774D01*
X78249744Y-61820795D01*
X78080226Y-61934063D01*
X77936063Y-62078226D01*
X77822795Y-62247744D01*
X77744774Y-62436102D01*
X77705000Y-62636061D01*
X74695000Y-62636061D01*
X74655226Y-62436102D01*
X74577205Y-62247744D01*
X74463937Y-62078226D01*
X74319774Y-61934063D01*
X74150256Y-61820795D01*
X73961898Y-61742774D01*
X73761939Y-61703000D01*
X73558061Y-61703000D01*
X73358102Y-61742774D01*
X73169744Y-61820795D01*
X73000226Y-61934063D01*
X72856063Y-62078226D01*
X72742795Y-62247744D01*
X72664774Y-62436102D01*
X72625000Y-62636061D01*
X70660000Y-62636061D01*
X70660000Y-57641984D01*
X71365000Y-57641984D01*
X71365000Y-58358016D01*
X71504691Y-59060290D01*
X71778705Y-59721818D01*
X72176511Y-60317177D01*
X72682823Y-60823489D01*
X73278182Y-61221295D01*
X73939710Y-61495309D01*
X74641984Y-61635000D01*
X75358016Y-61635000D01*
X76060290Y-61495309D01*
X76721818Y-61221295D01*
X77317177Y-60823489D01*
X77823489Y-60317177D01*
X78221295Y-59721818D01*
X78495309Y-59060290D01*
X78635000Y-58358016D01*
X78635000Y-57641984D01*
X78495309Y-56939710D01*
X78221295Y-56278182D01*
X77823489Y-55682823D01*
X77317177Y-55176511D01*
X76721818Y-54778705D01*
X76060290Y-54504691D01*
X75358016Y-54365000D01*
X74641984Y-54365000D01*
X73939710Y-54504691D01*
X73278182Y-54778705D01*
X72682823Y-55176511D01*
X72176511Y-55682823D01*
X71778705Y-56278182D01*
X71504691Y-56939710D01*
X71365000Y-57641984D01*
X70660000Y-57641984D01*
X70660000Y-55032279D01*
X70688625Y-54740341D01*
X70764035Y-54490571D01*
X70886522Y-54260208D01*
X71051422Y-54058020D01*
X71252450Y-53891714D01*
X71481954Y-53767622D01*
X71731195Y-53690469D01*
X72021088Y-53660000D01*
X117967721Y-53660000D01*
X118259659Y-53688625D01*
M02*
