G04 #@! TF.GenerationSoftware,KiCad,Pcbnew,(5.1.6)-1*
G04 #@! TF.CreationDate,2020-07-05T17:14:59-07:00*
G04 #@! TF.ProjectId,LED controller board - Wemos,4c454420-636f-46e7-9472-6f6c6c657220,rev?*
G04 #@! TF.SameCoordinates,Original*
G04 #@! TF.FileFunction,Copper,L1,Top*
G04 #@! TF.FilePolarity,Positive*
%FSLAX46Y46*%
G04 Gerber Fmt 4.6, Leading zero omitted, Abs format (unit mm)*
G04 Created by KiCad (PCBNEW (5.1.6)-1) date 2020-07-05 17:14:59*
%MOMM*%
%LPD*%
G01*
G04 APERTURE LIST*
G04 #@! TA.AperFunction,NonConductor*
%ADD10C,0.300000*%
G04 #@! TD*
G04 #@! TA.AperFunction,ComponentPad*
%ADD11O,2.000000X1.600000*%
G04 #@! TD*
G04 #@! TA.AperFunction,ComponentPad*
%ADD12R,2.000000X2.000000*%
G04 #@! TD*
G04 #@! TA.AperFunction,ComponentPad*
%ADD13C,6.000000*%
G04 #@! TD*
G04 #@! TA.AperFunction,ComponentPad*
%ADD14O,1.740000X2.190000*%
G04 #@! TD*
G04 #@! TA.AperFunction,ComponentPad*
%ADD15C,1.600000*%
G04 #@! TD*
G04 #@! TA.AperFunction,ComponentPad*
%ADD16R,1.700000X1.700000*%
G04 #@! TD*
G04 #@! TA.AperFunction,ComponentPad*
%ADD17O,1.700000X1.700000*%
G04 #@! TD*
G04 #@! TA.AperFunction,SMDPad,CuDef*
%ADD18R,0.450000X1.500000*%
G04 #@! TD*
G04 #@! TA.AperFunction,ViaPad*
%ADD19C,0.800000*%
G04 #@! TD*
G04 #@! TA.AperFunction,Conductor*
%ADD20C,1.066800*%
G04 #@! TD*
G04 #@! TA.AperFunction,Conductor*
%ADD21C,0.250000*%
G04 #@! TD*
G04 #@! TA.AperFunction,NonConductor*
%ADD22C,0.254000*%
G04 #@! TD*
G04 APERTURE END LIST*
D10*
X106823142Y-101024571D02*
X107180285Y-102024571D01*
X107537428Y-101024571D01*
X108894571Y-102024571D02*
X108037428Y-102024571D01*
X108466000Y-102024571D02*
X108466000Y-100524571D01*
X108323142Y-100738857D01*
X108180285Y-100881714D01*
X108037428Y-100953142D01*
X109537428Y-101881714D02*
X109608857Y-101953142D01*
X109537428Y-102024571D01*
X109466000Y-101953142D01*
X109537428Y-101881714D01*
X109537428Y-102024571D01*
X110537428Y-100524571D02*
X110680285Y-100524571D01*
X110823142Y-100596000D01*
X110894571Y-100667428D01*
X110966000Y-100810285D01*
X111037428Y-101096000D01*
X111037428Y-101453142D01*
X110966000Y-101738857D01*
X110894571Y-101881714D01*
X110823142Y-101953142D01*
X110680285Y-102024571D01*
X110537428Y-102024571D01*
X110394571Y-101953142D01*
X110323142Y-101881714D01*
X110251714Y-101738857D01*
X110180285Y-101453142D01*
X110180285Y-101096000D01*
X110251714Y-100810285D01*
X110323142Y-100667428D01*
X110394571Y-100596000D01*
X110537428Y-100524571D01*
D11*
X84201000Y-65992000D03*
D12*
X84201000Y-63452000D03*
D11*
X84201000Y-68532000D03*
X84201000Y-71072000D03*
X84201000Y-73612000D03*
X84201000Y-76152000D03*
X84201000Y-78692000D03*
X84201000Y-81232000D03*
X107061000Y-81232000D03*
X107061000Y-78692000D03*
X107061000Y-76152000D03*
X107061000Y-73612000D03*
X107061000Y-71072000D03*
X107061000Y-68532000D03*
X107061000Y-65992000D03*
X107061000Y-63452000D03*
D13*
X75000000Y-97000000D03*
X115000000Y-97000000D03*
X115000000Y-58000000D03*
X75000000Y-58000000D03*
G04 #@! TA.AperFunction,ComponentPad*
G36*
G01*
X94088000Y-89705999D02*
X94088000Y-91396001D01*
G75*
G02*
X93838001Y-91646000I-249999J0D01*
G01*
X92597999Y-91646000D01*
G75*
G02*
X92348000Y-91396001I0J249999D01*
G01*
X92348000Y-89705999D01*
G75*
G02*
X92597999Y-89456000I249999J0D01*
G01*
X93838001Y-89456000D01*
G75*
G02*
X94088000Y-89705999I0J-249999D01*
G01*
G37*
G04 #@! TD.AperFunction*
D14*
X90678000Y-90551000D03*
X88138000Y-90551000D03*
X85598000Y-90551000D03*
D15*
X97282000Y-95972000D03*
X97282000Y-93472000D03*
X93980000Y-68405000D03*
X98980000Y-68405000D03*
D16*
X77597000Y-67516000D03*
D17*
X77597000Y-70056000D03*
X77597000Y-72596000D03*
X77597000Y-75136000D03*
X77597000Y-77676000D03*
X77597000Y-80216000D03*
X77597000Y-82756000D03*
X77597000Y-85296000D03*
X113665000Y-85296000D03*
X113665000Y-82756000D03*
X113665000Y-80216000D03*
X113665000Y-77676000D03*
X113665000Y-75136000D03*
X113665000Y-72596000D03*
X113665000Y-70056000D03*
D16*
X113665000Y-67516000D03*
D18*
X93991000Y-71601000D03*
X93991000Y-77401000D03*
X94641000Y-71601000D03*
X94641000Y-77401000D03*
X95291000Y-71601000D03*
X95291000Y-77401000D03*
X95941000Y-71601000D03*
X95941000Y-77401000D03*
X96591000Y-71601000D03*
X96591000Y-77401000D03*
X97241000Y-71601000D03*
X97241000Y-77401000D03*
X97891000Y-71601000D03*
X97891000Y-77401000D03*
X98541000Y-71601000D03*
X98541000Y-77401000D03*
G04 #@! TA.AperFunction,ComponentPad*
G36*
G01*
X104756000Y-89578999D02*
X104756000Y-91269001D01*
G75*
G02*
X104506001Y-91519000I-249999J0D01*
G01*
X103265999Y-91519000D01*
G75*
G02*
X103016000Y-91269001I0J249999D01*
G01*
X103016000Y-89578999D01*
G75*
G02*
X103265999Y-89329000I249999J0D01*
G01*
X104506001Y-89329000D01*
G75*
G02*
X104756000Y-89578999I0J-249999D01*
G01*
G37*
G04 #@! TD.AperFunction*
D14*
X101346000Y-90424000D03*
D19*
X73660000Y-62738000D03*
X78740000Y-62738000D03*
X78740000Y-89408000D03*
X73406000Y-89408000D03*
X116840000Y-89408000D03*
X112014000Y-62738000D03*
X116840000Y-62738000D03*
X104140000Y-86360000D03*
X87630000Y-63500000D03*
X104140000Y-63500000D03*
X87630000Y-86360000D03*
X111760000Y-89408000D03*
X100076000Y-77422000D03*
X95504000Y-75898000D03*
X102918000Y-75898000D03*
X97790000Y-74999400D03*
X100838000Y-71882000D03*
X94996000Y-79454000D03*
X97536000Y-79454000D03*
D20*
X107061000Y-81232000D02*
X109474000Y-81232000D01*
X109474000Y-81232000D02*
X113538000Y-85296000D01*
X100330000Y-73866000D02*
X94234000Y-73866000D01*
D21*
X93991000Y-73623000D02*
X94234000Y-73866000D01*
X93991000Y-71601000D02*
X93991000Y-73623000D01*
X93980000Y-68405000D02*
X93980000Y-71834000D01*
D20*
X100330000Y-90424000D02*
X97282000Y-93472000D01*
X101346000Y-90424000D02*
X100330000Y-90424000D01*
X85598000Y-92712800D02*
X85598000Y-90551000D01*
X86357200Y-93472000D02*
X85598000Y-92712800D01*
X97282000Y-93472000D02*
X86357200Y-93472000D01*
X101346000Y-74882000D02*
X100330000Y-73866000D01*
X101346000Y-84880200D02*
X101346000Y-85296000D01*
X107061000Y-81232000D02*
X104994200Y-81232000D01*
X104994200Y-81232000D02*
X101346000Y-84880200D01*
X101346000Y-85296000D02*
X101346000Y-74882000D01*
X101346000Y-85296000D02*
X101346000Y-89654000D01*
X101346000Y-89654000D02*
X101000000Y-90000000D01*
D21*
X98541000Y-77401000D02*
X100055000Y-77401000D01*
X100055000Y-77401000D02*
X100076000Y-77422000D01*
X93218000Y-90170000D02*
X93472000Y-90424000D01*
X96591000Y-77401000D02*
X96591000Y-83749000D01*
X96591000Y-83749000D02*
X93218000Y-87122000D01*
X93218000Y-87122000D02*
X93218000Y-90678000D01*
X95941000Y-77401000D02*
X95941000Y-83637000D01*
X95941000Y-83637000D02*
X93218000Y-86360000D01*
X93218000Y-86360000D02*
X90678000Y-88900000D01*
X90678000Y-88900000D02*
X90678000Y-90424000D01*
X107061000Y-76152000D02*
X109728000Y-76152000D01*
X109728000Y-76152000D02*
X113792000Y-80216000D01*
X95291000Y-77401000D02*
X95291000Y-76111000D01*
X95291000Y-76111000D02*
X95504000Y-75898000D01*
X102918000Y-75898000D02*
X107140000Y-75898000D01*
X107061000Y-65992000D02*
X109474000Y-65992000D01*
X109474000Y-65992000D02*
X113538000Y-70056000D01*
X97241000Y-77401000D02*
X97241000Y-75431000D01*
X97241000Y-75431000D02*
X97672600Y-74999400D01*
X97672600Y-74999400D02*
X97790000Y-74999400D01*
X100838000Y-71882000D02*
X106680000Y-66040000D01*
X106680000Y-66040000D02*
X106934000Y-66040000D01*
X84201000Y-63452000D02*
X81788000Y-63452000D01*
X81788000Y-63452000D02*
X77724000Y-67516000D01*
X84201000Y-65992000D02*
X81534000Y-65992000D01*
X81534000Y-65992000D02*
X77470000Y-70056000D01*
X84201000Y-68532000D02*
X81788000Y-68532000D01*
X81788000Y-68532000D02*
X77724000Y-72596000D01*
X84201000Y-71072000D02*
X81788000Y-71072000D01*
X81788000Y-71072000D02*
X77724000Y-75136000D01*
X84201000Y-73612000D02*
X81788000Y-73612000D01*
X81788000Y-73612000D02*
X77724000Y-77676000D01*
X84201000Y-76152000D02*
X81788000Y-76152000D01*
X81788000Y-76152000D02*
X77724000Y-80216000D01*
X84201000Y-78692000D02*
X81534000Y-78692000D01*
X81534000Y-78692000D02*
X77470000Y-82756000D01*
X84201000Y-81232000D02*
X81788000Y-81232000D01*
X81788000Y-81232000D02*
X77724000Y-85296000D01*
X84201000Y-81232000D02*
X91948000Y-81232000D01*
X91948000Y-81232000D02*
X93980000Y-79200000D01*
X93980000Y-79200000D02*
X93980000Y-77422000D01*
X93991000Y-77401000D02*
X94467000Y-77401000D01*
X94467000Y-77401000D02*
X94488000Y-77422000D01*
X94641000Y-77401000D02*
X94641000Y-79099000D01*
X94641000Y-79099000D02*
X94996000Y-79454000D01*
X97536000Y-79454000D02*
X97990999Y-78999001D01*
X97990999Y-78999001D02*
X97990999Y-78411001D01*
X97990999Y-78411001D02*
X97990999Y-77422000D01*
X107061000Y-73612000D02*
X109728000Y-73612000D01*
X109728000Y-73612000D02*
X113792000Y-77676000D01*
X107061000Y-71072000D02*
X109474000Y-71072000D01*
X109474000Y-71072000D02*
X113538000Y-75136000D01*
X107061000Y-68532000D02*
X109728000Y-68532000D01*
X109728000Y-68532000D02*
X113792000Y-72596000D01*
X107061000Y-63452000D02*
X109474000Y-63452000D01*
X109474000Y-63452000D02*
X113538000Y-67516000D01*
D22*
G36*
X118259659Y-53688625D02*
G01*
X118509429Y-53764035D01*
X118739792Y-53886522D01*
X118941980Y-54051422D01*
X119108286Y-54252450D01*
X119232378Y-54481954D01*
X119309531Y-54731195D01*
X119340000Y-55021088D01*
X119340001Y-100967711D01*
X119311375Y-101259660D01*
X119235965Y-101509429D01*
X119113477Y-101739794D01*
X118948579Y-101941979D01*
X118747546Y-102108288D01*
X118518046Y-102232378D01*
X118268805Y-102309531D01*
X117978911Y-102340000D01*
X112108143Y-102340000D01*
X112108143Y-99556000D01*
X105823857Y-99556000D01*
X105823857Y-102340000D01*
X72032279Y-102340000D01*
X71740340Y-102311375D01*
X71490571Y-102235965D01*
X71260206Y-102113477D01*
X71058021Y-101948579D01*
X70891712Y-101747546D01*
X70767622Y-101518046D01*
X70690469Y-101268805D01*
X70660000Y-100978911D01*
X70660000Y-96641984D01*
X71365000Y-96641984D01*
X71365000Y-97358016D01*
X71504691Y-98060290D01*
X71778705Y-98721818D01*
X72176511Y-99317177D01*
X72682823Y-99823489D01*
X73278182Y-100221295D01*
X73939710Y-100495309D01*
X74641984Y-100635000D01*
X75358016Y-100635000D01*
X76060290Y-100495309D01*
X76721818Y-100221295D01*
X77317177Y-99823489D01*
X77823489Y-99317177D01*
X78221295Y-98721818D01*
X78495309Y-98060290D01*
X78635000Y-97358016D01*
X78635000Y-96641984D01*
X78495309Y-95939710D01*
X78221295Y-95278182D01*
X77823489Y-94682823D01*
X77317177Y-94176511D01*
X76721818Y-93778705D01*
X76060290Y-93504691D01*
X75358016Y-93365000D01*
X74641984Y-93365000D01*
X73939710Y-93504691D01*
X73278182Y-93778705D01*
X72682823Y-94176511D01*
X72176511Y-94682823D01*
X71778705Y-95278182D01*
X71504691Y-95939710D01*
X71365000Y-96641984D01*
X70660000Y-96641984D01*
X70660000Y-89306061D01*
X72371000Y-89306061D01*
X72371000Y-89509939D01*
X72410774Y-89709898D01*
X72488795Y-89898256D01*
X72602063Y-90067774D01*
X72746226Y-90211937D01*
X72915744Y-90325205D01*
X73104102Y-90403226D01*
X73304061Y-90443000D01*
X73507939Y-90443000D01*
X73707898Y-90403226D01*
X73896256Y-90325205D01*
X74065774Y-90211937D01*
X74209937Y-90067774D01*
X74323205Y-89898256D01*
X74401226Y-89709898D01*
X74441000Y-89509939D01*
X74441000Y-89306061D01*
X77705000Y-89306061D01*
X77705000Y-89509939D01*
X77744774Y-89709898D01*
X77822795Y-89898256D01*
X77936063Y-90067774D01*
X78080226Y-90211937D01*
X78249744Y-90325205D01*
X78438102Y-90403226D01*
X78638061Y-90443000D01*
X78841939Y-90443000D01*
X79041898Y-90403226D01*
X79230256Y-90325205D01*
X79399774Y-90211937D01*
X79543937Y-90067774D01*
X79657205Y-89898256D01*
X79735226Y-89709898D01*
X79775000Y-89509939D01*
X79775000Y-89306061D01*
X79735226Y-89106102D01*
X79657205Y-88917744D01*
X79543937Y-88748226D01*
X79399774Y-88604063D01*
X79230256Y-88490795D01*
X79041898Y-88412774D01*
X78841939Y-88373000D01*
X78638061Y-88373000D01*
X78438102Y-88412774D01*
X78249744Y-88490795D01*
X78080226Y-88604063D01*
X77936063Y-88748226D01*
X77822795Y-88917744D01*
X77744774Y-89106102D01*
X77705000Y-89306061D01*
X74441000Y-89306061D01*
X74401226Y-89106102D01*
X74323205Y-88917744D01*
X74209937Y-88748226D01*
X74065774Y-88604063D01*
X73896256Y-88490795D01*
X73707898Y-88412774D01*
X73507939Y-88373000D01*
X73304061Y-88373000D01*
X73104102Y-88412774D01*
X72915744Y-88490795D01*
X72746226Y-88604063D01*
X72602063Y-88748226D01*
X72488795Y-88917744D01*
X72410774Y-89106102D01*
X72371000Y-89306061D01*
X70660000Y-89306061D01*
X70660000Y-66666000D01*
X76108928Y-66666000D01*
X76108928Y-68366000D01*
X76121188Y-68490482D01*
X76157498Y-68610180D01*
X76216463Y-68720494D01*
X76295815Y-68817185D01*
X76392506Y-68896537D01*
X76502820Y-68955502D01*
X76575380Y-68977513D01*
X76443525Y-69109368D01*
X76281010Y-69352589D01*
X76169068Y-69622842D01*
X76112000Y-69909740D01*
X76112000Y-70202260D01*
X76169068Y-70489158D01*
X76281010Y-70759411D01*
X76443525Y-71002632D01*
X76650368Y-71209475D01*
X76824760Y-71326000D01*
X76650368Y-71442525D01*
X76443525Y-71649368D01*
X76281010Y-71892589D01*
X76169068Y-72162842D01*
X76112000Y-72449740D01*
X76112000Y-72742260D01*
X76169068Y-73029158D01*
X76281010Y-73299411D01*
X76443525Y-73542632D01*
X76650368Y-73749475D01*
X76824760Y-73866000D01*
X76650368Y-73982525D01*
X76443525Y-74189368D01*
X76281010Y-74432589D01*
X76169068Y-74702842D01*
X76112000Y-74989740D01*
X76112000Y-75282260D01*
X76169068Y-75569158D01*
X76281010Y-75839411D01*
X76443525Y-76082632D01*
X76650368Y-76289475D01*
X76824760Y-76406000D01*
X76650368Y-76522525D01*
X76443525Y-76729368D01*
X76281010Y-76972589D01*
X76169068Y-77242842D01*
X76112000Y-77529740D01*
X76112000Y-77822260D01*
X76169068Y-78109158D01*
X76281010Y-78379411D01*
X76443525Y-78622632D01*
X76650368Y-78829475D01*
X76824760Y-78946000D01*
X76650368Y-79062525D01*
X76443525Y-79269368D01*
X76281010Y-79512589D01*
X76169068Y-79782842D01*
X76112000Y-80069740D01*
X76112000Y-80362260D01*
X76169068Y-80649158D01*
X76281010Y-80919411D01*
X76443525Y-81162632D01*
X76650368Y-81369475D01*
X76824760Y-81486000D01*
X76650368Y-81602525D01*
X76443525Y-81809368D01*
X76281010Y-82052589D01*
X76169068Y-82322842D01*
X76112000Y-82609740D01*
X76112000Y-82902260D01*
X76169068Y-83189158D01*
X76281010Y-83459411D01*
X76443525Y-83702632D01*
X76650368Y-83909475D01*
X76824760Y-84026000D01*
X76650368Y-84142525D01*
X76443525Y-84349368D01*
X76281010Y-84592589D01*
X76169068Y-84862842D01*
X76112000Y-85149740D01*
X76112000Y-85442260D01*
X76169068Y-85729158D01*
X76281010Y-85999411D01*
X76443525Y-86242632D01*
X76650368Y-86449475D01*
X76893589Y-86611990D01*
X77163842Y-86723932D01*
X77450740Y-86781000D01*
X77743260Y-86781000D01*
X78030158Y-86723932D01*
X78300411Y-86611990D01*
X78543632Y-86449475D01*
X78735046Y-86258061D01*
X86595000Y-86258061D01*
X86595000Y-86461939D01*
X86634774Y-86661898D01*
X86712795Y-86850256D01*
X86826063Y-87019774D01*
X86970226Y-87163937D01*
X87139744Y-87277205D01*
X87328102Y-87355226D01*
X87528061Y-87395000D01*
X87731939Y-87395000D01*
X87931898Y-87355226D01*
X88120256Y-87277205D01*
X88289774Y-87163937D01*
X88433937Y-87019774D01*
X88547205Y-86850256D01*
X88625226Y-86661898D01*
X88665000Y-86461939D01*
X88665000Y-86258061D01*
X88625226Y-86058102D01*
X88547205Y-85869744D01*
X88433937Y-85700226D01*
X88289774Y-85556063D01*
X88120256Y-85442795D01*
X87931898Y-85364774D01*
X87731939Y-85325000D01*
X87528061Y-85325000D01*
X87328102Y-85364774D01*
X87139744Y-85442795D01*
X86970226Y-85556063D01*
X86826063Y-85700226D01*
X86712795Y-85869744D01*
X86634774Y-86058102D01*
X86595000Y-86258061D01*
X78735046Y-86258061D01*
X78750475Y-86242632D01*
X78912990Y-85999411D01*
X79024932Y-85729158D01*
X79082000Y-85442260D01*
X79082000Y-85149740D01*
X79059280Y-85035521D01*
X82102802Y-81992000D01*
X82780099Y-81992000D01*
X82802068Y-82033101D01*
X82981392Y-82251608D01*
X83199899Y-82430932D01*
X83449192Y-82564182D01*
X83719691Y-82646236D01*
X83930508Y-82667000D01*
X84471492Y-82667000D01*
X84682309Y-82646236D01*
X84952808Y-82564182D01*
X85202101Y-82430932D01*
X85420608Y-82251608D01*
X85599932Y-82033101D01*
X85621901Y-81992000D01*
X91910678Y-81992000D01*
X91948000Y-81995676D01*
X91985322Y-81992000D01*
X91985333Y-81992000D01*
X92096986Y-81981003D01*
X92240247Y-81937546D01*
X92372276Y-81866974D01*
X92488001Y-81772001D01*
X92511804Y-81742997D01*
X94171621Y-80083181D01*
X94192063Y-80113774D01*
X94336226Y-80257937D01*
X94505744Y-80371205D01*
X94694102Y-80449226D01*
X94894061Y-80489000D01*
X95097939Y-80489000D01*
X95181000Y-80472478D01*
X95181001Y-83322197D01*
X92707007Y-85796192D01*
X92706996Y-85796201D01*
X90167003Y-88336196D01*
X90137999Y-88359999D01*
X90094688Y-88412774D01*
X90043026Y-88475724D01*
X89993000Y-88569316D01*
X89972454Y-88607754D01*
X89928997Y-88751015D01*
X89918000Y-88862668D01*
X89918000Y-88862678D01*
X89914324Y-88900000D01*
X89918000Y-88937323D01*
X89918000Y-89025727D01*
X89837822Y-89068583D01*
X89608655Y-89256655D01*
X89420583Y-89485821D01*
X89408000Y-89509362D01*
X89395417Y-89485821D01*
X89207345Y-89256655D01*
X88978179Y-89068583D01*
X88716725Y-88928834D01*
X88433032Y-88842776D01*
X88138000Y-88813718D01*
X87842969Y-88842776D01*
X87559276Y-88928834D01*
X87297822Y-89068583D01*
X87068655Y-89256655D01*
X86880583Y-89485821D01*
X86868000Y-89509362D01*
X86855417Y-89485821D01*
X86667345Y-89256655D01*
X86438179Y-89068583D01*
X86176725Y-88928834D01*
X85893032Y-88842776D01*
X85598000Y-88813718D01*
X85302969Y-88842776D01*
X85019276Y-88928834D01*
X84757822Y-89068583D01*
X84528655Y-89256655D01*
X84340583Y-89485821D01*
X84200834Y-89747275D01*
X84114776Y-90030968D01*
X84093000Y-90252064D01*
X84093000Y-90849935D01*
X84114776Y-91071031D01*
X84200834Y-91354724D01*
X84340583Y-91616178D01*
X84429600Y-91724646D01*
X84429600Y-92655406D01*
X84423947Y-92712800D01*
X84429600Y-92770193D01*
X84429600Y-92770195D01*
X84446506Y-92941845D01*
X84513316Y-93162090D01*
X84621811Y-93365069D01*
X84672092Y-93426336D01*
X84767819Y-93542981D01*
X84812409Y-93579575D01*
X85490425Y-94257591D01*
X85527019Y-94302181D01*
X85630078Y-94386759D01*
X85704930Y-94448189D01*
X85871083Y-94537000D01*
X85907909Y-94556684D01*
X86128154Y-94623494D01*
X86299804Y-94640400D01*
X86299807Y-94640400D01*
X86357200Y-94646053D01*
X86414593Y-94640400D01*
X96447703Y-94640400D01*
X96569827Y-94722000D01*
X96367241Y-94857363D01*
X96167363Y-95057241D01*
X96010320Y-95292273D01*
X95902147Y-95553426D01*
X95847000Y-95830665D01*
X95847000Y-96113335D01*
X95902147Y-96390574D01*
X96010320Y-96651727D01*
X96167363Y-96886759D01*
X96367241Y-97086637D01*
X96602273Y-97243680D01*
X96863426Y-97351853D01*
X97140665Y-97407000D01*
X97423335Y-97407000D01*
X97700574Y-97351853D01*
X97961727Y-97243680D01*
X98196759Y-97086637D01*
X98396637Y-96886759D01*
X98553680Y-96651727D01*
X98557715Y-96641984D01*
X111365000Y-96641984D01*
X111365000Y-97358016D01*
X111504691Y-98060290D01*
X111778705Y-98721818D01*
X112176511Y-99317177D01*
X112682823Y-99823489D01*
X113278182Y-100221295D01*
X113939710Y-100495309D01*
X114641984Y-100635000D01*
X115358016Y-100635000D01*
X116060290Y-100495309D01*
X116721818Y-100221295D01*
X117317177Y-99823489D01*
X117823489Y-99317177D01*
X118221295Y-98721818D01*
X118495309Y-98060290D01*
X118635000Y-97358016D01*
X118635000Y-96641984D01*
X118495309Y-95939710D01*
X118221295Y-95278182D01*
X117823489Y-94682823D01*
X117317177Y-94176511D01*
X116721818Y-93778705D01*
X116060290Y-93504691D01*
X115358016Y-93365000D01*
X114641984Y-93365000D01*
X113939710Y-93504691D01*
X113278182Y-93778705D01*
X112682823Y-94176511D01*
X112176511Y-94682823D01*
X111778705Y-95278182D01*
X111504691Y-95939710D01*
X111365000Y-96641984D01*
X98557715Y-96641984D01*
X98661853Y-96390574D01*
X98717000Y-96113335D01*
X98717000Y-95830665D01*
X98661853Y-95553426D01*
X98553680Y-95292273D01*
X98396637Y-95057241D01*
X98196759Y-94857363D01*
X97994173Y-94722000D01*
X98196759Y-94586637D01*
X98396637Y-94386759D01*
X98553680Y-94151727D01*
X98661853Y-93890574D01*
X98698121Y-93708245D01*
X100502596Y-91903771D01*
X100505821Y-91906417D01*
X100767275Y-92046166D01*
X101050968Y-92132224D01*
X101346000Y-92161282D01*
X101641031Y-92132224D01*
X101924724Y-92046166D01*
X102186178Y-91906417D01*
X102415345Y-91718345D01*
X102469066Y-91652886D01*
X102527595Y-91762387D01*
X102638038Y-91896962D01*
X102772613Y-92007405D01*
X102926149Y-92089472D01*
X103092745Y-92140008D01*
X103265999Y-92157072D01*
X104506001Y-92157072D01*
X104679255Y-92140008D01*
X104845851Y-92089472D01*
X104999387Y-92007405D01*
X105133962Y-91896962D01*
X105244405Y-91762387D01*
X105326472Y-91608851D01*
X105377008Y-91442255D01*
X105394072Y-91269001D01*
X105394072Y-89578999D01*
X105377008Y-89405745D01*
X105346770Y-89306061D01*
X110725000Y-89306061D01*
X110725000Y-89509939D01*
X110764774Y-89709898D01*
X110842795Y-89898256D01*
X110956063Y-90067774D01*
X111100226Y-90211937D01*
X111269744Y-90325205D01*
X111458102Y-90403226D01*
X111658061Y-90443000D01*
X111861939Y-90443000D01*
X112061898Y-90403226D01*
X112250256Y-90325205D01*
X112419774Y-90211937D01*
X112563937Y-90067774D01*
X112677205Y-89898256D01*
X112755226Y-89709898D01*
X112795000Y-89509939D01*
X112795000Y-89306061D01*
X115805000Y-89306061D01*
X115805000Y-89509939D01*
X115844774Y-89709898D01*
X115922795Y-89898256D01*
X116036063Y-90067774D01*
X116180226Y-90211937D01*
X116349744Y-90325205D01*
X116538102Y-90403226D01*
X116738061Y-90443000D01*
X116941939Y-90443000D01*
X117141898Y-90403226D01*
X117330256Y-90325205D01*
X117499774Y-90211937D01*
X117643937Y-90067774D01*
X117757205Y-89898256D01*
X117835226Y-89709898D01*
X117875000Y-89509939D01*
X117875000Y-89306061D01*
X117835226Y-89106102D01*
X117757205Y-88917744D01*
X117643937Y-88748226D01*
X117499774Y-88604063D01*
X117330256Y-88490795D01*
X117141898Y-88412774D01*
X116941939Y-88373000D01*
X116738061Y-88373000D01*
X116538102Y-88412774D01*
X116349744Y-88490795D01*
X116180226Y-88604063D01*
X116036063Y-88748226D01*
X115922795Y-88917744D01*
X115844774Y-89106102D01*
X115805000Y-89306061D01*
X112795000Y-89306061D01*
X112755226Y-89106102D01*
X112677205Y-88917744D01*
X112563937Y-88748226D01*
X112419774Y-88604063D01*
X112250256Y-88490795D01*
X112061898Y-88412774D01*
X111861939Y-88373000D01*
X111658061Y-88373000D01*
X111458102Y-88412774D01*
X111269744Y-88490795D01*
X111100226Y-88604063D01*
X110956063Y-88748226D01*
X110842795Y-88917744D01*
X110764774Y-89106102D01*
X110725000Y-89306061D01*
X105346770Y-89306061D01*
X105326472Y-89239149D01*
X105244405Y-89085613D01*
X105133962Y-88951038D01*
X104999387Y-88840595D01*
X104845851Y-88758528D01*
X104679255Y-88707992D01*
X104506001Y-88690928D01*
X103265999Y-88690928D01*
X103092745Y-88707992D01*
X102926149Y-88758528D01*
X102772613Y-88840595D01*
X102638038Y-88951038D01*
X102527595Y-89085613D01*
X102514400Y-89110299D01*
X102514400Y-86258061D01*
X103105000Y-86258061D01*
X103105000Y-86461939D01*
X103144774Y-86661898D01*
X103222795Y-86850256D01*
X103336063Y-87019774D01*
X103480226Y-87163937D01*
X103649744Y-87277205D01*
X103838102Y-87355226D01*
X104038061Y-87395000D01*
X104241939Y-87395000D01*
X104441898Y-87355226D01*
X104630256Y-87277205D01*
X104799774Y-87163937D01*
X104943937Y-87019774D01*
X105057205Y-86850256D01*
X105135226Y-86661898D01*
X105175000Y-86461939D01*
X105175000Y-86258061D01*
X105135226Y-86058102D01*
X105057205Y-85869744D01*
X104943937Y-85700226D01*
X104799774Y-85556063D01*
X104630256Y-85442795D01*
X104441898Y-85364774D01*
X104241939Y-85325000D01*
X104038061Y-85325000D01*
X103838102Y-85364774D01*
X103649744Y-85442795D01*
X103480226Y-85556063D01*
X103336063Y-85700226D01*
X103222795Y-85869744D01*
X103144774Y-86058102D01*
X103105000Y-86258061D01*
X102514400Y-86258061D01*
X102514400Y-85364166D01*
X105478167Y-82400400D01*
X106022696Y-82400400D01*
X106059899Y-82430932D01*
X106309192Y-82564182D01*
X106579691Y-82646236D01*
X106790508Y-82667000D01*
X107331492Y-82667000D01*
X107542309Y-82646236D01*
X107812808Y-82564182D01*
X108062101Y-82430932D01*
X108099304Y-82400400D01*
X108990034Y-82400400D01*
X112216776Y-85627143D01*
X112237068Y-85729158D01*
X112349010Y-85999411D01*
X112511525Y-86242632D01*
X112718368Y-86449475D01*
X112961589Y-86611990D01*
X113231842Y-86723932D01*
X113518740Y-86781000D01*
X113811260Y-86781000D01*
X114098158Y-86723932D01*
X114368411Y-86611990D01*
X114611632Y-86449475D01*
X114818475Y-86242632D01*
X114980990Y-85999411D01*
X115092932Y-85729158D01*
X115150000Y-85442260D01*
X115150000Y-85149740D01*
X115092932Y-84862842D01*
X114980990Y-84592589D01*
X114818475Y-84349368D01*
X114611632Y-84142525D01*
X114437240Y-84026000D01*
X114611632Y-83909475D01*
X114818475Y-83702632D01*
X114980990Y-83459411D01*
X115092932Y-83189158D01*
X115150000Y-82902260D01*
X115150000Y-82609740D01*
X115092932Y-82322842D01*
X114980990Y-82052589D01*
X114818475Y-81809368D01*
X114611632Y-81602525D01*
X114437240Y-81486000D01*
X114611632Y-81369475D01*
X114818475Y-81162632D01*
X114980990Y-80919411D01*
X115092932Y-80649158D01*
X115150000Y-80362260D01*
X115150000Y-80069740D01*
X115092932Y-79782842D01*
X114980990Y-79512589D01*
X114818475Y-79269368D01*
X114611632Y-79062525D01*
X114437240Y-78946000D01*
X114611632Y-78829475D01*
X114818475Y-78622632D01*
X114980990Y-78379411D01*
X115092932Y-78109158D01*
X115150000Y-77822260D01*
X115150000Y-77529740D01*
X115092932Y-77242842D01*
X114980990Y-76972589D01*
X114818475Y-76729368D01*
X114611632Y-76522525D01*
X114437240Y-76406000D01*
X114611632Y-76289475D01*
X114818475Y-76082632D01*
X114980990Y-75839411D01*
X115092932Y-75569158D01*
X115150000Y-75282260D01*
X115150000Y-74989740D01*
X115092932Y-74702842D01*
X114980990Y-74432589D01*
X114818475Y-74189368D01*
X114611632Y-73982525D01*
X114437240Y-73866000D01*
X114611632Y-73749475D01*
X114818475Y-73542632D01*
X114980990Y-73299411D01*
X115092932Y-73029158D01*
X115150000Y-72742260D01*
X115150000Y-72449740D01*
X115092932Y-72162842D01*
X114980990Y-71892589D01*
X114818475Y-71649368D01*
X114611632Y-71442525D01*
X114437240Y-71326000D01*
X114611632Y-71209475D01*
X114818475Y-71002632D01*
X114980990Y-70759411D01*
X115092932Y-70489158D01*
X115150000Y-70202260D01*
X115150000Y-69909740D01*
X115092932Y-69622842D01*
X114980990Y-69352589D01*
X114818475Y-69109368D01*
X114686620Y-68977513D01*
X114759180Y-68955502D01*
X114869494Y-68896537D01*
X114966185Y-68817185D01*
X115045537Y-68720494D01*
X115104502Y-68610180D01*
X115140812Y-68490482D01*
X115153072Y-68366000D01*
X115153072Y-66666000D01*
X115140812Y-66541518D01*
X115104502Y-66421820D01*
X115045537Y-66311506D01*
X114966185Y-66214815D01*
X114869494Y-66135463D01*
X114759180Y-66076498D01*
X114639482Y-66040188D01*
X114515000Y-66027928D01*
X113124730Y-66027928D01*
X110037804Y-62941003D01*
X110014001Y-62911999D01*
X109898276Y-62817026D01*
X109766247Y-62746454D01*
X109622986Y-62702997D01*
X109511333Y-62692000D01*
X109511322Y-62692000D01*
X109474000Y-62688324D01*
X109436678Y-62692000D01*
X108481901Y-62692000D01*
X108459932Y-62650899D01*
X108447755Y-62636061D01*
X110979000Y-62636061D01*
X110979000Y-62839939D01*
X111018774Y-63039898D01*
X111096795Y-63228256D01*
X111210063Y-63397774D01*
X111354226Y-63541937D01*
X111523744Y-63655205D01*
X111712102Y-63733226D01*
X111912061Y-63773000D01*
X112115939Y-63773000D01*
X112315898Y-63733226D01*
X112504256Y-63655205D01*
X112673774Y-63541937D01*
X112817937Y-63397774D01*
X112931205Y-63228256D01*
X113009226Y-63039898D01*
X113049000Y-62839939D01*
X113049000Y-62636061D01*
X115805000Y-62636061D01*
X115805000Y-62839939D01*
X115844774Y-63039898D01*
X115922795Y-63228256D01*
X116036063Y-63397774D01*
X116180226Y-63541937D01*
X116349744Y-63655205D01*
X116538102Y-63733226D01*
X116738061Y-63773000D01*
X116941939Y-63773000D01*
X117141898Y-63733226D01*
X117330256Y-63655205D01*
X117499774Y-63541937D01*
X117643937Y-63397774D01*
X117757205Y-63228256D01*
X117835226Y-63039898D01*
X117875000Y-62839939D01*
X117875000Y-62636061D01*
X117835226Y-62436102D01*
X117757205Y-62247744D01*
X117643937Y-62078226D01*
X117499774Y-61934063D01*
X117330256Y-61820795D01*
X117141898Y-61742774D01*
X116941939Y-61703000D01*
X116738061Y-61703000D01*
X116538102Y-61742774D01*
X116349744Y-61820795D01*
X116180226Y-61934063D01*
X116036063Y-62078226D01*
X115922795Y-62247744D01*
X115844774Y-62436102D01*
X115805000Y-62636061D01*
X113049000Y-62636061D01*
X113009226Y-62436102D01*
X112931205Y-62247744D01*
X112817937Y-62078226D01*
X112673774Y-61934063D01*
X112504256Y-61820795D01*
X112315898Y-61742774D01*
X112115939Y-61703000D01*
X111912061Y-61703000D01*
X111712102Y-61742774D01*
X111523744Y-61820795D01*
X111354226Y-61934063D01*
X111210063Y-62078226D01*
X111096795Y-62247744D01*
X111018774Y-62436102D01*
X110979000Y-62636061D01*
X108447755Y-62636061D01*
X108280608Y-62432392D01*
X108062101Y-62253068D01*
X107812808Y-62119818D01*
X107599129Y-62055000D01*
X108458000Y-62055000D01*
X108482776Y-62052560D01*
X108506601Y-62045333D01*
X108528557Y-62033597D01*
X108547803Y-62017803D01*
X108563597Y-61998557D01*
X108575333Y-61976601D01*
X108582560Y-61952776D01*
X108585000Y-61928000D01*
X108585000Y-57641984D01*
X111365000Y-57641984D01*
X111365000Y-58358016D01*
X111504691Y-59060290D01*
X111778705Y-59721818D01*
X112176511Y-60317177D01*
X112682823Y-60823489D01*
X113278182Y-61221295D01*
X113939710Y-61495309D01*
X114641984Y-61635000D01*
X115358016Y-61635000D01*
X116060290Y-61495309D01*
X116721818Y-61221295D01*
X117317177Y-60823489D01*
X117823489Y-60317177D01*
X118221295Y-59721818D01*
X118495309Y-59060290D01*
X118635000Y-58358016D01*
X118635000Y-57641984D01*
X118495309Y-56939710D01*
X118221295Y-56278182D01*
X117823489Y-55682823D01*
X117317177Y-55176511D01*
X116721818Y-54778705D01*
X116060290Y-54504691D01*
X115358016Y-54365000D01*
X114641984Y-54365000D01*
X113939710Y-54504691D01*
X113278182Y-54778705D01*
X112682823Y-55176511D01*
X112176511Y-55682823D01*
X111778705Y-56278182D01*
X111504691Y-56939710D01*
X111365000Y-57641984D01*
X108585000Y-57641984D01*
X108585000Y-55070000D01*
X108582560Y-55045224D01*
X108575333Y-55021399D01*
X108563597Y-54999443D01*
X108547803Y-54980197D01*
X108528557Y-54964403D01*
X108506601Y-54952667D01*
X108482776Y-54945440D01*
X108458000Y-54943000D01*
X82804000Y-54943000D01*
X82779224Y-54945440D01*
X82755399Y-54952667D01*
X82733443Y-54964403D01*
X82714197Y-54980197D01*
X82698403Y-54999443D01*
X82686667Y-55021399D01*
X82679440Y-55045224D01*
X82677000Y-55070000D01*
X82677000Y-61928000D01*
X82679440Y-61952776D01*
X82686667Y-61976601D01*
X82698403Y-61998557D01*
X82714197Y-62017803D01*
X82727150Y-62028433D01*
X82670463Y-62097506D01*
X82611498Y-62207820D01*
X82575188Y-62327518D01*
X82562928Y-62452000D01*
X82562928Y-62692000D01*
X81825323Y-62692000D01*
X81788000Y-62688324D01*
X81750677Y-62692000D01*
X81750667Y-62692000D01*
X81639014Y-62702997D01*
X81495753Y-62746454D01*
X81363723Y-62817026D01*
X81280083Y-62885668D01*
X81247999Y-62911999D01*
X81224201Y-62940997D01*
X78137271Y-66027928D01*
X76747000Y-66027928D01*
X76622518Y-66040188D01*
X76502820Y-66076498D01*
X76392506Y-66135463D01*
X76295815Y-66214815D01*
X76216463Y-66311506D01*
X76157498Y-66421820D01*
X76121188Y-66541518D01*
X76108928Y-66666000D01*
X70660000Y-66666000D01*
X70660000Y-62636061D01*
X72625000Y-62636061D01*
X72625000Y-62839939D01*
X72664774Y-63039898D01*
X72742795Y-63228256D01*
X72856063Y-63397774D01*
X73000226Y-63541937D01*
X73169744Y-63655205D01*
X73358102Y-63733226D01*
X73558061Y-63773000D01*
X73761939Y-63773000D01*
X73961898Y-63733226D01*
X74150256Y-63655205D01*
X74319774Y-63541937D01*
X74463937Y-63397774D01*
X74577205Y-63228256D01*
X74655226Y-63039898D01*
X74695000Y-62839939D01*
X74695000Y-62636061D01*
X77705000Y-62636061D01*
X77705000Y-62839939D01*
X77744774Y-63039898D01*
X77822795Y-63228256D01*
X77936063Y-63397774D01*
X78080226Y-63541937D01*
X78249744Y-63655205D01*
X78438102Y-63733226D01*
X78638061Y-63773000D01*
X78841939Y-63773000D01*
X79041898Y-63733226D01*
X79230256Y-63655205D01*
X79399774Y-63541937D01*
X79543937Y-63397774D01*
X79657205Y-63228256D01*
X79735226Y-63039898D01*
X79775000Y-62839939D01*
X79775000Y-62636061D01*
X79735226Y-62436102D01*
X79657205Y-62247744D01*
X79543937Y-62078226D01*
X79399774Y-61934063D01*
X79230256Y-61820795D01*
X79041898Y-61742774D01*
X78841939Y-61703000D01*
X78638061Y-61703000D01*
X78438102Y-61742774D01*
X78249744Y-61820795D01*
X78080226Y-61934063D01*
X77936063Y-62078226D01*
X77822795Y-62247744D01*
X77744774Y-62436102D01*
X77705000Y-62636061D01*
X74695000Y-62636061D01*
X74655226Y-62436102D01*
X74577205Y-62247744D01*
X74463937Y-62078226D01*
X74319774Y-61934063D01*
X74150256Y-61820795D01*
X73961898Y-61742774D01*
X73761939Y-61703000D01*
X73558061Y-61703000D01*
X73358102Y-61742774D01*
X73169744Y-61820795D01*
X73000226Y-61934063D01*
X72856063Y-62078226D01*
X72742795Y-62247744D01*
X72664774Y-62436102D01*
X72625000Y-62636061D01*
X70660000Y-62636061D01*
X70660000Y-57641984D01*
X71365000Y-57641984D01*
X71365000Y-58358016D01*
X71504691Y-59060290D01*
X71778705Y-59721818D01*
X72176511Y-60317177D01*
X72682823Y-60823489D01*
X73278182Y-61221295D01*
X73939710Y-61495309D01*
X74641984Y-61635000D01*
X75358016Y-61635000D01*
X76060290Y-61495309D01*
X76721818Y-61221295D01*
X77317177Y-60823489D01*
X77823489Y-60317177D01*
X78221295Y-59721818D01*
X78495309Y-59060290D01*
X78635000Y-58358016D01*
X78635000Y-57641984D01*
X78495309Y-56939710D01*
X78221295Y-56278182D01*
X77823489Y-55682823D01*
X77317177Y-55176511D01*
X76721818Y-54778705D01*
X76060290Y-54504691D01*
X75358016Y-54365000D01*
X74641984Y-54365000D01*
X73939710Y-54504691D01*
X73278182Y-54778705D01*
X72682823Y-55176511D01*
X72176511Y-55682823D01*
X71778705Y-56278182D01*
X71504691Y-56939710D01*
X71365000Y-57641984D01*
X70660000Y-57641984D01*
X70660000Y-55032279D01*
X70688625Y-54740341D01*
X70764035Y-54490571D01*
X70886522Y-54260208D01*
X71051422Y-54058020D01*
X71252450Y-53891714D01*
X71481954Y-53767622D01*
X71731195Y-53690469D01*
X72021088Y-53660000D01*
X117967721Y-53660000D01*
X118259659Y-53688625D01*
G37*
X118259659Y-53688625D02*
X118509429Y-53764035D01*
X118739792Y-53886522D01*
X118941980Y-54051422D01*
X119108286Y-54252450D01*
X119232378Y-54481954D01*
X119309531Y-54731195D01*
X119340000Y-55021088D01*
X119340001Y-100967711D01*
X119311375Y-101259660D01*
X119235965Y-101509429D01*
X119113477Y-101739794D01*
X118948579Y-101941979D01*
X118747546Y-102108288D01*
X118518046Y-102232378D01*
X118268805Y-102309531D01*
X117978911Y-102340000D01*
X112108143Y-102340000D01*
X112108143Y-99556000D01*
X105823857Y-99556000D01*
X105823857Y-102340000D01*
X72032279Y-102340000D01*
X71740340Y-102311375D01*
X71490571Y-102235965D01*
X71260206Y-102113477D01*
X71058021Y-101948579D01*
X70891712Y-101747546D01*
X70767622Y-101518046D01*
X70690469Y-101268805D01*
X70660000Y-100978911D01*
X70660000Y-96641984D01*
X71365000Y-96641984D01*
X71365000Y-97358016D01*
X71504691Y-98060290D01*
X71778705Y-98721818D01*
X72176511Y-99317177D01*
X72682823Y-99823489D01*
X73278182Y-100221295D01*
X73939710Y-100495309D01*
X74641984Y-100635000D01*
X75358016Y-100635000D01*
X76060290Y-100495309D01*
X76721818Y-100221295D01*
X77317177Y-99823489D01*
X77823489Y-99317177D01*
X78221295Y-98721818D01*
X78495309Y-98060290D01*
X78635000Y-97358016D01*
X78635000Y-96641984D01*
X78495309Y-95939710D01*
X78221295Y-95278182D01*
X77823489Y-94682823D01*
X77317177Y-94176511D01*
X76721818Y-93778705D01*
X76060290Y-93504691D01*
X75358016Y-93365000D01*
X74641984Y-93365000D01*
X73939710Y-93504691D01*
X73278182Y-93778705D01*
X72682823Y-94176511D01*
X72176511Y-94682823D01*
X71778705Y-95278182D01*
X71504691Y-95939710D01*
X71365000Y-96641984D01*
X70660000Y-96641984D01*
X70660000Y-89306061D01*
X72371000Y-89306061D01*
X72371000Y-89509939D01*
X72410774Y-89709898D01*
X72488795Y-89898256D01*
X72602063Y-90067774D01*
X72746226Y-90211937D01*
X72915744Y-90325205D01*
X73104102Y-90403226D01*
X73304061Y-90443000D01*
X73507939Y-90443000D01*
X73707898Y-90403226D01*
X73896256Y-90325205D01*
X74065774Y-90211937D01*
X74209937Y-90067774D01*
X74323205Y-89898256D01*
X74401226Y-89709898D01*
X74441000Y-89509939D01*
X74441000Y-89306061D01*
X77705000Y-89306061D01*
X77705000Y-89509939D01*
X77744774Y-89709898D01*
X77822795Y-89898256D01*
X77936063Y-90067774D01*
X78080226Y-90211937D01*
X78249744Y-90325205D01*
X78438102Y-90403226D01*
X78638061Y-90443000D01*
X78841939Y-90443000D01*
X79041898Y-90403226D01*
X79230256Y-90325205D01*
X79399774Y-90211937D01*
X79543937Y-90067774D01*
X79657205Y-89898256D01*
X79735226Y-89709898D01*
X79775000Y-89509939D01*
X79775000Y-89306061D01*
X79735226Y-89106102D01*
X79657205Y-88917744D01*
X79543937Y-88748226D01*
X79399774Y-88604063D01*
X79230256Y-88490795D01*
X79041898Y-88412774D01*
X78841939Y-88373000D01*
X78638061Y-88373000D01*
X78438102Y-88412774D01*
X78249744Y-88490795D01*
X78080226Y-88604063D01*
X77936063Y-88748226D01*
X77822795Y-88917744D01*
X77744774Y-89106102D01*
X77705000Y-89306061D01*
X74441000Y-89306061D01*
X74401226Y-89106102D01*
X74323205Y-88917744D01*
X74209937Y-88748226D01*
X74065774Y-88604063D01*
X73896256Y-88490795D01*
X73707898Y-88412774D01*
X73507939Y-88373000D01*
X73304061Y-88373000D01*
X73104102Y-88412774D01*
X72915744Y-88490795D01*
X72746226Y-88604063D01*
X72602063Y-88748226D01*
X72488795Y-88917744D01*
X72410774Y-89106102D01*
X72371000Y-89306061D01*
X70660000Y-89306061D01*
X70660000Y-66666000D01*
X76108928Y-66666000D01*
X76108928Y-68366000D01*
X76121188Y-68490482D01*
X76157498Y-68610180D01*
X76216463Y-68720494D01*
X76295815Y-68817185D01*
X76392506Y-68896537D01*
X76502820Y-68955502D01*
X76575380Y-68977513D01*
X76443525Y-69109368D01*
X76281010Y-69352589D01*
X76169068Y-69622842D01*
X76112000Y-69909740D01*
X76112000Y-70202260D01*
X76169068Y-70489158D01*
X76281010Y-70759411D01*
X76443525Y-71002632D01*
X76650368Y-71209475D01*
X76824760Y-71326000D01*
X76650368Y-71442525D01*
X76443525Y-71649368D01*
X76281010Y-71892589D01*
X76169068Y-72162842D01*
X76112000Y-72449740D01*
X76112000Y-72742260D01*
X76169068Y-73029158D01*
X76281010Y-73299411D01*
X76443525Y-73542632D01*
X76650368Y-73749475D01*
X76824760Y-73866000D01*
X76650368Y-73982525D01*
X76443525Y-74189368D01*
X76281010Y-74432589D01*
X76169068Y-74702842D01*
X76112000Y-74989740D01*
X76112000Y-75282260D01*
X76169068Y-75569158D01*
X76281010Y-75839411D01*
X76443525Y-76082632D01*
X76650368Y-76289475D01*
X76824760Y-76406000D01*
X76650368Y-76522525D01*
X76443525Y-76729368D01*
X76281010Y-76972589D01*
X76169068Y-77242842D01*
X76112000Y-77529740D01*
X76112000Y-77822260D01*
X76169068Y-78109158D01*
X76281010Y-78379411D01*
X76443525Y-78622632D01*
X76650368Y-78829475D01*
X76824760Y-78946000D01*
X76650368Y-79062525D01*
X76443525Y-79269368D01*
X76281010Y-79512589D01*
X76169068Y-79782842D01*
X76112000Y-80069740D01*
X76112000Y-80362260D01*
X76169068Y-80649158D01*
X76281010Y-80919411D01*
X76443525Y-81162632D01*
X76650368Y-81369475D01*
X76824760Y-81486000D01*
X76650368Y-81602525D01*
X76443525Y-81809368D01*
X76281010Y-82052589D01*
X76169068Y-82322842D01*
X76112000Y-82609740D01*
X76112000Y-82902260D01*
X76169068Y-83189158D01*
X76281010Y-83459411D01*
X76443525Y-83702632D01*
X76650368Y-83909475D01*
X76824760Y-84026000D01*
X76650368Y-84142525D01*
X76443525Y-84349368D01*
X76281010Y-84592589D01*
X76169068Y-84862842D01*
X76112000Y-85149740D01*
X76112000Y-85442260D01*
X76169068Y-85729158D01*
X76281010Y-85999411D01*
X76443525Y-86242632D01*
X76650368Y-86449475D01*
X76893589Y-86611990D01*
X77163842Y-86723932D01*
X77450740Y-86781000D01*
X77743260Y-86781000D01*
X78030158Y-86723932D01*
X78300411Y-86611990D01*
X78543632Y-86449475D01*
X78735046Y-86258061D01*
X86595000Y-86258061D01*
X86595000Y-86461939D01*
X86634774Y-86661898D01*
X86712795Y-86850256D01*
X86826063Y-87019774D01*
X86970226Y-87163937D01*
X87139744Y-87277205D01*
X87328102Y-87355226D01*
X87528061Y-87395000D01*
X87731939Y-87395000D01*
X87931898Y-87355226D01*
X88120256Y-87277205D01*
X88289774Y-87163937D01*
X88433937Y-87019774D01*
X88547205Y-86850256D01*
X88625226Y-86661898D01*
X88665000Y-86461939D01*
X88665000Y-86258061D01*
X88625226Y-86058102D01*
X88547205Y-85869744D01*
X88433937Y-85700226D01*
X88289774Y-85556063D01*
X88120256Y-85442795D01*
X87931898Y-85364774D01*
X87731939Y-85325000D01*
X87528061Y-85325000D01*
X87328102Y-85364774D01*
X87139744Y-85442795D01*
X86970226Y-85556063D01*
X86826063Y-85700226D01*
X86712795Y-85869744D01*
X86634774Y-86058102D01*
X86595000Y-86258061D01*
X78735046Y-86258061D01*
X78750475Y-86242632D01*
X78912990Y-85999411D01*
X79024932Y-85729158D01*
X79082000Y-85442260D01*
X79082000Y-85149740D01*
X79059280Y-85035521D01*
X82102802Y-81992000D01*
X82780099Y-81992000D01*
X82802068Y-82033101D01*
X82981392Y-82251608D01*
X83199899Y-82430932D01*
X83449192Y-82564182D01*
X83719691Y-82646236D01*
X83930508Y-82667000D01*
X84471492Y-82667000D01*
X84682309Y-82646236D01*
X84952808Y-82564182D01*
X85202101Y-82430932D01*
X85420608Y-82251608D01*
X85599932Y-82033101D01*
X85621901Y-81992000D01*
X91910678Y-81992000D01*
X91948000Y-81995676D01*
X91985322Y-81992000D01*
X91985333Y-81992000D01*
X92096986Y-81981003D01*
X92240247Y-81937546D01*
X92372276Y-81866974D01*
X92488001Y-81772001D01*
X92511804Y-81742997D01*
X94171621Y-80083181D01*
X94192063Y-80113774D01*
X94336226Y-80257937D01*
X94505744Y-80371205D01*
X94694102Y-80449226D01*
X94894061Y-80489000D01*
X95097939Y-80489000D01*
X95181000Y-80472478D01*
X95181001Y-83322197D01*
X92707007Y-85796192D01*
X92706996Y-85796201D01*
X90167003Y-88336196D01*
X90137999Y-88359999D01*
X90094688Y-88412774D01*
X90043026Y-88475724D01*
X89993000Y-88569316D01*
X89972454Y-88607754D01*
X89928997Y-88751015D01*
X89918000Y-88862668D01*
X89918000Y-88862678D01*
X89914324Y-88900000D01*
X89918000Y-88937323D01*
X89918000Y-89025727D01*
X89837822Y-89068583D01*
X89608655Y-89256655D01*
X89420583Y-89485821D01*
X89408000Y-89509362D01*
X89395417Y-89485821D01*
X89207345Y-89256655D01*
X88978179Y-89068583D01*
X88716725Y-88928834D01*
X88433032Y-88842776D01*
X88138000Y-88813718D01*
X87842969Y-88842776D01*
X87559276Y-88928834D01*
X87297822Y-89068583D01*
X87068655Y-89256655D01*
X86880583Y-89485821D01*
X86868000Y-89509362D01*
X86855417Y-89485821D01*
X86667345Y-89256655D01*
X86438179Y-89068583D01*
X86176725Y-88928834D01*
X85893032Y-88842776D01*
X85598000Y-88813718D01*
X85302969Y-88842776D01*
X85019276Y-88928834D01*
X84757822Y-89068583D01*
X84528655Y-89256655D01*
X84340583Y-89485821D01*
X84200834Y-89747275D01*
X84114776Y-90030968D01*
X84093000Y-90252064D01*
X84093000Y-90849935D01*
X84114776Y-91071031D01*
X84200834Y-91354724D01*
X84340583Y-91616178D01*
X84429600Y-91724646D01*
X84429600Y-92655406D01*
X84423947Y-92712800D01*
X84429600Y-92770193D01*
X84429600Y-92770195D01*
X84446506Y-92941845D01*
X84513316Y-93162090D01*
X84621811Y-93365069D01*
X84672092Y-93426336D01*
X84767819Y-93542981D01*
X84812409Y-93579575D01*
X85490425Y-94257591D01*
X85527019Y-94302181D01*
X85630078Y-94386759D01*
X85704930Y-94448189D01*
X85871083Y-94537000D01*
X85907909Y-94556684D01*
X86128154Y-94623494D01*
X86299804Y-94640400D01*
X86299807Y-94640400D01*
X86357200Y-94646053D01*
X86414593Y-94640400D01*
X96447703Y-94640400D01*
X96569827Y-94722000D01*
X96367241Y-94857363D01*
X96167363Y-95057241D01*
X96010320Y-95292273D01*
X95902147Y-95553426D01*
X95847000Y-95830665D01*
X95847000Y-96113335D01*
X95902147Y-96390574D01*
X96010320Y-96651727D01*
X96167363Y-96886759D01*
X96367241Y-97086637D01*
X96602273Y-97243680D01*
X96863426Y-97351853D01*
X97140665Y-97407000D01*
X97423335Y-97407000D01*
X97700574Y-97351853D01*
X97961727Y-97243680D01*
X98196759Y-97086637D01*
X98396637Y-96886759D01*
X98553680Y-96651727D01*
X98557715Y-96641984D01*
X111365000Y-96641984D01*
X111365000Y-97358016D01*
X111504691Y-98060290D01*
X111778705Y-98721818D01*
X112176511Y-99317177D01*
X112682823Y-99823489D01*
X113278182Y-100221295D01*
X113939710Y-100495309D01*
X114641984Y-100635000D01*
X115358016Y-100635000D01*
X116060290Y-100495309D01*
X116721818Y-100221295D01*
X117317177Y-99823489D01*
X117823489Y-99317177D01*
X118221295Y-98721818D01*
X118495309Y-98060290D01*
X118635000Y-97358016D01*
X118635000Y-96641984D01*
X118495309Y-95939710D01*
X118221295Y-95278182D01*
X117823489Y-94682823D01*
X117317177Y-94176511D01*
X116721818Y-93778705D01*
X116060290Y-93504691D01*
X115358016Y-93365000D01*
X114641984Y-93365000D01*
X113939710Y-93504691D01*
X113278182Y-93778705D01*
X112682823Y-94176511D01*
X112176511Y-94682823D01*
X111778705Y-95278182D01*
X111504691Y-95939710D01*
X111365000Y-96641984D01*
X98557715Y-96641984D01*
X98661853Y-96390574D01*
X98717000Y-96113335D01*
X98717000Y-95830665D01*
X98661853Y-95553426D01*
X98553680Y-95292273D01*
X98396637Y-95057241D01*
X98196759Y-94857363D01*
X97994173Y-94722000D01*
X98196759Y-94586637D01*
X98396637Y-94386759D01*
X98553680Y-94151727D01*
X98661853Y-93890574D01*
X98698121Y-93708245D01*
X100502596Y-91903771D01*
X100505821Y-91906417D01*
X100767275Y-92046166D01*
X101050968Y-92132224D01*
X101346000Y-92161282D01*
X101641031Y-92132224D01*
X101924724Y-92046166D01*
X102186178Y-91906417D01*
X102415345Y-91718345D01*
X102469066Y-91652886D01*
X102527595Y-91762387D01*
X102638038Y-91896962D01*
X102772613Y-92007405D01*
X102926149Y-92089472D01*
X103092745Y-92140008D01*
X103265999Y-92157072D01*
X104506001Y-92157072D01*
X104679255Y-92140008D01*
X104845851Y-92089472D01*
X104999387Y-92007405D01*
X105133962Y-91896962D01*
X105244405Y-91762387D01*
X105326472Y-91608851D01*
X105377008Y-91442255D01*
X105394072Y-91269001D01*
X105394072Y-89578999D01*
X105377008Y-89405745D01*
X105346770Y-89306061D01*
X110725000Y-89306061D01*
X110725000Y-89509939D01*
X110764774Y-89709898D01*
X110842795Y-89898256D01*
X110956063Y-90067774D01*
X111100226Y-90211937D01*
X111269744Y-90325205D01*
X111458102Y-90403226D01*
X111658061Y-90443000D01*
X111861939Y-90443000D01*
X112061898Y-90403226D01*
X112250256Y-90325205D01*
X112419774Y-90211937D01*
X112563937Y-90067774D01*
X112677205Y-89898256D01*
X112755226Y-89709898D01*
X112795000Y-89509939D01*
X112795000Y-89306061D01*
X115805000Y-89306061D01*
X115805000Y-89509939D01*
X115844774Y-89709898D01*
X115922795Y-89898256D01*
X116036063Y-90067774D01*
X116180226Y-90211937D01*
X116349744Y-90325205D01*
X116538102Y-90403226D01*
X116738061Y-90443000D01*
X116941939Y-90443000D01*
X117141898Y-90403226D01*
X117330256Y-90325205D01*
X117499774Y-90211937D01*
X117643937Y-90067774D01*
X117757205Y-89898256D01*
X117835226Y-89709898D01*
X117875000Y-89509939D01*
X117875000Y-89306061D01*
X117835226Y-89106102D01*
X117757205Y-88917744D01*
X117643937Y-88748226D01*
X117499774Y-88604063D01*
X117330256Y-88490795D01*
X117141898Y-88412774D01*
X116941939Y-88373000D01*
X116738061Y-88373000D01*
X116538102Y-88412774D01*
X116349744Y-88490795D01*
X116180226Y-88604063D01*
X116036063Y-88748226D01*
X115922795Y-88917744D01*
X115844774Y-89106102D01*
X115805000Y-89306061D01*
X112795000Y-89306061D01*
X112755226Y-89106102D01*
X112677205Y-88917744D01*
X112563937Y-88748226D01*
X112419774Y-88604063D01*
X112250256Y-88490795D01*
X112061898Y-88412774D01*
X111861939Y-88373000D01*
X111658061Y-88373000D01*
X111458102Y-88412774D01*
X111269744Y-88490795D01*
X111100226Y-88604063D01*
X110956063Y-88748226D01*
X110842795Y-88917744D01*
X110764774Y-89106102D01*
X110725000Y-89306061D01*
X105346770Y-89306061D01*
X105326472Y-89239149D01*
X105244405Y-89085613D01*
X105133962Y-88951038D01*
X104999387Y-88840595D01*
X104845851Y-88758528D01*
X104679255Y-88707992D01*
X104506001Y-88690928D01*
X103265999Y-88690928D01*
X103092745Y-88707992D01*
X102926149Y-88758528D01*
X102772613Y-88840595D01*
X102638038Y-88951038D01*
X102527595Y-89085613D01*
X102514400Y-89110299D01*
X102514400Y-86258061D01*
X103105000Y-86258061D01*
X103105000Y-86461939D01*
X103144774Y-86661898D01*
X103222795Y-86850256D01*
X103336063Y-87019774D01*
X103480226Y-87163937D01*
X103649744Y-87277205D01*
X103838102Y-87355226D01*
X104038061Y-87395000D01*
X104241939Y-87395000D01*
X104441898Y-87355226D01*
X104630256Y-87277205D01*
X104799774Y-87163937D01*
X104943937Y-87019774D01*
X105057205Y-86850256D01*
X105135226Y-86661898D01*
X105175000Y-86461939D01*
X105175000Y-86258061D01*
X105135226Y-86058102D01*
X105057205Y-85869744D01*
X104943937Y-85700226D01*
X104799774Y-85556063D01*
X104630256Y-85442795D01*
X104441898Y-85364774D01*
X104241939Y-85325000D01*
X104038061Y-85325000D01*
X103838102Y-85364774D01*
X103649744Y-85442795D01*
X103480226Y-85556063D01*
X103336063Y-85700226D01*
X103222795Y-85869744D01*
X103144774Y-86058102D01*
X103105000Y-86258061D01*
X102514400Y-86258061D01*
X102514400Y-85364166D01*
X105478167Y-82400400D01*
X106022696Y-82400400D01*
X106059899Y-82430932D01*
X106309192Y-82564182D01*
X106579691Y-82646236D01*
X106790508Y-82667000D01*
X107331492Y-82667000D01*
X107542309Y-82646236D01*
X107812808Y-82564182D01*
X108062101Y-82430932D01*
X108099304Y-82400400D01*
X108990034Y-82400400D01*
X112216776Y-85627143D01*
X112237068Y-85729158D01*
X112349010Y-85999411D01*
X112511525Y-86242632D01*
X112718368Y-86449475D01*
X112961589Y-86611990D01*
X113231842Y-86723932D01*
X113518740Y-86781000D01*
X113811260Y-86781000D01*
X114098158Y-86723932D01*
X114368411Y-86611990D01*
X114611632Y-86449475D01*
X114818475Y-86242632D01*
X114980990Y-85999411D01*
X115092932Y-85729158D01*
X115150000Y-85442260D01*
X115150000Y-85149740D01*
X115092932Y-84862842D01*
X114980990Y-84592589D01*
X114818475Y-84349368D01*
X114611632Y-84142525D01*
X114437240Y-84026000D01*
X114611632Y-83909475D01*
X114818475Y-83702632D01*
X114980990Y-83459411D01*
X115092932Y-83189158D01*
X115150000Y-82902260D01*
X115150000Y-82609740D01*
X115092932Y-82322842D01*
X114980990Y-82052589D01*
X114818475Y-81809368D01*
X114611632Y-81602525D01*
X114437240Y-81486000D01*
X114611632Y-81369475D01*
X114818475Y-81162632D01*
X114980990Y-80919411D01*
X115092932Y-80649158D01*
X115150000Y-80362260D01*
X115150000Y-80069740D01*
X115092932Y-79782842D01*
X114980990Y-79512589D01*
X114818475Y-79269368D01*
X114611632Y-79062525D01*
X114437240Y-78946000D01*
X114611632Y-78829475D01*
X114818475Y-78622632D01*
X114980990Y-78379411D01*
X115092932Y-78109158D01*
X115150000Y-77822260D01*
X115150000Y-77529740D01*
X115092932Y-77242842D01*
X114980990Y-76972589D01*
X114818475Y-76729368D01*
X114611632Y-76522525D01*
X114437240Y-76406000D01*
X114611632Y-76289475D01*
X114818475Y-76082632D01*
X114980990Y-75839411D01*
X115092932Y-75569158D01*
X115150000Y-75282260D01*
X115150000Y-74989740D01*
X115092932Y-74702842D01*
X114980990Y-74432589D01*
X114818475Y-74189368D01*
X114611632Y-73982525D01*
X114437240Y-73866000D01*
X114611632Y-73749475D01*
X114818475Y-73542632D01*
X114980990Y-73299411D01*
X115092932Y-73029158D01*
X115150000Y-72742260D01*
X115150000Y-72449740D01*
X115092932Y-72162842D01*
X114980990Y-71892589D01*
X114818475Y-71649368D01*
X114611632Y-71442525D01*
X114437240Y-71326000D01*
X114611632Y-71209475D01*
X114818475Y-71002632D01*
X114980990Y-70759411D01*
X115092932Y-70489158D01*
X115150000Y-70202260D01*
X115150000Y-69909740D01*
X115092932Y-69622842D01*
X114980990Y-69352589D01*
X114818475Y-69109368D01*
X114686620Y-68977513D01*
X114759180Y-68955502D01*
X114869494Y-68896537D01*
X114966185Y-68817185D01*
X115045537Y-68720494D01*
X115104502Y-68610180D01*
X115140812Y-68490482D01*
X115153072Y-68366000D01*
X115153072Y-66666000D01*
X115140812Y-66541518D01*
X115104502Y-66421820D01*
X115045537Y-66311506D01*
X114966185Y-66214815D01*
X114869494Y-66135463D01*
X114759180Y-66076498D01*
X114639482Y-66040188D01*
X114515000Y-66027928D01*
X113124730Y-66027928D01*
X110037804Y-62941003D01*
X110014001Y-62911999D01*
X109898276Y-62817026D01*
X109766247Y-62746454D01*
X109622986Y-62702997D01*
X109511333Y-62692000D01*
X109511322Y-62692000D01*
X109474000Y-62688324D01*
X109436678Y-62692000D01*
X108481901Y-62692000D01*
X108459932Y-62650899D01*
X108447755Y-62636061D01*
X110979000Y-62636061D01*
X110979000Y-62839939D01*
X111018774Y-63039898D01*
X111096795Y-63228256D01*
X111210063Y-63397774D01*
X111354226Y-63541937D01*
X111523744Y-63655205D01*
X111712102Y-63733226D01*
X111912061Y-63773000D01*
X112115939Y-63773000D01*
X112315898Y-63733226D01*
X112504256Y-63655205D01*
X112673774Y-63541937D01*
X112817937Y-63397774D01*
X112931205Y-63228256D01*
X113009226Y-63039898D01*
X113049000Y-62839939D01*
X113049000Y-62636061D01*
X115805000Y-62636061D01*
X115805000Y-62839939D01*
X115844774Y-63039898D01*
X115922795Y-63228256D01*
X116036063Y-63397774D01*
X116180226Y-63541937D01*
X116349744Y-63655205D01*
X116538102Y-63733226D01*
X116738061Y-63773000D01*
X116941939Y-63773000D01*
X117141898Y-63733226D01*
X117330256Y-63655205D01*
X117499774Y-63541937D01*
X117643937Y-63397774D01*
X117757205Y-63228256D01*
X117835226Y-63039898D01*
X117875000Y-62839939D01*
X117875000Y-62636061D01*
X117835226Y-62436102D01*
X117757205Y-62247744D01*
X117643937Y-62078226D01*
X117499774Y-61934063D01*
X117330256Y-61820795D01*
X117141898Y-61742774D01*
X116941939Y-61703000D01*
X116738061Y-61703000D01*
X116538102Y-61742774D01*
X116349744Y-61820795D01*
X116180226Y-61934063D01*
X116036063Y-62078226D01*
X115922795Y-62247744D01*
X115844774Y-62436102D01*
X115805000Y-62636061D01*
X113049000Y-62636061D01*
X113009226Y-62436102D01*
X112931205Y-62247744D01*
X112817937Y-62078226D01*
X112673774Y-61934063D01*
X112504256Y-61820795D01*
X112315898Y-61742774D01*
X112115939Y-61703000D01*
X111912061Y-61703000D01*
X111712102Y-61742774D01*
X111523744Y-61820795D01*
X111354226Y-61934063D01*
X111210063Y-62078226D01*
X111096795Y-62247744D01*
X111018774Y-62436102D01*
X110979000Y-62636061D01*
X108447755Y-62636061D01*
X108280608Y-62432392D01*
X108062101Y-62253068D01*
X107812808Y-62119818D01*
X107599129Y-62055000D01*
X108458000Y-62055000D01*
X108482776Y-62052560D01*
X108506601Y-62045333D01*
X108528557Y-62033597D01*
X108547803Y-62017803D01*
X108563597Y-61998557D01*
X108575333Y-61976601D01*
X108582560Y-61952776D01*
X108585000Y-61928000D01*
X108585000Y-57641984D01*
X111365000Y-57641984D01*
X111365000Y-58358016D01*
X111504691Y-59060290D01*
X111778705Y-59721818D01*
X112176511Y-60317177D01*
X112682823Y-60823489D01*
X113278182Y-61221295D01*
X113939710Y-61495309D01*
X114641984Y-61635000D01*
X115358016Y-61635000D01*
X116060290Y-61495309D01*
X116721818Y-61221295D01*
X117317177Y-60823489D01*
X117823489Y-60317177D01*
X118221295Y-59721818D01*
X118495309Y-59060290D01*
X118635000Y-58358016D01*
X118635000Y-57641984D01*
X118495309Y-56939710D01*
X118221295Y-56278182D01*
X117823489Y-55682823D01*
X117317177Y-55176511D01*
X116721818Y-54778705D01*
X116060290Y-54504691D01*
X115358016Y-54365000D01*
X114641984Y-54365000D01*
X113939710Y-54504691D01*
X113278182Y-54778705D01*
X112682823Y-55176511D01*
X112176511Y-55682823D01*
X111778705Y-56278182D01*
X111504691Y-56939710D01*
X111365000Y-57641984D01*
X108585000Y-57641984D01*
X108585000Y-55070000D01*
X108582560Y-55045224D01*
X108575333Y-55021399D01*
X108563597Y-54999443D01*
X108547803Y-54980197D01*
X108528557Y-54964403D01*
X108506601Y-54952667D01*
X108482776Y-54945440D01*
X108458000Y-54943000D01*
X82804000Y-54943000D01*
X82779224Y-54945440D01*
X82755399Y-54952667D01*
X82733443Y-54964403D01*
X82714197Y-54980197D01*
X82698403Y-54999443D01*
X82686667Y-55021399D01*
X82679440Y-55045224D01*
X82677000Y-55070000D01*
X82677000Y-61928000D01*
X82679440Y-61952776D01*
X82686667Y-61976601D01*
X82698403Y-61998557D01*
X82714197Y-62017803D01*
X82727150Y-62028433D01*
X82670463Y-62097506D01*
X82611498Y-62207820D01*
X82575188Y-62327518D01*
X82562928Y-62452000D01*
X82562928Y-62692000D01*
X81825323Y-62692000D01*
X81788000Y-62688324D01*
X81750677Y-62692000D01*
X81750667Y-62692000D01*
X81639014Y-62702997D01*
X81495753Y-62746454D01*
X81363723Y-62817026D01*
X81280083Y-62885668D01*
X81247999Y-62911999D01*
X81224201Y-62940997D01*
X78137271Y-66027928D01*
X76747000Y-66027928D01*
X76622518Y-66040188D01*
X76502820Y-66076498D01*
X76392506Y-66135463D01*
X76295815Y-66214815D01*
X76216463Y-66311506D01*
X76157498Y-66421820D01*
X76121188Y-66541518D01*
X76108928Y-66666000D01*
X70660000Y-66666000D01*
X70660000Y-62636061D01*
X72625000Y-62636061D01*
X72625000Y-62839939D01*
X72664774Y-63039898D01*
X72742795Y-63228256D01*
X72856063Y-63397774D01*
X73000226Y-63541937D01*
X73169744Y-63655205D01*
X73358102Y-63733226D01*
X73558061Y-63773000D01*
X73761939Y-63773000D01*
X73961898Y-63733226D01*
X74150256Y-63655205D01*
X74319774Y-63541937D01*
X74463937Y-63397774D01*
X74577205Y-63228256D01*
X74655226Y-63039898D01*
X74695000Y-62839939D01*
X74695000Y-62636061D01*
X77705000Y-62636061D01*
X77705000Y-62839939D01*
X77744774Y-63039898D01*
X77822795Y-63228256D01*
X77936063Y-63397774D01*
X78080226Y-63541937D01*
X78249744Y-63655205D01*
X78438102Y-63733226D01*
X78638061Y-63773000D01*
X78841939Y-63773000D01*
X79041898Y-63733226D01*
X79230256Y-63655205D01*
X79399774Y-63541937D01*
X79543937Y-63397774D01*
X79657205Y-63228256D01*
X79735226Y-63039898D01*
X79775000Y-62839939D01*
X79775000Y-62636061D01*
X79735226Y-62436102D01*
X79657205Y-62247744D01*
X79543937Y-62078226D01*
X79399774Y-61934063D01*
X79230256Y-61820795D01*
X79041898Y-61742774D01*
X78841939Y-61703000D01*
X78638061Y-61703000D01*
X78438102Y-61742774D01*
X78249744Y-61820795D01*
X78080226Y-61934063D01*
X77936063Y-62078226D01*
X77822795Y-62247744D01*
X77744774Y-62436102D01*
X77705000Y-62636061D01*
X74695000Y-62636061D01*
X74655226Y-62436102D01*
X74577205Y-62247744D01*
X74463937Y-62078226D01*
X74319774Y-61934063D01*
X74150256Y-61820795D01*
X73961898Y-61742774D01*
X73761939Y-61703000D01*
X73558061Y-61703000D01*
X73358102Y-61742774D01*
X73169744Y-61820795D01*
X73000226Y-61934063D01*
X72856063Y-62078226D01*
X72742795Y-62247744D01*
X72664774Y-62436102D01*
X72625000Y-62636061D01*
X70660000Y-62636061D01*
X70660000Y-57641984D01*
X71365000Y-57641984D01*
X71365000Y-58358016D01*
X71504691Y-59060290D01*
X71778705Y-59721818D01*
X72176511Y-60317177D01*
X72682823Y-60823489D01*
X73278182Y-61221295D01*
X73939710Y-61495309D01*
X74641984Y-61635000D01*
X75358016Y-61635000D01*
X76060290Y-61495309D01*
X76721818Y-61221295D01*
X77317177Y-60823489D01*
X77823489Y-60317177D01*
X78221295Y-59721818D01*
X78495309Y-59060290D01*
X78635000Y-58358016D01*
X78635000Y-57641984D01*
X78495309Y-56939710D01*
X78221295Y-56278182D01*
X77823489Y-55682823D01*
X77317177Y-55176511D01*
X76721818Y-54778705D01*
X76060290Y-54504691D01*
X75358016Y-54365000D01*
X74641984Y-54365000D01*
X73939710Y-54504691D01*
X73278182Y-54778705D01*
X72682823Y-55176511D01*
X72176511Y-55682823D01*
X71778705Y-56278182D01*
X71504691Y-56939710D01*
X71365000Y-57641984D01*
X70660000Y-57641984D01*
X70660000Y-55032279D01*
X70688625Y-54740341D01*
X70764035Y-54490571D01*
X70886522Y-54260208D01*
X71051422Y-54058020D01*
X71252450Y-53891714D01*
X71481954Y-53767622D01*
X71731195Y-53690469D01*
X72021088Y-53660000D01*
X117967721Y-53660000D01*
X118259659Y-53688625D01*
G36*
X99416226Y-78225937D02*
G01*
X99585744Y-78339205D01*
X99774102Y-78417226D01*
X99974061Y-78457000D01*
X100177601Y-78457000D01*
X100177600Y-84822804D01*
X100171947Y-84880200D01*
X100177600Y-84937593D01*
X100177600Y-85238605D01*
X100177601Y-89170033D01*
X100133232Y-89214402D01*
X100080440Y-89278729D01*
X99930290Y-89324276D01*
X99880709Y-89339316D01*
X99677730Y-89447811D01*
X99658249Y-89463799D01*
X99499819Y-89593819D01*
X99463230Y-89638403D01*
X97045755Y-92055879D01*
X96863426Y-92092147D01*
X96602273Y-92200320D01*
X96447703Y-92303600D01*
X86841166Y-92303600D01*
X86766400Y-92228834D01*
X86766400Y-91724646D01*
X86855417Y-91616179D01*
X86868000Y-91592637D01*
X86880583Y-91616178D01*
X87068655Y-91845345D01*
X87297821Y-92033417D01*
X87559275Y-92173166D01*
X87842968Y-92259224D01*
X88138000Y-92288282D01*
X88433031Y-92259224D01*
X88716724Y-92173166D01*
X88978178Y-92033417D01*
X89207345Y-91845345D01*
X89395417Y-91616179D01*
X89408000Y-91592637D01*
X89420583Y-91616178D01*
X89608655Y-91845345D01*
X89837821Y-92033417D01*
X90099275Y-92173166D01*
X90382968Y-92259224D01*
X90678000Y-92288282D01*
X90973031Y-92259224D01*
X91256724Y-92173166D01*
X91518178Y-92033417D01*
X91747345Y-91845345D01*
X91801066Y-91779886D01*
X91859595Y-91889387D01*
X91970038Y-92023962D01*
X92104613Y-92134405D01*
X92258149Y-92216472D01*
X92424745Y-92267008D01*
X92597999Y-92284072D01*
X93838001Y-92284072D01*
X94011255Y-92267008D01*
X94177851Y-92216472D01*
X94331387Y-92134405D01*
X94465962Y-92023962D01*
X94576405Y-91889387D01*
X94658472Y-91735851D01*
X94709008Y-91569255D01*
X94726072Y-91396001D01*
X94726072Y-89705999D01*
X94709008Y-89532745D01*
X94658472Y-89366149D01*
X94576405Y-89212613D01*
X94465962Y-89078038D01*
X94331387Y-88967595D01*
X94177851Y-88885528D01*
X94011255Y-88834992D01*
X93978000Y-88831717D01*
X93978000Y-87436801D01*
X97102003Y-84312799D01*
X97131001Y-84289001D01*
X97225974Y-84173276D01*
X97296546Y-84041247D01*
X97340003Y-83897986D01*
X97351000Y-83786333D01*
X97351000Y-83786324D01*
X97354676Y-83749001D01*
X97351000Y-83711678D01*
X97351000Y-80472478D01*
X97434061Y-80489000D01*
X97637939Y-80489000D01*
X97837898Y-80449226D01*
X98026256Y-80371205D01*
X98195774Y-80257937D01*
X98339937Y-80113774D01*
X98453205Y-79944256D01*
X98531226Y-79755898D01*
X98571000Y-79555939D01*
X98571000Y-79490262D01*
X98625973Y-79423277D01*
X98696545Y-79291248D01*
X98740002Y-79147987D01*
X98750999Y-79036334D01*
X98750999Y-79036326D01*
X98754675Y-78999001D01*
X98750999Y-78961676D01*
X98750999Y-78789072D01*
X98766000Y-78789072D01*
X98890482Y-78776812D01*
X99010180Y-78740502D01*
X99120494Y-78681537D01*
X99217185Y-78602185D01*
X99296537Y-78505494D01*
X99355502Y-78395180D01*
X99391812Y-78275482D01*
X99398443Y-78208154D01*
X99416226Y-78225937D01*
G37*
X99416226Y-78225937D02*
X99585744Y-78339205D01*
X99774102Y-78417226D01*
X99974061Y-78457000D01*
X100177601Y-78457000D01*
X100177600Y-84822804D01*
X100171947Y-84880200D01*
X100177600Y-84937593D01*
X100177600Y-85238605D01*
X100177601Y-89170033D01*
X100133232Y-89214402D01*
X100080440Y-89278729D01*
X99930290Y-89324276D01*
X99880709Y-89339316D01*
X99677730Y-89447811D01*
X99658249Y-89463799D01*
X99499819Y-89593819D01*
X99463230Y-89638403D01*
X97045755Y-92055879D01*
X96863426Y-92092147D01*
X96602273Y-92200320D01*
X96447703Y-92303600D01*
X86841166Y-92303600D01*
X86766400Y-92228834D01*
X86766400Y-91724646D01*
X86855417Y-91616179D01*
X86868000Y-91592637D01*
X86880583Y-91616178D01*
X87068655Y-91845345D01*
X87297821Y-92033417D01*
X87559275Y-92173166D01*
X87842968Y-92259224D01*
X88138000Y-92288282D01*
X88433031Y-92259224D01*
X88716724Y-92173166D01*
X88978178Y-92033417D01*
X89207345Y-91845345D01*
X89395417Y-91616179D01*
X89408000Y-91592637D01*
X89420583Y-91616178D01*
X89608655Y-91845345D01*
X89837821Y-92033417D01*
X90099275Y-92173166D01*
X90382968Y-92259224D01*
X90678000Y-92288282D01*
X90973031Y-92259224D01*
X91256724Y-92173166D01*
X91518178Y-92033417D01*
X91747345Y-91845345D01*
X91801066Y-91779886D01*
X91859595Y-91889387D01*
X91970038Y-92023962D01*
X92104613Y-92134405D01*
X92258149Y-92216472D01*
X92424745Y-92267008D01*
X92597999Y-92284072D01*
X93838001Y-92284072D01*
X94011255Y-92267008D01*
X94177851Y-92216472D01*
X94331387Y-92134405D01*
X94465962Y-92023962D01*
X94576405Y-91889387D01*
X94658472Y-91735851D01*
X94709008Y-91569255D01*
X94726072Y-91396001D01*
X94726072Y-89705999D01*
X94709008Y-89532745D01*
X94658472Y-89366149D01*
X94576405Y-89212613D01*
X94465962Y-89078038D01*
X94331387Y-88967595D01*
X94177851Y-88885528D01*
X94011255Y-88834992D01*
X93978000Y-88831717D01*
X93978000Y-87436801D01*
X97102003Y-84312799D01*
X97131001Y-84289001D01*
X97225974Y-84173276D01*
X97296546Y-84041247D01*
X97340003Y-83897986D01*
X97351000Y-83786333D01*
X97351000Y-83786324D01*
X97354676Y-83749001D01*
X97351000Y-83711678D01*
X97351000Y-80472478D01*
X97434061Y-80489000D01*
X97637939Y-80489000D01*
X97837898Y-80449226D01*
X98026256Y-80371205D01*
X98195774Y-80257937D01*
X98339937Y-80113774D01*
X98453205Y-79944256D01*
X98531226Y-79755898D01*
X98571000Y-79555939D01*
X98571000Y-79490262D01*
X98625973Y-79423277D01*
X98696545Y-79291248D01*
X98740002Y-79147987D01*
X98750999Y-79036334D01*
X98750999Y-79036326D01*
X98754675Y-78999001D01*
X98750999Y-78961676D01*
X98750999Y-78789072D01*
X98766000Y-78789072D01*
X98890482Y-78776812D01*
X99010180Y-78740502D01*
X99120494Y-78681537D01*
X99217185Y-78602185D01*
X99296537Y-78505494D01*
X99355502Y-78395180D01*
X99391812Y-78275482D01*
X99398443Y-78208154D01*
X99416226Y-78225937D01*
G36*
X92458000Y-88831717D02*
G01*
X92424745Y-88834992D01*
X92258149Y-88885528D01*
X92104613Y-88967595D01*
X91970038Y-89078038D01*
X91859595Y-89212613D01*
X91801066Y-89322114D01*
X91747345Y-89256655D01*
X91554451Y-89098351D01*
X92458000Y-88194802D01*
X92458000Y-88831717D01*
G37*
X92458000Y-88831717D02*
X92424745Y-88834992D01*
X92258149Y-88885528D01*
X92104613Y-88967595D01*
X91970038Y-89078038D01*
X91859595Y-89212613D01*
X91801066Y-89322114D01*
X91747345Y-89256655D01*
X91554451Y-89098351D01*
X92458000Y-88194802D01*
X92458000Y-88831717D01*
G36*
X82802068Y-79493101D02*
G01*
X82981392Y-79711608D01*
X83199899Y-79890932D01*
X83332858Y-79962000D01*
X83199899Y-80033068D01*
X82981392Y-80212392D01*
X82802068Y-80430899D01*
X82780099Y-80472000D01*
X81825323Y-80472000D01*
X81788000Y-80468324D01*
X81750677Y-80472000D01*
X81750667Y-80472000D01*
X81639014Y-80482997D01*
X81495753Y-80526454D01*
X81363723Y-80597026D01*
X81300201Y-80649158D01*
X81247999Y-80691999D01*
X81224201Y-80720997D01*
X79082000Y-82863199D01*
X79082000Y-82609740D01*
X79024932Y-82322842D01*
X79011174Y-82289627D01*
X81848802Y-79452000D01*
X82780099Y-79452000D01*
X82802068Y-79493101D01*
G37*
X82802068Y-79493101D02*
X82981392Y-79711608D01*
X83199899Y-79890932D01*
X83332858Y-79962000D01*
X83199899Y-80033068D01*
X82981392Y-80212392D01*
X82802068Y-80430899D01*
X82780099Y-80472000D01*
X81825323Y-80472000D01*
X81788000Y-80468324D01*
X81750677Y-80472000D01*
X81750667Y-80472000D01*
X81639014Y-80482997D01*
X81495753Y-80526454D01*
X81363723Y-80597026D01*
X81300201Y-80649158D01*
X81247999Y-80691999D01*
X81224201Y-80720997D01*
X79082000Y-82863199D01*
X79082000Y-82609740D01*
X79024932Y-82322842D01*
X79011174Y-82289627D01*
X81848802Y-79452000D01*
X82780099Y-79452000D01*
X82802068Y-79493101D01*
G36*
X112250826Y-79749628D02*
G01*
X112237068Y-79782842D01*
X112180000Y-80069740D01*
X112180000Y-80362260D01*
X112237068Y-80649158D01*
X112349010Y-80919411D01*
X112511525Y-81162632D01*
X112718368Y-81369475D01*
X112892760Y-81486000D01*
X112718368Y-81602525D01*
X112511525Y-81809368D01*
X112349010Y-82052589D01*
X112237068Y-82322842D01*
X112233773Y-82339407D01*
X110340774Y-80446408D01*
X110304181Y-80401819D01*
X110126269Y-80255811D01*
X109923291Y-80147316D01*
X109703046Y-80080506D01*
X109531396Y-80063600D01*
X109531393Y-80063600D01*
X109474000Y-80057947D01*
X109416607Y-80063600D01*
X108099304Y-80063600D01*
X108062101Y-80033068D01*
X107929142Y-79962000D01*
X108062101Y-79890932D01*
X108280608Y-79711608D01*
X108459932Y-79493101D01*
X108593182Y-79243808D01*
X108675236Y-78973309D01*
X108702943Y-78692000D01*
X108675236Y-78410691D01*
X108593182Y-78140192D01*
X108459932Y-77890899D01*
X108280608Y-77672392D01*
X108062101Y-77493068D01*
X107929142Y-77422000D01*
X108062101Y-77350932D01*
X108280608Y-77171608D01*
X108459932Y-76953101D01*
X108481901Y-76912000D01*
X109413199Y-76912000D01*
X112250826Y-79749628D01*
G37*
X112250826Y-79749628D02*
X112237068Y-79782842D01*
X112180000Y-80069740D01*
X112180000Y-80362260D01*
X112237068Y-80649158D01*
X112349010Y-80919411D01*
X112511525Y-81162632D01*
X112718368Y-81369475D01*
X112892760Y-81486000D01*
X112718368Y-81602525D01*
X112511525Y-81809368D01*
X112349010Y-82052589D01*
X112237068Y-82322842D01*
X112233773Y-82339407D01*
X110340774Y-80446408D01*
X110304181Y-80401819D01*
X110126269Y-80255811D01*
X109923291Y-80147316D01*
X109703046Y-80080506D01*
X109531396Y-80063600D01*
X109531393Y-80063600D01*
X109474000Y-80057947D01*
X109416607Y-80063600D01*
X108099304Y-80063600D01*
X108062101Y-80033068D01*
X107929142Y-79962000D01*
X108062101Y-79890932D01*
X108280608Y-79711608D01*
X108459932Y-79493101D01*
X108593182Y-79243808D01*
X108675236Y-78973309D01*
X108702943Y-78692000D01*
X108675236Y-78410691D01*
X108593182Y-78140192D01*
X108459932Y-77890899D01*
X108280608Y-77672392D01*
X108062101Y-77493068D01*
X107929142Y-77422000D01*
X108062101Y-77350932D01*
X108280608Y-77171608D01*
X108459932Y-76953101D01*
X108481901Y-76912000D01*
X109413199Y-76912000D01*
X112250826Y-79749628D01*
G36*
X105528818Y-76703808D02*
G01*
X105662068Y-76953101D01*
X105841392Y-77171608D01*
X106059899Y-77350932D01*
X106192858Y-77422000D01*
X106059899Y-77493068D01*
X105841392Y-77672392D01*
X105662068Y-77890899D01*
X105528818Y-78140192D01*
X105446764Y-78410691D01*
X105419057Y-78692000D01*
X105446764Y-78973309D01*
X105528818Y-79243808D01*
X105662068Y-79493101D01*
X105841392Y-79711608D01*
X106059899Y-79890932D01*
X106192858Y-79962000D01*
X106059899Y-80033068D01*
X106022696Y-80063600D01*
X105051593Y-80063600D01*
X104994200Y-80057947D01*
X104936807Y-80063600D01*
X104936804Y-80063600D01*
X104765154Y-80080506D01*
X104544909Y-80147316D01*
X104341930Y-80255811D01*
X104248482Y-80332502D01*
X104164019Y-80401819D01*
X104127430Y-80446403D01*
X102514400Y-82059433D01*
X102514400Y-76851099D01*
X102616102Y-76893226D01*
X102816061Y-76933000D01*
X103019939Y-76933000D01*
X103219898Y-76893226D01*
X103408256Y-76815205D01*
X103577774Y-76701937D01*
X103621711Y-76658000D01*
X105514922Y-76658000D01*
X105528818Y-76703808D01*
G37*
X105528818Y-76703808D02*
X105662068Y-76953101D01*
X105841392Y-77171608D01*
X106059899Y-77350932D01*
X106192858Y-77422000D01*
X106059899Y-77493068D01*
X105841392Y-77672392D01*
X105662068Y-77890899D01*
X105528818Y-78140192D01*
X105446764Y-78410691D01*
X105419057Y-78692000D01*
X105446764Y-78973309D01*
X105528818Y-79243808D01*
X105662068Y-79493101D01*
X105841392Y-79711608D01*
X106059899Y-79890932D01*
X106192858Y-79962000D01*
X106059899Y-80033068D01*
X106022696Y-80063600D01*
X105051593Y-80063600D01*
X104994200Y-80057947D01*
X104936807Y-80063600D01*
X104936804Y-80063600D01*
X104765154Y-80080506D01*
X104544909Y-80147316D01*
X104341930Y-80255811D01*
X104248482Y-80332502D01*
X104164019Y-80401819D01*
X104127430Y-80446403D01*
X102514400Y-82059433D01*
X102514400Y-76851099D01*
X102616102Y-76893226D01*
X102816061Y-76933000D01*
X103019939Y-76933000D01*
X103219898Y-76893226D01*
X103408256Y-76815205D01*
X103577774Y-76701937D01*
X103621711Y-76658000D01*
X105514922Y-76658000D01*
X105528818Y-76703808D01*
G36*
X106309192Y-62119818D02*
G01*
X106059899Y-62253068D01*
X105841392Y-62432392D01*
X105662068Y-62650899D01*
X105528818Y-62900192D01*
X105446764Y-63170691D01*
X105419057Y-63452000D01*
X105446764Y-63733309D01*
X105528818Y-64003808D01*
X105662068Y-64253101D01*
X105841392Y-64471608D01*
X106059899Y-64650932D01*
X106192858Y-64722000D01*
X106059899Y-64793068D01*
X105841392Y-64972392D01*
X105662068Y-65190899D01*
X105528818Y-65440192D01*
X105446764Y-65710691D01*
X105419057Y-65992000D01*
X105440051Y-66205148D01*
X100798199Y-70847000D01*
X100736061Y-70847000D01*
X100536102Y-70886774D01*
X100347744Y-70964795D01*
X100178226Y-71078063D01*
X100034063Y-71222226D01*
X99920795Y-71391744D01*
X99842774Y-71580102D01*
X99803000Y-71780061D01*
X99803000Y-71983939D01*
X99842774Y-72183898D01*
X99920795Y-72372256D01*
X100034063Y-72541774D01*
X100178226Y-72685937D01*
X100195681Y-72697600D01*
X99300756Y-72697600D01*
X99355502Y-72595180D01*
X99391812Y-72475482D01*
X99404072Y-72351000D01*
X99404072Y-70851000D01*
X99391812Y-70726518D01*
X99355502Y-70606820D01*
X99296537Y-70496506D01*
X99217185Y-70399815D01*
X99120494Y-70320463D01*
X99010180Y-70261498D01*
X98890482Y-70225188D01*
X98766000Y-70212928D01*
X98316000Y-70212928D01*
X98216000Y-70222777D01*
X98116000Y-70212928D01*
X97666000Y-70212928D01*
X97566000Y-70222777D01*
X97466000Y-70212928D01*
X97016000Y-70212928D01*
X96916000Y-70222777D01*
X96816000Y-70212928D01*
X96366000Y-70212928D01*
X96266000Y-70222777D01*
X96166000Y-70212928D01*
X95716000Y-70212928D01*
X95616000Y-70222777D01*
X95516000Y-70212928D01*
X95066000Y-70212928D01*
X94966000Y-70222777D01*
X94866000Y-70212928D01*
X94740000Y-70212928D01*
X94740000Y-69623043D01*
X94894759Y-69519637D01*
X95094637Y-69319759D01*
X95251680Y-69084727D01*
X95359853Y-68823574D01*
X95415000Y-68546335D01*
X95415000Y-68263665D01*
X97545000Y-68263665D01*
X97545000Y-68546335D01*
X97600147Y-68823574D01*
X97708320Y-69084727D01*
X97865363Y-69319759D01*
X98065241Y-69519637D01*
X98300273Y-69676680D01*
X98561426Y-69784853D01*
X98838665Y-69840000D01*
X99121335Y-69840000D01*
X99398574Y-69784853D01*
X99659727Y-69676680D01*
X99894759Y-69519637D01*
X100094637Y-69319759D01*
X100251680Y-69084727D01*
X100359853Y-68823574D01*
X100415000Y-68546335D01*
X100415000Y-68263665D01*
X100359853Y-67986426D01*
X100251680Y-67725273D01*
X100094637Y-67490241D01*
X99894759Y-67290363D01*
X99659727Y-67133320D01*
X99398574Y-67025147D01*
X99121335Y-66970000D01*
X98838665Y-66970000D01*
X98561426Y-67025147D01*
X98300273Y-67133320D01*
X98065241Y-67290363D01*
X97865363Y-67490241D01*
X97708320Y-67725273D01*
X97600147Y-67986426D01*
X97545000Y-68263665D01*
X95415000Y-68263665D01*
X95359853Y-67986426D01*
X95251680Y-67725273D01*
X95094637Y-67490241D01*
X94894759Y-67290363D01*
X94659727Y-67133320D01*
X94398574Y-67025147D01*
X94121335Y-66970000D01*
X93838665Y-66970000D01*
X93561426Y-67025147D01*
X93300273Y-67133320D01*
X93065241Y-67290363D01*
X92865363Y-67490241D01*
X92708320Y-67725273D01*
X92600147Y-67986426D01*
X92545000Y-68263665D01*
X92545000Y-68546335D01*
X92600147Y-68823574D01*
X92708320Y-69084727D01*
X92865363Y-69319759D01*
X93065241Y-69519637D01*
X93220000Y-69623044D01*
X93220001Y-70525434D01*
X93176498Y-70606820D01*
X93140188Y-70726518D01*
X93127928Y-70851000D01*
X93127928Y-72351000D01*
X93140188Y-72475482D01*
X93176498Y-72595180D01*
X93231001Y-72697145D01*
X93231001Y-73263889D01*
X93149316Y-73416709D01*
X93082506Y-73636954D01*
X93059947Y-73866000D01*
X93082506Y-74095046D01*
X93149316Y-74315291D01*
X93257811Y-74518269D01*
X93403819Y-74696181D01*
X93581731Y-74842189D01*
X93784709Y-74950684D01*
X94004954Y-75017494D01*
X94176604Y-75034400D01*
X94933518Y-75034400D01*
X94844226Y-75094063D01*
X94700063Y-75238226D01*
X94586795Y-75407744D01*
X94508774Y-75596102D01*
X94469000Y-75796061D01*
X94469000Y-75999939D01*
X94471584Y-76012928D01*
X94416000Y-76012928D01*
X94316000Y-76022777D01*
X94216000Y-76012928D01*
X93766000Y-76012928D01*
X93641518Y-76025188D01*
X93521820Y-76061498D01*
X93411506Y-76120463D01*
X93314815Y-76199815D01*
X93235463Y-76296506D01*
X93176498Y-76406820D01*
X93140188Y-76526518D01*
X93127928Y-76651000D01*
X93127928Y-78151000D01*
X93140188Y-78275482D01*
X93176498Y-78395180D01*
X93220000Y-78476566D01*
X93220000Y-78885198D01*
X91633199Y-80472000D01*
X85621901Y-80472000D01*
X85599932Y-80430899D01*
X85420608Y-80212392D01*
X85202101Y-80033068D01*
X85069142Y-79962000D01*
X85202101Y-79890932D01*
X85420608Y-79711608D01*
X85599932Y-79493101D01*
X85733182Y-79243808D01*
X85815236Y-78973309D01*
X85842943Y-78692000D01*
X85815236Y-78410691D01*
X85733182Y-78140192D01*
X85599932Y-77890899D01*
X85420608Y-77672392D01*
X85202101Y-77493068D01*
X85069142Y-77422000D01*
X85202101Y-77350932D01*
X85420608Y-77171608D01*
X85599932Y-76953101D01*
X85733182Y-76703808D01*
X85815236Y-76433309D01*
X85842943Y-76152000D01*
X85815236Y-75870691D01*
X85733182Y-75600192D01*
X85599932Y-75350899D01*
X85420608Y-75132392D01*
X85202101Y-74953068D01*
X85069142Y-74882000D01*
X85202101Y-74810932D01*
X85420608Y-74631608D01*
X85599932Y-74413101D01*
X85733182Y-74163808D01*
X85815236Y-73893309D01*
X85842943Y-73612000D01*
X85815236Y-73330691D01*
X85733182Y-73060192D01*
X85599932Y-72810899D01*
X85420608Y-72592392D01*
X85202101Y-72413068D01*
X85069142Y-72342000D01*
X85202101Y-72270932D01*
X85420608Y-72091608D01*
X85599932Y-71873101D01*
X85733182Y-71623808D01*
X85815236Y-71353309D01*
X85842943Y-71072000D01*
X85815236Y-70790691D01*
X85733182Y-70520192D01*
X85599932Y-70270899D01*
X85420608Y-70052392D01*
X85202101Y-69873068D01*
X85069142Y-69802000D01*
X85202101Y-69730932D01*
X85420608Y-69551608D01*
X85599932Y-69333101D01*
X85733182Y-69083808D01*
X85815236Y-68813309D01*
X85842943Y-68532000D01*
X85815236Y-68250691D01*
X85733182Y-67980192D01*
X85599932Y-67730899D01*
X85420608Y-67512392D01*
X85202101Y-67333068D01*
X85069142Y-67262000D01*
X85202101Y-67190932D01*
X85420608Y-67011608D01*
X85599932Y-66793101D01*
X85733182Y-66543808D01*
X85815236Y-66273309D01*
X85842943Y-65992000D01*
X85815236Y-65710691D01*
X85733182Y-65440192D01*
X85599932Y-65190899D01*
X85467524Y-65029559D01*
X85555494Y-64982537D01*
X85652185Y-64903185D01*
X85731537Y-64806494D01*
X85790502Y-64696180D01*
X85826812Y-64576482D01*
X85839072Y-64452000D01*
X85839072Y-63398061D01*
X86595000Y-63398061D01*
X86595000Y-63601939D01*
X86634774Y-63801898D01*
X86712795Y-63990256D01*
X86826063Y-64159774D01*
X86970226Y-64303937D01*
X87139744Y-64417205D01*
X87328102Y-64495226D01*
X87528061Y-64535000D01*
X87731939Y-64535000D01*
X87931898Y-64495226D01*
X88120256Y-64417205D01*
X88289774Y-64303937D01*
X88433937Y-64159774D01*
X88547205Y-63990256D01*
X88625226Y-63801898D01*
X88665000Y-63601939D01*
X88665000Y-63398061D01*
X103105000Y-63398061D01*
X103105000Y-63601939D01*
X103144774Y-63801898D01*
X103222795Y-63990256D01*
X103336063Y-64159774D01*
X103480226Y-64303937D01*
X103649744Y-64417205D01*
X103838102Y-64495226D01*
X104038061Y-64535000D01*
X104241939Y-64535000D01*
X104441898Y-64495226D01*
X104630256Y-64417205D01*
X104799774Y-64303937D01*
X104943937Y-64159774D01*
X105057205Y-63990256D01*
X105135226Y-63801898D01*
X105175000Y-63601939D01*
X105175000Y-63398061D01*
X105135226Y-63198102D01*
X105057205Y-63009744D01*
X104943937Y-62840226D01*
X104799774Y-62696063D01*
X104630256Y-62582795D01*
X104441898Y-62504774D01*
X104241939Y-62465000D01*
X104038061Y-62465000D01*
X103838102Y-62504774D01*
X103649744Y-62582795D01*
X103480226Y-62696063D01*
X103336063Y-62840226D01*
X103222795Y-63009744D01*
X103144774Y-63198102D01*
X103105000Y-63398061D01*
X88665000Y-63398061D01*
X88625226Y-63198102D01*
X88547205Y-63009744D01*
X88433937Y-62840226D01*
X88289774Y-62696063D01*
X88120256Y-62582795D01*
X87931898Y-62504774D01*
X87731939Y-62465000D01*
X87528061Y-62465000D01*
X87328102Y-62504774D01*
X87139744Y-62582795D01*
X86970226Y-62696063D01*
X86826063Y-62840226D01*
X86712795Y-63009744D01*
X86634774Y-63198102D01*
X86595000Y-63398061D01*
X85839072Y-63398061D01*
X85839072Y-62452000D01*
X85826812Y-62327518D01*
X85790502Y-62207820D01*
X85731537Y-62097506D01*
X85696653Y-62055000D01*
X106522871Y-62055000D01*
X106309192Y-62119818D01*
G37*
X106309192Y-62119818D02*
X106059899Y-62253068D01*
X105841392Y-62432392D01*
X105662068Y-62650899D01*
X105528818Y-62900192D01*
X105446764Y-63170691D01*
X105419057Y-63452000D01*
X105446764Y-63733309D01*
X105528818Y-64003808D01*
X105662068Y-64253101D01*
X105841392Y-64471608D01*
X106059899Y-64650932D01*
X106192858Y-64722000D01*
X106059899Y-64793068D01*
X105841392Y-64972392D01*
X105662068Y-65190899D01*
X105528818Y-65440192D01*
X105446764Y-65710691D01*
X105419057Y-65992000D01*
X105440051Y-66205148D01*
X100798199Y-70847000D01*
X100736061Y-70847000D01*
X100536102Y-70886774D01*
X100347744Y-70964795D01*
X100178226Y-71078063D01*
X100034063Y-71222226D01*
X99920795Y-71391744D01*
X99842774Y-71580102D01*
X99803000Y-71780061D01*
X99803000Y-71983939D01*
X99842774Y-72183898D01*
X99920795Y-72372256D01*
X100034063Y-72541774D01*
X100178226Y-72685937D01*
X100195681Y-72697600D01*
X99300756Y-72697600D01*
X99355502Y-72595180D01*
X99391812Y-72475482D01*
X99404072Y-72351000D01*
X99404072Y-70851000D01*
X99391812Y-70726518D01*
X99355502Y-70606820D01*
X99296537Y-70496506D01*
X99217185Y-70399815D01*
X99120494Y-70320463D01*
X99010180Y-70261498D01*
X98890482Y-70225188D01*
X98766000Y-70212928D01*
X98316000Y-70212928D01*
X98216000Y-70222777D01*
X98116000Y-70212928D01*
X97666000Y-70212928D01*
X97566000Y-70222777D01*
X97466000Y-70212928D01*
X97016000Y-70212928D01*
X96916000Y-70222777D01*
X96816000Y-70212928D01*
X96366000Y-70212928D01*
X96266000Y-70222777D01*
X96166000Y-70212928D01*
X95716000Y-70212928D01*
X95616000Y-70222777D01*
X95516000Y-70212928D01*
X95066000Y-70212928D01*
X94966000Y-70222777D01*
X94866000Y-70212928D01*
X94740000Y-70212928D01*
X94740000Y-69623043D01*
X94894759Y-69519637D01*
X95094637Y-69319759D01*
X95251680Y-69084727D01*
X95359853Y-68823574D01*
X95415000Y-68546335D01*
X95415000Y-68263665D01*
X97545000Y-68263665D01*
X97545000Y-68546335D01*
X97600147Y-68823574D01*
X97708320Y-69084727D01*
X97865363Y-69319759D01*
X98065241Y-69519637D01*
X98300273Y-69676680D01*
X98561426Y-69784853D01*
X98838665Y-69840000D01*
X99121335Y-69840000D01*
X99398574Y-69784853D01*
X99659727Y-69676680D01*
X99894759Y-69519637D01*
X100094637Y-69319759D01*
X100251680Y-69084727D01*
X100359853Y-68823574D01*
X100415000Y-68546335D01*
X100415000Y-68263665D01*
X100359853Y-67986426D01*
X100251680Y-67725273D01*
X100094637Y-67490241D01*
X99894759Y-67290363D01*
X99659727Y-67133320D01*
X99398574Y-67025147D01*
X99121335Y-66970000D01*
X98838665Y-66970000D01*
X98561426Y-67025147D01*
X98300273Y-67133320D01*
X98065241Y-67290363D01*
X97865363Y-67490241D01*
X97708320Y-67725273D01*
X97600147Y-67986426D01*
X97545000Y-68263665D01*
X95415000Y-68263665D01*
X95359853Y-67986426D01*
X95251680Y-67725273D01*
X95094637Y-67490241D01*
X94894759Y-67290363D01*
X94659727Y-67133320D01*
X94398574Y-67025147D01*
X94121335Y-66970000D01*
X93838665Y-66970000D01*
X93561426Y-67025147D01*
X93300273Y-67133320D01*
X93065241Y-67290363D01*
X92865363Y-67490241D01*
X92708320Y-67725273D01*
X92600147Y-67986426D01*
X92545000Y-68263665D01*
X92545000Y-68546335D01*
X92600147Y-68823574D01*
X92708320Y-69084727D01*
X92865363Y-69319759D01*
X93065241Y-69519637D01*
X93220000Y-69623044D01*
X93220001Y-70525434D01*
X93176498Y-70606820D01*
X93140188Y-70726518D01*
X93127928Y-70851000D01*
X93127928Y-72351000D01*
X93140188Y-72475482D01*
X93176498Y-72595180D01*
X93231001Y-72697145D01*
X93231001Y-73263889D01*
X93149316Y-73416709D01*
X93082506Y-73636954D01*
X93059947Y-73866000D01*
X93082506Y-74095046D01*
X93149316Y-74315291D01*
X93257811Y-74518269D01*
X93403819Y-74696181D01*
X93581731Y-74842189D01*
X93784709Y-74950684D01*
X94004954Y-75017494D01*
X94176604Y-75034400D01*
X94933518Y-75034400D01*
X94844226Y-75094063D01*
X94700063Y-75238226D01*
X94586795Y-75407744D01*
X94508774Y-75596102D01*
X94469000Y-75796061D01*
X94469000Y-75999939D01*
X94471584Y-76012928D01*
X94416000Y-76012928D01*
X94316000Y-76022777D01*
X94216000Y-76012928D01*
X93766000Y-76012928D01*
X93641518Y-76025188D01*
X93521820Y-76061498D01*
X93411506Y-76120463D01*
X93314815Y-76199815D01*
X93235463Y-76296506D01*
X93176498Y-76406820D01*
X93140188Y-76526518D01*
X93127928Y-76651000D01*
X93127928Y-78151000D01*
X93140188Y-78275482D01*
X93176498Y-78395180D01*
X93220000Y-78476566D01*
X93220000Y-78885198D01*
X91633199Y-80472000D01*
X85621901Y-80472000D01*
X85599932Y-80430899D01*
X85420608Y-80212392D01*
X85202101Y-80033068D01*
X85069142Y-79962000D01*
X85202101Y-79890932D01*
X85420608Y-79711608D01*
X85599932Y-79493101D01*
X85733182Y-79243808D01*
X85815236Y-78973309D01*
X85842943Y-78692000D01*
X85815236Y-78410691D01*
X85733182Y-78140192D01*
X85599932Y-77890899D01*
X85420608Y-77672392D01*
X85202101Y-77493068D01*
X85069142Y-77422000D01*
X85202101Y-77350932D01*
X85420608Y-77171608D01*
X85599932Y-76953101D01*
X85733182Y-76703808D01*
X85815236Y-76433309D01*
X85842943Y-76152000D01*
X85815236Y-75870691D01*
X85733182Y-75600192D01*
X85599932Y-75350899D01*
X85420608Y-75132392D01*
X85202101Y-74953068D01*
X85069142Y-74882000D01*
X85202101Y-74810932D01*
X85420608Y-74631608D01*
X85599932Y-74413101D01*
X85733182Y-74163808D01*
X85815236Y-73893309D01*
X85842943Y-73612000D01*
X85815236Y-73330691D01*
X85733182Y-73060192D01*
X85599932Y-72810899D01*
X85420608Y-72592392D01*
X85202101Y-72413068D01*
X85069142Y-72342000D01*
X85202101Y-72270932D01*
X85420608Y-72091608D01*
X85599932Y-71873101D01*
X85733182Y-71623808D01*
X85815236Y-71353309D01*
X85842943Y-71072000D01*
X85815236Y-70790691D01*
X85733182Y-70520192D01*
X85599932Y-70270899D01*
X85420608Y-70052392D01*
X85202101Y-69873068D01*
X85069142Y-69802000D01*
X85202101Y-69730932D01*
X85420608Y-69551608D01*
X85599932Y-69333101D01*
X85733182Y-69083808D01*
X85815236Y-68813309D01*
X85842943Y-68532000D01*
X85815236Y-68250691D01*
X85733182Y-67980192D01*
X85599932Y-67730899D01*
X85420608Y-67512392D01*
X85202101Y-67333068D01*
X85069142Y-67262000D01*
X85202101Y-67190932D01*
X85420608Y-67011608D01*
X85599932Y-66793101D01*
X85733182Y-66543808D01*
X85815236Y-66273309D01*
X85842943Y-65992000D01*
X85815236Y-65710691D01*
X85733182Y-65440192D01*
X85599932Y-65190899D01*
X85467524Y-65029559D01*
X85555494Y-64982537D01*
X85652185Y-64903185D01*
X85731537Y-64806494D01*
X85790502Y-64696180D01*
X85826812Y-64576482D01*
X85839072Y-64452000D01*
X85839072Y-63398061D01*
X86595000Y-63398061D01*
X86595000Y-63601939D01*
X86634774Y-63801898D01*
X86712795Y-63990256D01*
X86826063Y-64159774D01*
X86970226Y-64303937D01*
X87139744Y-64417205D01*
X87328102Y-64495226D01*
X87528061Y-64535000D01*
X87731939Y-64535000D01*
X87931898Y-64495226D01*
X88120256Y-64417205D01*
X88289774Y-64303937D01*
X88433937Y-64159774D01*
X88547205Y-63990256D01*
X88625226Y-63801898D01*
X88665000Y-63601939D01*
X88665000Y-63398061D01*
X103105000Y-63398061D01*
X103105000Y-63601939D01*
X103144774Y-63801898D01*
X103222795Y-63990256D01*
X103336063Y-64159774D01*
X103480226Y-64303937D01*
X103649744Y-64417205D01*
X103838102Y-64495226D01*
X104038061Y-64535000D01*
X104241939Y-64535000D01*
X104441898Y-64495226D01*
X104630256Y-64417205D01*
X104799774Y-64303937D01*
X104943937Y-64159774D01*
X105057205Y-63990256D01*
X105135226Y-63801898D01*
X105175000Y-63601939D01*
X105175000Y-63398061D01*
X105135226Y-63198102D01*
X105057205Y-63009744D01*
X104943937Y-62840226D01*
X104799774Y-62696063D01*
X104630256Y-62582795D01*
X104441898Y-62504774D01*
X104241939Y-62465000D01*
X104038061Y-62465000D01*
X103838102Y-62504774D01*
X103649744Y-62582795D01*
X103480226Y-62696063D01*
X103336063Y-62840226D01*
X103222795Y-63009744D01*
X103144774Y-63198102D01*
X103105000Y-63398061D01*
X88665000Y-63398061D01*
X88625226Y-63198102D01*
X88547205Y-63009744D01*
X88433937Y-62840226D01*
X88289774Y-62696063D01*
X88120256Y-62582795D01*
X87931898Y-62504774D01*
X87731939Y-62465000D01*
X87528061Y-62465000D01*
X87328102Y-62504774D01*
X87139744Y-62582795D01*
X86970226Y-62696063D01*
X86826063Y-62840226D01*
X86712795Y-63009744D01*
X86634774Y-63198102D01*
X86595000Y-63398061D01*
X85839072Y-63398061D01*
X85839072Y-62452000D01*
X85826812Y-62327518D01*
X85790502Y-62207820D01*
X85731537Y-62097506D01*
X85696653Y-62055000D01*
X106522871Y-62055000D01*
X106309192Y-62119818D01*
G36*
X82802068Y-76953101D02*
G01*
X82981392Y-77171608D01*
X83199899Y-77350932D01*
X83332858Y-77422000D01*
X83199899Y-77493068D01*
X82981392Y-77672392D01*
X82802068Y-77890899D01*
X82780099Y-77932000D01*
X81571323Y-77932000D01*
X81534000Y-77928324D01*
X81496677Y-77932000D01*
X81496667Y-77932000D01*
X81385014Y-77942997D01*
X81243912Y-77985799D01*
X81241753Y-77986454D01*
X81109723Y-78057026D01*
X81046201Y-78109158D01*
X80993999Y-78151999D01*
X80970201Y-78180997D01*
X79081910Y-80069288D01*
X79059280Y-79955521D01*
X82102802Y-76912000D01*
X82780099Y-76912000D01*
X82802068Y-76953101D01*
G37*
X82802068Y-76953101D02*
X82981392Y-77171608D01*
X83199899Y-77350932D01*
X83332858Y-77422000D01*
X83199899Y-77493068D01*
X82981392Y-77672392D01*
X82802068Y-77890899D01*
X82780099Y-77932000D01*
X81571323Y-77932000D01*
X81534000Y-77928324D01*
X81496677Y-77932000D01*
X81496667Y-77932000D01*
X81385014Y-77942997D01*
X81243912Y-77985799D01*
X81241753Y-77986454D01*
X81109723Y-78057026D01*
X81046201Y-78109158D01*
X80993999Y-78151999D01*
X80970201Y-78180997D01*
X79081910Y-80069288D01*
X79059280Y-79955521D01*
X82102802Y-76912000D01*
X82780099Y-76912000D01*
X82802068Y-76953101D01*
G36*
X82802068Y-74413101D02*
G01*
X82981392Y-74631608D01*
X83199899Y-74810932D01*
X83332858Y-74882000D01*
X83199899Y-74953068D01*
X82981392Y-75132392D01*
X82802068Y-75350899D01*
X82780099Y-75392000D01*
X81825323Y-75392000D01*
X81788000Y-75388324D01*
X81750677Y-75392000D01*
X81750667Y-75392000D01*
X81639014Y-75402997D01*
X81495753Y-75446454D01*
X81363723Y-75517026D01*
X81287008Y-75579985D01*
X81247999Y-75611999D01*
X81224201Y-75640997D01*
X79082000Y-77783199D01*
X79082000Y-77529740D01*
X79059280Y-77415521D01*
X82102802Y-74372000D01*
X82780099Y-74372000D01*
X82802068Y-74413101D01*
G37*
X82802068Y-74413101D02*
X82981392Y-74631608D01*
X83199899Y-74810932D01*
X83332858Y-74882000D01*
X83199899Y-74953068D01*
X82981392Y-75132392D01*
X82802068Y-75350899D01*
X82780099Y-75392000D01*
X81825323Y-75392000D01*
X81788000Y-75388324D01*
X81750677Y-75392000D01*
X81750667Y-75392000D01*
X81639014Y-75402997D01*
X81495753Y-75446454D01*
X81363723Y-75517026D01*
X81287008Y-75579985D01*
X81247999Y-75611999D01*
X81224201Y-75640997D01*
X79082000Y-77783199D01*
X79082000Y-77529740D01*
X79059280Y-77415521D01*
X82102802Y-74372000D01*
X82780099Y-74372000D01*
X82802068Y-74413101D01*
G36*
X112250826Y-77209628D02*
G01*
X112237068Y-77242842D01*
X112180090Y-77529288D01*
X110291804Y-75641003D01*
X110268001Y-75611999D01*
X110152276Y-75517026D01*
X110020247Y-75446454D01*
X109876986Y-75402997D01*
X109765333Y-75392000D01*
X109765322Y-75392000D01*
X109728000Y-75388324D01*
X109690678Y-75392000D01*
X108481901Y-75392000D01*
X108459932Y-75350899D01*
X108280608Y-75132392D01*
X108062101Y-74953068D01*
X107929142Y-74882000D01*
X108062101Y-74810932D01*
X108280608Y-74631608D01*
X108459932Y-74413101D01*
X108481901Y-74372000D01*
X109413199Y-74372000D01*
X112250826Y-77209628D01*
G37*
X112250826Y-77209628D02*
X112237068Y-77242842D01*
X112180090Y-77529288D01*
X110291804Y-75641003D01*
X110268001Y-75611999D01*
X110152276Y-75517026D01*
X110020247Y-75446454D01*
X109876986Y-75402997D01*
X109765333Y-75392000D01*
X109765322Y-75392000D01*
X109728000Y-75388324D01*
X109690678Y-75392000D01*
X108481901Y-75392000D01*
X108459932Y-75350899D01*
X108280608Y-75132392D01*
X108062101Y-74953068D01*
X107929142Y-74882000D01*
X108062101Y-74810932D01*
X108280608Y-74631608D01*
X108459932Y-74413101D01*
X108481901Y-74372000D01*
X109413199Y-74372000D01*
X112250826Y-77209628D01*
G36*
X100177601Y-75365968D02*
G01*
X100177601Y-76387000D01*
X99974061Y-76387000D01*
X99774102Y-76426774D01*
X99585744Y-76504795D01*
X99416226Y-76618063D01*
X99402209Y-76632080D01*
X99391812Y-76526518D01*
X99355502Y-76406820D01*
X99296537Y-76296506D01*
X99217185Y-76199815D01*
X99120494Y-76120463D01*
X99010180Y-76061498D01*
X98890482Y-76025188D01*
X98766000Y-76012928D01*
X98316000Y-76012928D01*
X98216000Y-76022777D01*
X98116000Y-76012928D01*
X98001000Y-76012928D01*
X98001000Y-76012707D01*
X98091898Y-75994626D01*
X98280256Y-75916605D01*
X98449774Y-75803337D01*
X98593937Y-75659174D01*
X98707205Y-75489656D01*
X98785226Y-75301298D01*
X98825000Y-75101339D01*
X98825000Y-75034400D01*
X99846034Y-75034400D01*
X100177601Y-75365968D01*
G37*
X100177601Y-75365968D02*
X100177601Y-76387000D01*
X99974061Y-76387000D01*
X99774102Y-76426774D01*
X99585744Y-76504795D01*
X99416226Y-76618063D01*
X99402209Y-76632080D01*
X99391812Y-76526518D01*
X99355502Y-76406820D01*
X99296537Y-76296506D01*
X99217185Y-76199815D01*
X99120494Y-76120463D01*
X99010180Y-76061498D01*
X98890482Y-76025188D01*
X98766000Y-76012928D01*
X98316000Y-76012928D01*
X98216000Y-76022777D01*
X98116000Y-76012928D01*
X98001000Y-76012928D01*
X98001000Y-76012707D01*
X98091898Y-75994626D01*
X98280256Y-75916605D01*
X98449774Y-75803337D01*
X98593937Y-75659174D01*
X98707205Y-75489656D01*
X98785226Y-75301298D01*
X98825000Y-75101339D01*
X98825000Y-75034400D01*
X99846034Y-75034400D01*
X100177601Y-75365968D01*
G36*
X96535454Y-75138754D02*
G01*
X96491998Y-75282015D01*
X96477324Y-75431000D01*
X96481001Y-75468332D01*
X96481001Y-75552103D01*
X96421205Y-75407744D01*
X96307937Y-75238226D01*
X96163774Y-75094063D01*
X96074482Y-75034400D01*
X96591233Y-75034400D01*
X96535454Y-75138754D01*
G37*
X96535454Y-75138754D02*
X96491998Y-75282015D01*
X96477324Y-75431000D01*
X96481001Y-75468332D01*
X96481001Y-75552103D01*
X96421205Y-75407744D01*
X96307937Y-75238226D01*
X96163774Y-75094063D01*
X96074482Y-75034400D01*
X96591233Y-75034400D01*
X96535454Y-75138754D01*
G36*
X82802068Y-71873101D02*
G01*
X82981392Y-72091608D01*
X83199899Y-72270932D01*
X83332858Y-72342000D01*
X83199899Y-72413068D01*
X82981392Y-72592392D01*
X82802068Y-72810899D01*
X82780099Y-72852000D01*
X81825323Y-72852000D01*
X81788000Y-72848324D01*
X81750677Y-72852000D01*
X81750667Y-72852000D01*
X81639014Y-72862997D01*
X81495753Y-72906454D01*
X81363723Y-72977026D01*
X81300201Y-73029158D01*
X81247999Y-73071999D01*
X81224201Y-73100997D01*
X79082000Y-75243199D01*
X79082000Y-74989740D01*
X79059280Y-74875521D01*
X82102802Y-71832000D01*
X82780099Y-71832000D01*
X82802068Y-71873101D01*
G37*
X82802068Y-71873101D02*
X82981392Y-72091608D01*
X83199899Y-72270932D01*
X83332858Y-72342000D01*
X83199899Y-72413068D01*
X82981392Y-72592392D01*
X82802068Y-72810899D01*
X82780099Y-72852000D01*
X81825323Y-72852000D01*
X81788000Y-72848324D01*
X81750677Y-72852000D01*
X81750667Y-72852000D01*
X81639014Y-72862997D01*
X81495753Y-72906454D01*
X81363723Y-72977026D01*
X81300201Y-73029158D01*
X81247999Y-73071999D01*
X81224201Y-73100997D01*
X79082000Y-75243199D01*
X79082000Y-74989740D01*
X79059280Y-74875521D01*
X82102802Y-71832000D01*
X82780099Y-71832000D01*
X82802068Y-71873101D01*
G36*
X105419057Y-68532000D02*
G01*
X105446764Y-68813309D01*
X105528818Y-69083808D01*
X105662068Y-69333101D01*
X105841392Y-69551608D01*
X106059899Y-69730932D01*
X106192858Y-69802000D01*
X106059899Y-69873068D01*
X105841392Y-70052392D01*
X105662068Y-70270899D01*
X105528818Y-70520192D01*
X105446764Y-70790691D01*
X105419057Y-71072000D01*
X105446764Y-71353309D01*
X105528818Y-71623808D01*
X105662068Y-71873101D01*
X105841392Y-72091608D01*
X106059899Y-72270932D01*
X106192858Y-72342000D01*
X106059899Y-72413068D01*
X105841392Y-72592392D01*
X105662068Y-72810899D01*
X105528818Y-73060192D01*
X105446764Y-73330691D01*
X105419057Y-73612000D01*
X105446764Y-73893309D01*
X105528818Y-74163808D01*
X105662068Y-74413101D01*
X105841392Y-74631608D01*
X106059899Y-74810932D01*
X106192858Y-74882000D01*
X106059899Y-74953068D01*
X105841392Y-75132392D01*
X105836790Y-75138000D01*
X103621711Y-75138000D01*
X103577774Y-75094063D01*
X103408256Y-74980795D01*
X103219898Y-74902774D01*
X103019939Y-74863000D01*
X102816061Y-74863000D01*
X102616102Y-74902774D01*
X102514400Y-74944901D01*
X102514400Y-74939393D01*
X102520053Y-74882000D01*
X102514400Y-74824604D01*
X102497494Y-74652954D01*
X102430684Y-74432709D01*
X102369128Y-74317546D01*
X102322189Y-74229730D01*
X102212768Y-74096401D01*
X102176181Y-74051819D01*
X102131597Y-74015230D01*
X101196774Y-73080408D01*
X101160181Y-73035819D01*
X101000678Y-72904918D01*
X101139898Y-72877226D01*
X101328256Y-72799205D01*
X101497774Y-72685937D01*
X101641937Y-72541774D01*
X101755205Y-72372256D01*
X101833226Y-72183898D01*
X101873000Y-71983939D01*
X101873000Y-71921801D01*
X105436128Y-68358673D01*
X105419057Y-68532000D01*
G37*
X105419057Y-68532000D02*
X105446764Y-68813309D01*
X105528818Y-69083808D01*
X105662068Y-69333101D01*
X105841392Y-69551608D01*
X106059899Y-69730932D01*
X106192858Y-69802000D01*
X106059899Y-69873068D01*
X105841392Y-70052392D01*
X105662068Y-70270899D01*
X105528818Y-70520192D01*
X105446764Y-70790691D01*
X105419057Y-71072000D01*
X105446764Y-71353309D01*
X105528818Y-71623808D01*
X105662068Y-71873101D01*
X105841392Y-72091608D01*
X106059899Y-72270932D01*
X106192858Y-72342000D01*
X106059899Y-72413068D01*
X105841392Y-72592392D01*
X105662068Y-72810899D01*
X105528818Y-73060192D01*
X105446764Y-73330691D01*
X105419057Y-73612000D01*
X105446764Y-73893309D01*
X105528818Y-74163808D01*
X105662068Y-74413101D01*
X105841392Y-74631608D01*
X106059899Y-74810932D01*
X106192858Y-74882000D01*
X106059899Y-74953068D01*
X105841392Y-75132392D01*
X105836790Y-75138000D01*
X103621711Y-75138000D01*
X103577774Y-75094063D01*
X103408256Y-74980795D01*
X103219898Y-74902774D01*
X103019939Y-74863000D01*
X102816061Y-74863000D01*
X102616102Y-74902774D01*
X102514400Y-74944901D01*
X102514400Y-74939393D01*
X102520053Y-74882000D01*
X102514400Y-74824604D01*
X102497494Y-74652954D01*
X102430684Y-74432709D01*
X102369128Y-74317546D01*
X102322189Y-74229730D01*
X102212768Y-74096401D01*
X102176181Y-74051819D01*
X102131597Y-74015230D01*
X101196774Y-73080408D01*
X101160181Y-73035819D01*
X101000678Y-72904918D01*
X101139898Y-72877226D01*
X101328256Y-72799205D01*
X101497774Y-72685937D01*
X101641937Y-72541774D01*
X101755205Y-72372256D01*
X101833226Y-72183898D01*
X101873000Y-71983939D01*
X101873000Y-71921801D01*
X105436128Y-68358673D01*
X105419057Y-68532000D01*
G36*
X112202720Y-74875521D02*
G01*
X112180090Y-74989288D01*
X110291804Y-73101003D01*
X110268001Y-73071999D01*
X110152276Y-72977026D01*
X110020247Y-72906454D01*
X109876986Y-72862997D01*
X109765333Y-72852000D01*
X109765322Y-72852000D01*
X109728000Y-72848324D01*
X109690678Y-72852000D01*
X108481901Y-72852000D01*
X108459932Y-72810899D01*
X108280608Y-72592392D01*
X108062101Y-72413068D01*
X107929142Y-72342000D01*
X108062101Y-72270932D01*
X108280608Y-72091608D01*
X108459932Y-71873101D01*
X108481901Y-71832000D01*
X109159199Y-71832000D01*
X112202720Y-74875521D01*
G37*
X112202720Y-74875521D02*
X112180090Y-74989288D01*
X110291804Y-73101003D01*
X110268001Y-73071999D01*
X110152276Y-72977026D01*
X110020247Y-72906454D01*
X109876986Y-72862997D01*
X109765333Y-72852000D01*
X109765322Y-72852000D01*
X109728000Y-72848324D01*
X109690678Y-72852000D01*
X108481901Y-72852000D01*
X108459932Y-72810899D01*
X108280608Y-72592392D01*
X108062101Y-72413068D01*
X107929142Y-72342000D01*
X108062101Y-72270932D01*
X108280608Y-72091608D01*
X108459932Y-71873101D01*
X108481901Y-71832000D01*
X109159199Y-71832000D01*
X112202720Y-74875521D01*
G36*
X82802068Y-69333101D02*
G01*
X82981392Y-69551608D01*
X83199899Y-69730932D01*
X83332858Y-69802000D01*
X83199899Y-69873068D01*
X82981392Y-70052392D01*
X82802068Y-70270899D01*
X82780099Y-70312000D01*
X81825323Y-70312000D01*
X81788000Y-70308324D01*
X81750677Y-70312000D01*
X81750667Y-70312000D01*
X81639014Y-70322997D01*
X81495753Y-70366454D01*
X81363723Y-70437026D01*
X81300201Y-70489158D01*
X81247999Y-70531999D01*
X81224201Y-70560997D01*
X79082000Y-72703199D01*
X79082000Y-72449740D01*
X79059280Y-72335521D01*
X82102802Y-69292000D01*
X82780099Y-69292000D01*
X82802068Y-69333101D01*
G37*
X82802068Y-69333101D02*
X82981392Y-69551608D01*
X83199899Y-69730932D01*
X83332858Y-69802000D01*
X83199899Y-69873068D01*
X82981392Y-70052392D01*
X82802068Y-70270899D01*
X82780099Y-70312000D01*
X81825323Y-70312000D01*
X81788000Y-70308324D01*
X81750677Y-70312000D01*
X81750667Y-70312000D01*
X81639014Y-70322997D01*
X81495753Y-70366454D01*
X81363723Y-70437026D01*
X81300201Y-70489158D01*
X81247999Y-70531999D01*
X81224201Y-70560997D01*
X79082000Y-72703199D01*
X79082000Y-72449740D01*
X79059280Y-72335521D01*
X82102802Y-69292000D01*
X82780099Y-69292000D01*
X82802068Y-69333101D01*
G36*
X112250826Y-72129628D02*
G01*
X112237068Y-72162842D01*
X112180000Y-72449740D01*
X112180000Y-72703198D01*
X110037804Y-70561003D01*
X110014001Y-70531999D01*
X109898276Y-70437026D01*
X109766247Y-70366454D01*
X109622986Y-70322997D01*
X109511333Y-70312000D01*
X109511322Y-70312000D01*
X109474000Y-70308324D01*
X109436678Y-70312000D01*
X108481901Y-70312000D01*
X108459932Y-70270899D01*
X108280608Y-70052392D01*
X108062101Y-69873068D01*
X107929142Y-69802000D01*
X108062101Y-69730932D01*
X108280608Y-69551608D01*
X108459932Y-69333101D01*
X108481901Y-69292000D01*
X109413199Y-69292000D01*
X112250826Y-72129628D01*
G37*
X112250826Y-72129628D02*
X112237068Y-72162842D01*
X112180000Y-72449740D01*
X112180000Y-72703198D01*
X110037804Y-70561003D01*
X110014001Y-70531999D01*
X109898276Y-70437026D01*
X109766247Y-70366454D01*
X109622986Y-70322997D01*
X109511333Y-70312000D01*
X109511322Y-70312000D01*
X109474000Y-70308324D01*
X109436678Y-70312000D01*
X108481901Y-70312000D01*
X108459932Y-70270899D01*
X108280608Y-70052392D01*
X108062101Y-69873068D01*
X107929142Y-69802000D01*
X108062101Y-69730932D01*
X108280608Y-69551608D01*
X108459932Y-69333101D01*
X108481901Y-69292000D01*
X109413199Y-69292000D01*
X112250826Y-72129628D01*
G36*
X82802068Y-66793101D02*
G01*
X82981392Y-67011608D01*
X83199899Y-67190932D01*
X83332858Y-67262000D01*
X83199899Y-67333068D01*
X82981392Y-67512392D01*
X82802068Y-67730899D01*
X82780099Y-67772000D01*
X81825323Y-67772000D01*
X81788000Y-67768324D01*
X81750677Y-67772000D01*
X81750667Y-67772000D01*
X81639014Y-67782997D01*
X81495753Y-67826454D01*
X81363723Y-67897026D01*
X81280083Y-67965668D01*
X81247999Y-67991999D01*
X81224201Y-68020997D01*
X79082000Y-70163199D01*
X79082000Y-69909740D01*
X79024932Y-69622842D01*
X79011174Y-69589627D01*
X81848802Y-66752000D01*
X82780099Y-66752000D01*
X82802068Y-66793101D01*
G37*
X82802068Y-66793101D02*
X82981392Y-67011608D01*
X83199899Y-67190932D01*
X83332858Y-67262000D01*
X83199899Y-67333068D01*
X82981392Y-67512392D01*
X82802068Y-67730899D01*
X82780099Y-67772000D01*
X81825323Y-67772000D01*
X81788000Y-67768324D01*
X81750677Y-67772000D01*
X81750667Y-67772000D01*
X81639014Y-67782997D01*
X81495753Y-67826454D01*
X81363723Y-67897026D01*
X81280083Y-67965668D01*
X81247999Y-67991999D01*
X81224201Y-68020997D01*
X79082000Y-70163199D01*
X79082000Y-69909740D01*
X79024932Y-69622842D01*
X79011174Y-69589627D01*
X81848802Y-66752000D01*
X82780099Y-66752000D01*
X82802068Y-66793101D01*
G36*
X112202720Y-69795521D02*
G01*
X112180090Y-69909288D01*
X110291804Y-68021003D01*
X110268001Y-67991999D01*
X110152276Y-67897026D01*
X110020247Y-67826454D01*
X109876986Y-67782997D01*
X109765333Y-67772000D01*
X109765322Y-67772000D01*
X109728000Y-67768324D01*
X109690678Y-67772000D01*
X108481901Y-67772000D01*
X108459932Y-67730899D01*
X108280608Y-67512392D01*
X108062101Y-67333068D01*
X107929142Y-67262000D01*
X108062101Y-67190932D01*
X108280608Y-67011608D01*
X108459932Y-66793101D01*
X108481901Y-66752000D01*
X109159199Y-66752000D01*
X112202720Y-69795521D01*
G37*
X112202720Y-69795521D02*
X112180090Y-69909288D01*
X110291804Y-68021003D01*
X110268001Y-67991999D01*
X110152276Y-67897026D01*
X110020247Y-67826454D01*
X109876986Y-67782997D01*
X109765333Y-67772000D01*
X109765322Y-67772000D01*
X109728000Y-67768324D01*
X109690678Y-67772000D01*
X108481901Y-67772000D01*
X108459932Y-67730899D01*
X108280608Y-67512392D01*
X108062101Y-67333068D01*
X107929142Y-67262000D01*
X108062101Y-67190932D01*
X108280608Y-67011608D01*
X108459932Y-66793101D01*
X108481901Y-66752000D01*
X109159199Y-66752000D01*
X112202720Y-69795521D01*
G36*
X112176928Y-67229730D02*
G01*
X112176928Y-67620126D01*
X110037804Y-65481003D01*
X110014001Y-65451999D01*
X109898276Y-65357026D01*
X109766247Y-65286454D01*
X109622986Y-65242997D01*
X109511333Y-65232000D01*
X109511322Y-65232000D01*
X109474000Y-65228324D01*
X109436678Y-65232000D01*
X108481901Y-65232000D01*
X108459932Y-65190899D01*
X108280608Y-64972392D01*
X108062101Y-64793068D01*
X107929142Y-64722000D01*
X108062101Y-64650932D01*
X108280608Y-64471608D01*
X108459932Y-64253101D01*
X108481901Y-64212000D01*
X109159199Y-64212000D01*
X112176928Y-67229730D01*
G37*
X112176928Y-67229730D02*
X112176928Y-67620126D01*
X110037804Y-65481003D01*
X110014001Y-65451999D01*
X109898276Y-65357026D01*
X109766247Y-65286454D01*
X109622986Y-65242997D01*
X109511333Y-65232000D01*
X109511322Y-65232000D01*
X109474000Y-65228324D01*
X109436678Y-65232000D01*
X108481901Y-65232000D01*
X108459932Y-65190899D01*
X108280608Y-64972392D01*
X108062101Y-64793068D01*
X107929142Y-64722000D01*
X108062101Y-64650932D01*
X108280608Y-64471608D01*
X108459932Y-64253101D01*
X108481901Y-64212000D01*
X109159199Y-64212000D01*
X112176928Y-67229730D01*
G36*
X82562928Y-64452000D02*
G01*
X82575188Y-64576482D01*
X82611498Y-64696180D01*
X82670463Y-64806494D01*
X82749815Y-64903185D01*
X82846506Y-64982537D01*
X82934476Y-65029559D01*
X82802068Y-65190899D01*
X82780099Y-65232000D01*
X81571323Y-65232000D01*
X81534000Y-65228324D01*
X81496677Y-65232000D01*
X81496667Y-65232000D01*
X81385014Y-65242997D01*
X81241753Y-65286454D01*
X81109723Y-65357026D01*
X81026083Y-65425668D01*
X80993999Y-65451999D01*
X80970201Y-65480997D01*
X79085072Y-67366126D01*
X79085072Y-67229729D01*
X82102802Y-64212000D01*
X82562928Y-64212000D01*
X82562928Y-64452000D01*
G37*
X82562928Y-64452000D02*
X82575188Y-64576482D01*
X82611498Y-64696180D01*
X82670463Y-64806494D01*
X82749815Y-64903185D01*
X82846506Y-64982537D01*
X82934476Y-65029559D01*
X82802068Y-65190899D01*
X82780099Y-65232000D01*
X81571323Y-65232000D01*
X81534000Y-65228324D01*
X81496677Y-65232000D01*
X81496667Y-65232000D01*
X81385014Y-65242997D01*
X81241753Y-65286454D01*
X81109723Y-65357026D01*
X81026083Y-65425668D01*
X80993999Y-65451999D01*
X80970201Y-65480997D01*
X79085072Y-67366126D01*
X79085072Y-67229729D01*
X82102802Y-64212000D01*
X82562928Y-64212000D01*
X82562928Y-64452000D01*
M02*
