G04 #@! TF.GenerationSoftware,KiCad,Pcbnew,(5.1.6)-1*
G04 #@! TF.CreationDate,2020-07-05T17:14:59-07:00*
G04 #@! TF.ProjectId,LED controller board - Wemos,4c454420-636f-46e7-9472-6f6c6c657220,rev?*
G04 #@! TF.SameCoordinates,Original*
G04 #@! TF.FileFunction,Soldermask,Bot*
G04 #@! TF.FilePolarity,Negative*
%FSLAX46Y46*%
G04 Gerber Fmt 4.6, Leading zero omitted, Abs format (unit mm)*
G04 Created by KiCad (PCBNEW (5.1.6)-1) date 2020-07-05 17:14:59*
%MOMM*%
%LPD*%
G01*
G04 APERTURE LIST*
%ADD10C,0.100000*%
G04 APERTURE END LIST*
D10*
G36*
X75889943Y-94066248D02*
G01*
X76445189Y-94296238D01*
X76445190Y-94296239D01*
X76944899Y-94630134D01*
X77369866Y-95055101D01*
X77369867Y-95055103D01*
X77703762Y-95554811D01*
X77933752Y-96110057D01*
X78051000Y-96699501D01*
X78051000Y-97300499D01*
X77933752Y-97889943D01*
X77703762Y-98445189D01*
X77703761Y-98445190D01*
X77369866Y-98944899D01*
X76944899Y-99369866D01*
X76693347Y-99537948D01*
X76445189Y-99703762D01*
X75889943Y-99933752D01*
X75300499Y-100051000D01*
X74699501Y-100051000D01*
X74110057Y-99933752D01*
X73554811Y-99703762D01*
X73306653Y-99537948D01*
X73055101Y-99369866D01*
X72630134Y-98944899D01*
X72296239Y-98445190D01*
X72296238Y-98445189D01*
X72066248Y-97889943D01*
X71949000Y-97300499D01*
X71949000Y-96699501D01*
X72066248Y-96110057D01*
X72296238Y-95554811D01*
X72630133Y-95055103D01*
X72630134Y-95055101D01*
X73055101Y-94630134D01*
X73554810Y-94296239D01*
X73554811Y-94296238D01*
X74110057Y-94066248D01*
X74699501Y-93949000D01*
X75300499Y-93949000D01*
X75889943Y-94066248D01*
G37*
G36*
X115889943Y-94066248D02*
G01*
X116445189Y-94296238D01*
X116445190Y-94296239D01*
X116944899Y-94630134D01*
X117369866Y-95055101D01*
X117369867Y-95055103D01*
X117703762Y-95554811D01*
X117933752Y-96110057D01*
X118051000Y-96699501D01*
X118051000Y-97300499D01*
X117933752Y-97889943D01*
X117703762Y-98445189D01*
X117703761Y-98445190D01*
X117369866Y-98944899D01*
X116944899Y-99369866D01*
X116693347Y-99537948D01*
X116445189Y-99703762D01*
X115889943Y-99933752D01*
X115300499Y-100051000D01*
X114699501Y-100051000D01*
X114110057Y-99933752D01*
X113554811Y-99703762D01*
X113306653Y-99537948D01*
X113055101Y-99369866D01*
X112630134Y-98944899D01*
X112296239Y-98445190D01*
X112296238Y-98445189D01*
X112066248Y-97889943D01*
X111949000Y-97300499D01*
X111949000Y-96699501D01*
X112066248Y-96110057D01*
X112296238Y-95554811D01*
X112630133Y-95055103D01*
X112630134Y-95055101D01*
X113055101Y-94630134D01*
X113554810Y-94296239D01*
X113554811Y-94296238D01*
X114110057Y-94066248D01*
X114699501Y-93949000D01*
X115300499Y-93949000D01*
X115889943Y-94066248D01*
G37*
G36*
X97530228Y-95153703D02*
G01*
X97685100Y-95217853D01*
X97824481Y-95310985D01*
X97943015Y-95429519D01*
X98036147Y-95568900D01*
X98100297Y-95723772D01*
X98133000Y-95888184D01*
X98133000Y-96055816D01*
X98100297Y-96220228D01*
X98036147Y-96375100D01*
X97943015Y-96514481D01*
X97824481Y-96633015D01*
X97685100Y-96726147D01*
X97530228Y-96790297D01*
X97365816Y-96823000D01*
X97198184Y-96823000D01*
X97033772Y-96790297D01*
X96878900Y-96726147D01*
X96739519Y-96633015D01*
X96620985Y-96514481D01*
X96527853Y-96375100D01*
X96463703Y-96220228D01*
X96431000Y-96055816D01*
X96431000Y-95888184D01*
X96463703Y-95723772D01*
X96527853Y-95568900D01*
X96620985Y-95429519D01*
X96739519Y-95310985D01*
X96878900Y-95217853D01*
X97033772Y-95153703D01*
X97198184Y-95121000D01*
X97365816Y-95121000D01*
X97530228Y-95153703D01*
G37*
G36*
X97530228Y-92653703D02*
G01*
X97685100Y-92717853D01*
X97824481Y-92810985D01*
X97943015Y-92929519D01*
X98036147Y-93068900D01*
X98100297Y-93223772D01*
X98133000Y-93388184D01*
X98133000Y-93555816D01*
X98100297Y-93720228D01*
X98036147Y-93875100D01*
X97943015Y-94014481D01*
X97824481Y-94133015D01*
X97685100Y-94226147D01*
X97530228Y-94290297D01*
X97365816Y-94323000D01*
X97198184Y-94323000D01*
X97033772Y-94290297D01*
X96878900Y-94226147D01*
X96739519Y-94133015D01*
X96620985Y-94014481D01*
X96527853Y-93875100D01*
X96463703Y-93720228D01*
X96431000Y-93555816D01*
X96431000Y-93388184D01*
X96463703Y-93223772D01*
X96527853Y-93068900D01*
X96620985Y-92929519D01*
X96739519Y-92810985D01*
X96878900Y-92717853D01*
X97033772Y-92653703D01*
X97198184Y-92621000D01*
X97365816Y-92621000D01*
X97530228Y-92653703D01*
G37*
G36*
X85778548Y-89418326D02*
G01*
X85952157Y-89470990D01*
X86112156Y-89556511D01*
X86126612Y-89568375D01*
X86252397Y-89671603D01*
X86331729Y-89768271D01*
X86367489Y-89811844D01*
X86453010Y-89971843D01*
X86505674Y-90145452D01*
X86506492Y-90153756D01*
X86519000Y-90280756D01*
X86519000Y-90821245D01*
X86518182Y-90829546D01*
X86505674Y-90956548D01*
X86453010Y-91130157D01*
X86367489Y-91290156D01*
X86331729Y-91333729D01*
X86252397Y-91430397D01*
X86112155Y-91545489D01*
X85952156Y-91631010D01*
X85778547Y-91683674D01*
X85598000Y-91701456D01*
X85417452Y-91683674D01*
X85243843Y-91631010D01*
X85083844Y-91545489D01*
X85019259Y-91492485D01*
X84943603Y-91430397D01*
X84828511Y-91290155D01*
X84742991Y-91130158D01*
X84704466Y-91003159D01*
X84690326Y-90956547D01*
X84677000Y-90821243D01*
X84677000Y-90280756D01*
X84690326Y-90145452D01*
X84742990Y-89971843D01*
X84828512Y-89811844D01*
X84838832Y-89799269D01*
X84943604Y-89671603D01*
X85069389Y-89568375D01*
X85083845Y-89556511D01*
X85243844Y-89470990D01*
X85417453Y-89418326D01*
X85598000Y-89400544D01*
X85778548Y-89418326D01*
G37*
G36*
X88318548Y-89418326D02*
G01*
X88492157Y-89470990D01*
X88652156Y-89556511D01*
X88666612Y-89568375D01*
X88792397Y-89671603D01*
X88871729Y-89768271D01*
X88907489Y-89811844D01*
X88993010Y-89971843D01*
X89045674Y-90145452D01*
X89046492Y-90153756D01*
X89059000Y-90280756D01*
X89059000Y-90821245D01*
X89058182Y-90829546D01*
X89045674Y-90956548D01*
X88993010Y-91130157D01*
X88907489Y-91290156D01*
X88871729Y-91333729D01*
X88792397Y-91430397D01*
X88652155Y-91545489D01*
X88492156Y-91631010D01*
X88318547Y-91683674D01*
X88138000Y-91701456D01*
X87957452Y-91683674D01*
X87783843Y-91631010D01*
X87623844Y-91545489D01*
X87559259Y-91492485D01*
X87483603Y-91430397D01*
X87368511Y-91290155D01*
X87282991Y-91130158D01*
X87244466Y-91003159D01*
X87230326Y-90956547D01*
X87217000Y-90821243D01*
X87217000Y-90280756D01*
X87230326Y-90145452D01*
X87282990Y-89971843D01*
X87368512Y-89811844D01*
X87378832Y-89799269D01*
X87483604Y-89671603D01*
X87609389Y-89568375D01*
X87623845Y-89556511D01*
X87783844Y-89470990D01*
X87957453Y-89418326D01*
X88138000Y-89400544D01*
X88318548Y-89418326D01*
G37*
G36*
X90858548Y-89418326D02*
G01*
X91032157Y-89470990D01*
X91192156Y-89556511D01*
X91206612Y-89568375D01*
X91332397Y-89671603D01*
X91411729Y-89768271D01*
X91447489Y-89811844D01*
X91533010Y-89971843D01*
X91585674Y-90145452D01*
X91586492Y-90153756D01*
X91599000Y-90280756D01*
X91599000Y-90821245D01*
X91598182Y-90829546D01*
X91585674Y-90956548D01*
X91533010Y-91130157D01*
X91447489Y-91290156D01*
X91411729Y-91333729D01*
X91332397Y-91430397D01*
X91192155Y-91545489D01*
X91032156Y-91631010D01*
X90858547Y-91683674D01*
X90678000Y-91701456D01*
X90497452Y-91683674D01*
X90323843Y-91631010D01*
X90163844Y-91545489D01*
X90099259Y-91492485D01*
X90023603Y-91430397D01*
X89908511Y-91290155D01*
X89822991Y-91130158D01*
X89784466Y-91003159D01*
X89770326Y-90956547D01*
X89757000Y-90821243D01*
X89757000Y-90280756D01*
X89770326Y-90145452D01*
X89822990Y-89971843D01*
X89908512Y-89811844D01*
X89918832Y-89799269D01*
X90023604Y-89671603D01*
X90149389Y-89568375D01*
X90163845Y-89556511D01*
X90323844Y-89470990D01*
X90497453Y-89418326D01*
X90678000Y-89400544D01*
X90858548Y-89418326D01*
G37*
G36*
X93997561Y-89408966D02*
G01*
X94030383Y-89418923D01*
X94060632Y-89435092D01*
X94087148Y-89456852D01*
X94108908Y-89483368D01*
X94125077Y-89513617D01*
X94135034Y-89546439D01*
X94139000Y-89586713D01*
X94139000Y-91515287D01*
X94135034Y-91555561D01*
X94125077Y-91588383D01*
X94108908Y-91618632D01*
X94087148Y-91645148D01*
X94060632Y-91666908D01*
X94030383Y-91683077D01*
X93997561Y-91693034D01*
X93957287Y-91697000D01*
X92478713Y-91697000D01*
X92438439Y-91693034D01*
X92405617Y-91683077D01*
X92375368Y-91666908D01*
X92348852Y-91645148D01*
X92327092Y-91618632D01*
X92310923Y-91588383D01*
X92300966Y-91555561D01*
X92297000Y-91515287D01*
X92297000Y-89586713D01*
X92300966Y-89546439D01*
X92310923Y-89513617D01*
X92327092Y-89483368D01*
X92348852Y-89456852D01*
X92375368Y-89435092D01*
X92405617Y-89418923D01*
X92438439Y-89408966D01*
X92478713Y-89405000D01*
X93957287Y-89405000D01*
X93997561Y-89408966D01*
G37*
G36*
X101526548Y-89291326D02*
G01*
X101700157Y-89343990D01*
X101860156Y-89429511D01*
X101893471Y-89456852D01*
X102000397Y-89544603D01*
X102060650Y-89618023D01*
X102115489Y-89684844D01*
X102201010Y-89844843D01*
X102253674Y-90018452D01*
X102267000Y-90153757D01*
X102267000Y-90694244D01*
X102253674Y-90829548D01*
X102201010Y-91003157D01*
X102115489Y-91163156D01*
X102079729Y-91206729D01*
X102000397Y-91303397D01*
X101860155Y-91418489D01*
X101700156Y-91504010D01*
X101526547Y-91556674D01*
X101346000Y-91574456D01*
X101165452Y-91556674D01*
X100991843Y-91504010D01*
X100831844Y-91418489D01*
X100788271Y-91382729D01*
X100691603Y-91303397D01*
X100576511Y-91163155D01*
X100490991Y-91003158D01*
X100476852Y-90956548D01*
X100438326Y-90829547D01*
X100425000Y-90694243D01*
X100425000Y-90153756D01*
X100425818Y-90145455D01*
X100438326Y-90018454D01*
X100438326Y-90018452D01*
X100490990Y-89844843D01*
X100576512Y-89684844D01*
X100588978Y-89669654D01*
X100691604Y-89544603D01*
X100798530Y-89456852D01*
X100831845Y-89429511D01*
X100991844Y-89343990D01*
X101165453Y-89291326D01*
X101346000Y-89273544D01*
X101526548Y-89291326D01*
G37*
G36*
X104665561Y-89281966D02*
G01*
X104698383Y-89291923D01*
X104728632Y-89308092D01*
X104755148Y-89329852D01*
X104776908Y-89356368D01*
X104793077Y-89386617D01*
X104803034Y-89419439D01*
X104807000Y-89459713D01*
X104807000Y-91388287D01*
X104803034Y-91428561D01*
X104793077Y-91461383D01*
X104776908Y-91491632D01*
X104755148Y-91518148D01*
X104728632Y-91539908D01*
X104698383Y-91556077D01*
X104665561Y-91566034D01*
X104625287Y-91570000D01*
X103146713Y-91570000D01*
X103106439Y-91566034D01*
X103073617Y-91556077D01*
X103043368Y-91539908D01*
X103016852Y-91518148D01*
X102995092Y-91491632D01*
X102978923Y-91461383D01*
X102968966Y-91428561D01*
X102965000Y-91388287D01*
X102965000Y-89459713D01*
X102968966Y-89419439D01*
X102978923Y-89386617D01*
X102995092Y-89356368D01*
X103016852Y-89329852D01*
X103043368Y-89308092D01*
X103073617Y-89291923D01*
X103106439Y-89281966D01*
X103146713Y-89278000D01*
X104625287Y-89278000D01*
X104665561Y-89281966D01*
G37*
G36*
X113778512Y-84399927D02*
G01*
X113927812Y-84429624D01*
X114091784Y-84497544D01*
X114239354Y-84596147D01*
X114364853Y-84721646D01*
X114463456Y-84869216D01*
X114531376Y-85033188D01*
X114566000Y-85207259D01*
X114566000Y-85384741D01*
X114531376Y-85558812D01*
X114463456Y-85722784D01*
X114364853Y-85870354D01*
X114239354Y-85995853D01*
X114091784Y-86094456D01*
X113927812Y-86162376D01*
X113778512Y-86192073D01*
X113753742Y-86197000D01*
X113576258Y-86197000D01*
X113551488Y-86192073D01*
X113402188Y-86162376D01*
X113238216Y-86094456D01*
X113090646Y-85995853D01*
X112965147Y-85870354D01*
X112866544Y-85722784D01*
X112798624Y-85558812D01*
X112764000Y-85384741D01*
X112764000Y-85207259D01*
X112798624Y-85033188D01*
X112866544Y-84869216D01*
X112965147Y-84721646D01*
X113090646Y-84596147D01*
X113238216Y-84497544D01*
X113402188Y-84429624D01*
X113551488Y-84399927D01*
X113576258Y-84395000D01*
X113753742Y-84395000D01*
X113778512Y-84399927D01*
G37*
G36*
X77710512Y-84399927D02*
G01*
X77859812Y-84429624D01*
X78023784Y-84497544D01*
X78171354Y-84596147D01*
X78296853Y-84721646D01*
X78395456Y-84869216D01*
X78463376Y-85033188D01*
X78498000Y-85207259D01*
X78498000Y-85384741D01*
X78463376Y-85558812D01*
X78395456Y-85722784D01*
X78296853Y-85870354D01*
X78171354Y-85995853D01*
X78023784Y-86094456D01*
X77859812Y-86162376D01*
X77710512Y-86192073D01*
X77685742Y-86197000D01*
X77508258Y-86197000D01*
X77483488Y-86192073D01*
X77334188Y-86162376D01*
X77170216Y-86094456D01*
X77022646Y-85995853D01*
X76897147Y-85870354D01*
X76798544Y-85722784D01*
X76730624Y-85558812D01*
X76696000Y-85384741D01*
X76696000Y-85207259D01*
X76730624Y-85033188D01*
X76798544Y-84869216D01*
X76897147Y-84721646D01*
X77022646Y-84596147D01*
X77170216Y-84497544D01*
X77334188Y-84429624D01*
X77483488Y-84399927D01*
X77508258Y-84395000D01*
X77685742Y-84395000D01*
X77710512Y-84399927D01*
G37*
G36*
X113778512Y-81859927D02*
G01*
X113927812Y-81889624D01*
X114091784Y-81957544D01*
X114239354Y-82056147D01*
X114364853Y-82181646D01*
X114463456Y-82329216D01*
X114531376Y-82493188D01*
X114566000Y-82667259D01*
X114566000Y-82844741D01*
X114531376Y-83018812D01*
X114463456Y-83182784D01*
X114364853Y-83330354D01*
X114239354Y-83455853D01*
X114091784Y-83554456D01*
X113927812Y-83622376D01*
X113778512Y-83652073D01*
X113753742Y-83657000D01*
X113576258Y-83657000D01*
X113551488Y-83652073D01*
X113402188Y-83622376D01*
X113238216Y-83554456D01*
X113090646Y-83455853D01*
X112965147Y-83330354D01*
X112866544Y-83182784D01*
X112798624Y-83018812D01*
X112764000Y-82844741D01*
X112764000Y-82667259D01*
X112798624Y-82493188D01*
X112866544Y-82329216D01*
X112965147Y-82181646D01*
X113090646Y-82056147D01*
X113238216Y-81957544D01*
X113402188Y-81889624D01*
X113551488Y-81859927D01*
X113576258Y-81855000D01*
X113753742Y-81855000D01*
X113778512Y-81859927D01*
G37*
G36*
X77710512Y-81859927D02*
G01*
X77859812Y-81889624D01*
X78023784Y-81957544D01*
X78171354Y-82056147D01*
X78296853Y-82181646D01*
X78395456Y-82329216D01*
X78463376Y-82493188D01*
X78498000Y-82667259D01*
X78498000Y-82844741D01*
X78463376Y-83018812D01*
X78395456Y-83182784D01*
X78296853Y-83330354D01*
X78171354Y-83455853D01*
X78023784Y-83554456D01*
X77859812Y-83622376D01*
X77710512Y-83652073D01*
X77685742Y-83657000D01*
X77508258Y-83657000D01*
X77483488Y-83652073D01*
X77334188Y-83622376D01*
X77170216Y-83554456D01*
X77022646Y-83455853D01*
X76897147Y-83330354D01*
X76798544Y-83182784D01*
X76730624Y-83018812D01*
X76696000Y-82844741D01*
X76696000Y-82667259D01*
X76730624Y-82493188D01*
X76798544Y-82329216D01*
X76897147Y-82181646D01*
X77022646Y-82056147D01*
X77170216Y-81957544D01*
X77334188Y-81889624D01*
X77483488Y-81859927D01*
X77508258Y-81855000D01*
X77685742Y-81855000D01*
X77710512Y-81859927D01*
G37*
G36*
X107427823Y-80393313D02*
G01*
X107588242Y-80441976D01*
X107657155Y-80478811D01*
X107736078Y-80520996D01*
X107865659Y-80627341D01*
X107972004Y-80756922D01*
X107972005Y-80756924D01*
X108051024Y-80904758D01*
X108099687Y-81065177D01*
X108116117Y-81232000D01*
X108099687Y-81398823D01*
X108051024Y-81559242D01*
X107980114Y-81691906D01*
X107972004Y-81707078D01*
X107865659Y-81836659D01*
X107736078Y-81943004D01*
X107736076Y-81943005D01*
X107588242Y-82022024D01*
X107427823Y-82070687D01*
X107302804Y-82083000D01*
X106819196Y-82083000D01*
X106694177Y-82070687D01*
X106533758Y-82022024D01*
X106385924Y-81943005D01*
X106385922Y-81943004D01*
X106256341Y-81836659D01*
X106149996Y-81707078D01*
X106141886Y-81691906D01*
X106070976Y-81559242D01*
X106022313Y-81398823D01*
X106005883Y-81232000D01*
X106022313Y-81065177D01*
X106070976Y-80904758D01*
X106149995Y-80756924D01*
X106149996Y-80756922D01*
X106256341Y-80627341D01*
X106385922Y-80520996D01*
X106464845Y-80478811D01*
X106533758Y-80441976D01*
X106694177Y-80393313D01*
X106819196Y-80381000D01*
X107302804Y-80381000D01*
X107427823Y-80393313D01*
G37*
G36*
X84567823Y-80393313D02*
G01*
X84728242Y-80441976D01*
X84797155Y-80478811D01*
X84876078Y-80520996D01*
X85005659Y-80627341D01*
X85112004Y-80756922D01*
X85112005Y-80756924D01*
X85191024Y-80904758D01*
X85239687Y-81065177D01*
X85256117Y-81232000D01*
X85239687Y-81398823D01*
X85191024Y-81559242D01*
X85120114Y-81691906D01*
X85112004Y-81707078D01*
X85005659Y-81836659D01*
X84876078Y-81943004D01*
X84876076Y-81943005D01*
X84728242Y-82022024D01*
X84567823Y-82070687D01*
X84442804Y-82083000D01*
X83959196Y-82083000D01*
X83834177Y-82070687D01*
X83673758Y-82022024D01*
X83525924Y-81943005D01*
X83525922Y-81943004D01*
X83396341Y-81836659D01*
X83289996Y-81707078D01*
X83281886Y-81691906D01*
X83210976Y-81559242D01*
X83162313Y-81398823D01*
X83145883Y-81232000D01*
X83162313Y-81065177D01*
X83210976Y-80904758D01*
X83289995Y-80756924D01*
X83289996Y-80756922D01*
X83396341Y-80627341D01*
X83525922Y-80520996D01*
X83604845Y-80478811D01*
X83673758Y-80441976D01*
X83834177Y-80393313D01*
X83959196Y-80381000D01*
X84442804Y-80381000D01*
X84567823Y-80393313D01*
G37*
G36*
X113778512Y-79319927D02*
G01*
X113927812Y-79349624D01*
X114091784Y-79417544D01*
X114239354Y-79516147D01*
X114364853Y-79641646D01*
X114463456Y-79789216D01*
X114531376Y-79953188D01*
X114566000Y-80127259D01*
X114566000Y-80304741D01*
X114531376Y-80478812D01*
X114463456Y-80642784D01*
X114364853Y-80790354D01*
X114239354Y-80915853D01*
X114091784Y-81014456D01*
X113927812Y-81082376D01*
X113778512Y-81112073D01*
X113753742Y-81117000D01*
X113576258Y-81117000D01*
X113551488Y-81112073D01*
X113402188Y-81082376D01*
X113238216Y-81014456D01*
X113090646Y-80915853D01*
X112965147Y-80790354D01*
X112866544Y-80642784D01*
X112798624Y-80478812D01*
X112764000Y-80304741D01*
X112764000Y-80127259D01*
X112798624Y-79953188D01*
X112866544Y-79789216D01*
X112965147Y-79641646D01*
X113090646Y-79516147D01*
X113238216Y-79417544D01*
X113402188Y-79349624D01*
X113551488Y-79319927D01*
X113576258Y-79315000D01*
X113753742Y-79315000D01*
X113778512Y-79319927D01*
G37*
G36*
X77710512Y-79319927D02*
G01*
X77859812Y-79349624D01*
X78023784Y-79417544D01*
X78171354Y-79516147D01*
X78296853Y-79641646D01*
X78395456Y-79789216D01*
X78463376Y-79953188D01*
X78498000Y-80127259D01*
X78498000Y-80304741D01*
X78463376Y-80478812D01*
X78395456Y-80642784D01*
X78296853Y-80790354D01*
X78171354Y-80915853D01*
X78023784Y-81014456D01*
X77859812Y-81082376D01*
X77710512Y-81112073D01*
X77685742Y-81117000D01*
X77508258Y-81117000D01*
X77483488Y-81112073D01*
X77334188Y-81082376D01*
X77170216Y-81014456D01*
X77022646Y-80915853D01*
X76897147Y-80790354D01*
X76798544Y-80642784D01*
X76730624Y-80478812D01*
X76696000Y-80304741D01*
X76696000Y-80127259D01*
X76730624Y-79953188D01*
X76798544Y-79789216D01*
X76897147Y-79641646D01*
X77022646Y-79516147D01*
X77170216Y-79417544D01*
X77334188Y-79349624D01*
X77483488Y-79319927D01*
X77508258Y-79315000D01*
X77685742Y-79315000D01*
X77710512Y-79319927D01*
G37*
G36*
X107427823Y-77853313D02*
G01*
X107588242Y-77901976D01*
X107657155Y-77938811D01*
X107736078Y-77980996D01*
X107865659Y-78087341D01*
X107972004Y-78216922D01*
X107972005Y-78216924D01*
X108051024Y-78364758D01*
X108099687Y-78525177D01*
X108116117Y-78692000D01*
X108099687Y-78858823D01*
X108051024Y-79019242D01*
X107980114Y-79151906D01*
X107972004Y-79167078D01*
X107865659Y-79296659D01*
X107736078Y-79403004D01*
X107736076Y-79403005D01*
X107588242Y-79482024D01*
X107427823Y-79530687D01*
X107302804Y-79543000D01*
X106819196Y-79543000D01*
X106694177Y-79530687D01*
X106533758Y-79482024D01*
X106385924Y-79403005D01*
X106385922Y-79403004D01*
X106256341Y-79296659D01*
X106149996Y-79167078D01*
X106141886Y-79151906D01*
X106070976Y-79019242D01*
X106022313Y-78858823D01*
X106005883Y-78692000D01*
X106022313Y-78525177D01*
X106070976Y-78364758D01*
X106149995Y-78216924D01*
X106149996Y-78216922D01*
X106256341Y-78087341D01*
X106385922Y-77980996D01*
X106464845Y-77938811D01*
X106533758Y-77901976D01*
X106694177Y-77853313D01*
X106819196Y-77841000D01*
X107302804Y-77841000D01*
X107427823Y-77853313D01*
G37*
G36*
X84567823Y-77853313D02*
G01*
X84728242Y-77901976D01*
X84797155Y-77938811D01*
X84876078Y-77980996D01*
X85005659Y-78087341D01*
X85112004Y-78216922D01*
X85112005Y-78216924D01*
X85191024Y-78364758D01*
X85239687Y-78525177D01*
X85256117Y-78692000D01*
X85239687Y-78858823D01*
X85191024Y-79019242D01*
X85120114Y-79151906D01*
X85112004Y-79167078D01*
X85005659Y-79296659D01*
X84876078Y-79403004D01*
X84876076Y-79403005D01*
X84728242Y-79482024D01*
X84567823Y-79530687D01*
X84442804Y-79543000D01*
X83959196Y-79543000D01*
X83834177Y-79530687D01*
X83673758Y-79482024D01*
X83525924Y-79403005D01*
X83525922Y-79403004D01*
X83396341Y-79296659D01*
X83289996Y-79167078D01*
X83281886Y-79151906D01*
X83210976Y-79019242D01*
X83162313Y-78858823D01*
X83145883Y-78692000D01*
X83162313Y-78525177D01*
X83210976Y-78364758D01*
X83289995Y-78216924D01*
X83289996Y-78216922D01*
X83396341Y-78087341D01*
X83525922Y-77980996D01*
X83604845Y-77938811D01*
X83673758Y-77901976D01*
X83834177Y-77853313D01*
X83959196Y-77841000D01*
X84442804Y-77841000D01*
X84567823Y-77853313D01*
G37*
G36*
X77710512Y-76779927D02*
G01*
X77859812Y-76809624D01*
X78023784Y-76877544D01*
X78171354Y-76976147D01*
X78296853Y-77101646D01*
X78395456Y-77249216D01*
X78463376Y-77413188D01*
X78498000Y-77587259D01*
X78498000Y-77764741D01*
X78463376Y-77938812D01*
X78395456Y-78102784D01*
X78296853Y-78250354D01*
X78171354Y-78375853D01*
X78023784Y-78474456D01*
X77859812Y-78542376D01*
X77710512Y-78572073D01*
X77685742Y-78577000D01*
X77508258Y-78577000D01*
X77483488Y-78572073D01*
X77334188Y-78542376D01*
X77170216Y-78474456D01*
X77022646Y-78375853D01*
X76897147Y-78250354D01*
X76798544Y-78102784D01*
X76730624Y-77938812D01*
X76696000Y-77764741D01*
X76696000Y-77587259D01*
X76730624Y-77413188D01*
X76798544Y-77249216D01*
X76897147Y-77101646D01*
X77022646Y-76976147D01*
X77170216Y-76877544D01*
X77334188Y-76809624D01*
X77483488Y-76779927D01*
X77508258Y-76775000D01*
X77685742Y-76775000D01*
X77710512Y-76779927D01*
G37*
G36*
X113778512Y-76779927D02*
G01*
X113927812Y-76809624D01*
X114091784Y-76877544D01*
X114239354Y-76976147D01*
X114364853Y-77101646D01*
X114463456Y-77249216D01*
X114531376Y-77413188D01*
X114566000Y-77587259D01*
X114566000Y-77764741D01*
X114531376Y-77938812D01*
X114463456Y-78102784D01*
X114364853Y-78250354D01*
X114239354Y-78375853D01*
X114091784Y-78474456D01*
X113927812Y-78542376D01*
X113778512Y-78572073D01*
X113753742Y-78577000D01*
X113576258Y-78577000D01*
X113551488Y-78572073D01*
X113402188Y-78542376D01*
X113238216Y-78474456D01*
X113090646Y-78375853D01*
X112965147Y-78250354D01*
X112866544Y-78102784D01*
X112798624Y-77938812D01*
X112764000Y-77764741D01*
X112764000Y-77587259D01*
X112798624Y-77413188D01*
X112866544Y-77249216D01*
X112965147Y-77101646D01*
X113090646Y-76976147D01*
X113238216Y-76877544D01*
X113402188Y-76809624D01*
X113551488Y-76779927D01*
X113576258Y-76775000D01*
X113753742Y-76775000D01*
X113778512Y-76779927D01*
G37*
G36*
X84567823Y-75313313D02*
G01*
X84728242Y-75361976D01*
X84797155Y-75398811D01*
X84876078Y-75440996D01*
X85005659Y-75547341D01*
X85112004Y-75676922D01*
X85112005Y-75676924D01*
X85191024Y-75824758D01*
X85239687Y-75985177D01*
X85256117Y-76152000D01*
X85239687Y-76318823D01*
X85191024Y-76479242D01*
X85120114Y-76611906D01*
X85112004Y-76627078D01*
X85005659Y-76756659D01*
X84876078Y-76863004D01*
X84876076Y-76863005D01*
X84728242Y-76942024D01*
X84567823Y-76990687D01*
X84442804Y-77003000D01*
X83959196Y-77003000D01*
X83834177Y-76990687D01*
X83673758Y-76942024D01*
X83525924Y-76863005D01*
X83525922Y-76863004D01*
X83396341Y-76756659D01*
X83289996Y-76627078D01*
X83281886Y-76611906D01*
X83210976Y-76479242D01*
X83162313Y-76318823D01*
X83145883Y-76152000D01*
X83162313Y-75985177D01*
X83210976Y-75824758D01*
X83289995Y-75676924D01*
X83289996Y-75676922D01*
X83396341Y-75547341D01*
X83525922Y-75440996D01*
X83604845Y-75398811D01*
X83673758Y-75361976D01*
X83834177Y-75313313D01*
X83959196Y-75301000D01*
X84442804Y-75301000D01*
X84567823Y-75313313D01*
G37*
G36*
X107427823Y-75313313D02*
G01*
X107588242Y-75361976D01*
X107657155Y-75398811D01*
X107736078Y-75440996D01*
X107865659Y-75547341D01*
X107972004Y-75676922D01*
X107972005Y-75676924D01*
X108051024Y-75824758D01*
X108099687Y-75985177D01*
X108116117Y-76152000D01*
X108099687Y-76318823D01*
X108051024Y-76479242D01*
X107980114Y-76611906D01*
X107972004Y-76627078D01*
X107865659Y-76756659D01*
X107736078Y-76863004D01*
X107736076Y-76863005D01*
X107588242Y-76942024D01*
X107427823Y-76990687D01*
X107302804Y-77003000D01*
X106819196Y-77003000D01*
X106694177Y-76990687D01*
X106533758Y-76942024D01*
X106385924Y-76863005D01*
X106385922Y-76863004D01*
X106256341Y-76756659D01*
X106149996Y-76627078D01*
X106141886Y-76611906D01*
X106070976Y-76479242D01*
X106022313Y-76318823D01*
X106005883Y-76152000D01*
X106022313Y-75985177D01*
X106070976Y-75824758D01*
X106149995Y-75676924D01*
X106149996Y-75676922D01*
X106256341Y-75547341D01*
X106385922Y-75440996D01*
X106464845Y-75398811D01*
X106533758Y-75361976D01*
X106694177Y-75313313D01*
X106819196Y-75301000D01*
X107302804Y-75301000D01*
X107427823Y-75313313D01*
G37*
G36*
X77710512Y-74239927D02*
G01*
X77859812Y-74269624D01*
X78023784Y-74337544D01*
X78171354Y-74436147D01*
X78296853Y-74561646D01*
X78395456Y-74709216D01*
X78463376Y-74873188D01*
X78498000Y-75047259D01*
X78498000Y-75224741D01*
X78463376Y-75398812D01*
X78395456Y-75562784D01*
X78296853Y-75710354D01*
X78171354Y-75835853D01*
X78023784Y-75934456D01*
X77859812Y-76002376D01*
X77710512Y-76032073D01*
X77685742Y-76037000D01*
X77508258Y-76037000D01*
X77483488Y-76032073D01*
X77334188Y-76002376D01*
X77170216Y-75934456D01*
X77022646Y-75835853D01*
X76897147Y-75710354D01*
X76798544Y-75562784D01*
X76730624Y-75398812D01*
X76696000Y-75224741D01*
X76696000Y-75047259D01*
X76730624Y-74873188D01*
X76798544Y-74709216D01*
X76897147Y-74561646D01*
X77022646Y-74436147D01*
X77170216Y-74337544D01*
X77334188Y-74269624D01*
X77483488Y-74239927D01*
X77508258Y-74235000D01*
X77685742Y-74235000D01*
X77710512Y-74239927D01*
G37*
G36*
X113778512Y-74239927D02*
G01*
X113927812Y-74269624D01*
X114091784Y-74337544D01*
X114239354Y-74436147D01*
X114364853Y-74561646D01*
X114463456Y-74709216D01*
X114531376Y-74873188D01*
X114566000Y-75047259D01*
X114566000Y-75224741D01*
X114531376Y-75398812D01*
X114463456Y-75562784D01*
X114364853Y-75710354D01*
X114239354Y-75835853D01*
X114091784Y-75934456D01*
X113927812Y-76002376D01*
X113778512Y-76032073D01*
X113753742Y-76037000D01*
X113576258Y-76037000D01*
X113551488Y-76032073D01*
X113402188Y-76002376D01*
X113238216Y-75934456D01*
X113090646Y-75835853D01*
X112965147Y-75710354D01*
X112866544Y-75562784D01*
X112798624Y-75398812D01*
X112764000Y-75224741D01*
X112764000Y-75047259D01*
X112798624Y-74873188D01*
X112866544Y-74709216D01*
X112965147Y-74561646D01*
X113090646Y-74436147D01*
X113238216Y-74337544D01*
X113402188Y-74269624D01*
X113551488Y-74239927D01*
X113576258Y-74235000D01*
X113753742Y-74235000D01*
X113778512Y-74239927D01*
G37*
G36*
X107427823Y-72773313D02*
G01*
X107588242Y-72821976D01*
X107657155Y-72858811D01*
X107736078Y-72900996D01*
X107865659Y-73007341D01*
X107972004Y-73136922D01*
X107972005Y-73136924D01*
X108051024Y-73284758D01*
X108099687Y-73445177D01*
X108116117Y-73612000D01*
X108099687Y-73778823D01*
X108051024Y-73939242D01*
X107980114Y-74071906D01*
X107972004Y-74087078D01*
X107865659Y-74216659D01*
X107736078Y-74323004D01*
X107736076Y-74323005D01*
X107588242Y-74402024D01*
X107427823Y-74450687D01*
X107302804Y-74463000D01*
X106819196Y-74463000D01*
X106694177Y-74450687D01*
X106533758Y-74402024D01*
X106385924Y-74323005D01*
X106385922Y-74323004D01*
X106256341Y-74216659D01*
X106149996Y-74087078D01*
X106141886Y-74071906D01*
X106070976Y-73939242D01*
X106022313Y-73778823D01*
X106005883Y-73612000D01*
X106022313Y-73445177D01*
X106070976Y-73284758D01*
X106149995Y-73136924D01*
X106149996Y-73136922D01*
X106256341Y-73007341D01*
X106385922Y-72900996D01*
X106464845Y-72858811D01*
X106533758Y-72821976D01*
X106694177Y-72773313D01*
X106819196Y-72761000D01*
X107302804Y-72761000D01*
X107427823Y-72773313D01*
G37*
G36*
X84567823Y-72773313D02*
G01*
X84728242Y-72821976D01*
X84797155Y-72858811D01*
X84876078Y-72900996D01*
X85005659Y-73007341D01*
X85112004Y-73136922D01*
X85112005Y-73136924D01*
X85191024Y-73284758D01*
X85239687Y-73445177D01*
X85256117Y-73612000D01*
X85239687Y-73778823D01*
X85191024Y-73939242D01*
X85120114Y-74071906D01*
X85112004Y-74087078D01*
X85005659Y-74216659D01*
X84876078Y-74323004D01*
X84876076Y-74323005D01*
X84728242Y-74402024D01*
X84567823Y-74450687D01*
X84442804Y-74463000D01*
X83959196Y-74463000D01*
X83834177Y-74450687D01*
X83673758Y-74402024D01*
X83525924Y-74323005D01*
X83525922Y-74323004D01*
X83396341Y-74216659D01*
X83289996Y-74087078D01*
X83281886Y-74071906D01*
X83210976Y-73939242D01*
X83162313Y-73778823D01*
X83145883Y-73612000D01*
X83162313Y-73445177D01*
X83210976Y-73284758D01*
X83289995Y-73136924D01*
X83289996Y-73136922D01*
X83396341Y-73007341D01*
X83525922Y-72900996D01*
X83604845Y-72858811D01*
X83673758Y-72821976D01*
X83834177Y-72773313D01*
X83959196Y-72761000D01*
X84442804Y-72761000D01*
X84567823Y-72773313D01*
G37*
G36*
X113778512Y-71699927D02*
G01*
X113927812Y-71729624D01*
X114091784Y-71797544D01*
X114239354Y-71896147D01*
X114364853Y-72021646D01*
X114463456Y-72169216D01*
X114531376Y-72333188D01*
X114566000Y-72507259D01*
X114566000Y-72684741D01*
X114531376Y-72858812D01*
X114463456Y-73022784D01*
X114364853Y-73170354D01*
X114239354Y-73295853D01*
X114091784Y-73394456D01*
X113927812Y-73462376D01*
X113778512Y-73492073D01*
X113753742Y-73497000D01*
X113576258Y-73497000D01*
X113551488Y-73492073D01*
X113402188Y-73462376D01*
X113238216Y-73394456D01*
X113090646Y-73295853D01*
X112965147Y-73170354D01*
X112866544Y-73022784D01*
X112798624Y-72858812D01*
X112764000Y-72684741D01*
X112764000Y-72507259D01*
X112798624Y-72333188D01*
X112866544Y-72169216D01*
X112965147Y-72021646D01*
X113090646Y-71896147D01*
X113238216Y-71797544D01*
X113402188Y-71729624D01*
X113551488Y-71699927D01*
X113576258Y-71695000D01*
X113753742Y-71695000D01*
X113778512Y-71699927D01*
G37*
G36*
X77710512Y-71699927D02*
G01*
X77859812Y-71729624D01*
X78023784Y-71797544D01*
X78171354Y-71896147D01*
X78296853Y-72021646D01*
X78395456Y-72169216D01*
X78463376Y-72333188D01*
X78498000Y-72507259D01*
X78498000Y-72684741D01*
X78463376Y-72858812D01*
X78395456Y-73022784D01*
X78296853Y-73170354D01*
X78171354Y-73295853D01*
X78023784Y-73394456D01*
X77859812Y-73462376D01*
X77710512Y-73492073D01*
X77685742Y-73497000D01*
X77508258Y-73497000D01*
X77483488Y-73492073D01*
X77334188Y-73462376D01*
X77170216Y-73394456D01*
X77022646Y-73295853D01*
X76897147Y-73170354D01*
X76798544Y-73022784D01*
X76730624Y-72858812D01*
X76696000Y-72684741D01*
X76696000Y-72507259D01*
X76730624Y-72333188D01*
X76798544Y-72169216D01*
X76897147Y-72021646D01*
X77022646Y-71896147D01*
X77170216Y-71797544D01*
X77334188Y-71729624D01*
X77483488Y-71699927D01*
X77508258Y-71695000D01*
X77685742Y-71695000D01*
X77710512Y-71699927D01*
G37*
G36*
X107427823Y-70233313D02*
G01*
X107588242Y-70281976D01*
X107657155Y-70318811D01*
X107736078Y-70360996D01*
X107865659Y-70467341D01*
X107972004Y-70596922D01*
X107972005Y-70596924D01*
X108051024Y-70744758D01*
X108099687Y-70905177D01*
X108116117Y-71072000D01*
X108099687Y-71238823D01*
X108051024Y-71399242D01*
X107980114Y-71531906D01*
X107972004Y-71547078D01*
X107865659Y-71676659D01*
X107736078Y-71783004D01*
X107736076Y-71783005D01*
X107588242Y-71862024D01*
X107427823Y-71910687D01*
X107302804Y-71923000D01*
X106819196Y-71923000D01*
X106694177Y-71910687D01*
X106533758Y-71862024D01*
X106385924Y-71783005D01*
X106385922Y-71783004D01*
X106256341Y-71676659D01*
X106149996Y-71547078D01*
X106141886Y-71531906D01*
X106070976Y-71399242D01*
X106022313Y-71238823D01*
X106005883Y-71072000D01*
X106022313Y-70905177D01*
X106070976Y-70744758D01*
X106149995Y-70596924D01*
X106149996Y-70596922D01*
X106256341Y-70467341D01*
X106385922Y-70360996D01*
X106464845Y-70318811D01*
X106533758Y-70281976D01*
X106694177Y-70233313D01*
X106819196Y-70221000D01*
X107302804Y-70221000D01*
X107427823Y-70233313D01*
G37*
G36*
X84567823Y-70233313D02*
G01*
X84728242Y-70281976D01*
X84797155Y-70318811D01*
X84876078Y-70360996D01*
X85005659Y-70467341D01*
X85112004Y-70596922D01*
X85112005Y-70596924D01*
X85191024Y-70744758D01*
X85239687Y-70905177D01*
X85256117Y-71072000D01*
X85239687Y-71238823D01*
X85191024Y-71399242D01*
X85120114Y-71531906D01*
X85112004Y-71547078D01*
X85005659Y-71676659D01*
X84876078Y-71783004D01*
X84876076Y-71783005D01*
X84728242Y-71862024D01*
X84567823Y-71910687D01*
X84442804Y-71923000D01*
X83959196Y-71923000D01*
X83834177Y-71910687D01*
X83673758Y-71862024D01*
X83525924Y-71783005D01*
X83525922Y-71783004D01*
X83396341Y-71676659D01*
X83289996Y-71547078D01*
X83281886Y-71531906D01*
X83210976Y-71399242D01*
X83162313Y-71238823D01*
X83145883Y-71072000D01*
X83162313Y-70905177D01*
X83210976Y-70744758D01*
X83289995Y-70596924D01*
X83289996Y-70596922D01*
X83396341Y-70467341D01*
X83525922Y-70360996D01*
X83604845Y-70318811D01*
X83673758Y-70281976D01*
X83834177Y-70233313D01*
X83959196Y-70221000D01*
X84442804Y-70221000D01*
X84567823Y-70233313D01*
G37*
G36*
X77706590Y-69159147D02*
G01*
X77859812Y-69189624D01*
X78023784Y-69257544D01*
X78171354Y-69356147D01*
X78296853Y-69481646D01*
X78395456Y-69629216D01*
X78463376Y-69793188D01*
X78498000Y-69967259D01*
X78498000Y-70144741D01*
X78463376Y-70318812D01*
X78395456Y-70482784D01*
X78296853Y-70630354D01*
X78171354Y-70755853D01*
X78023784Y-70854456D01*
X77859812Y-70922376D01*
X77710512Y-70952073D01*
X77685742Y-70957000D01*
X77508258Y-70957000D01*
X77483488Y-70952073D01*
X77334188Y-70922376D01*
X77170216Y-70854456D01*
X77022646Y-70755853D01*
X76897147Y-70630354D01*
X76798544Y-70482784D01*
X76730624Y-70318812D01*
X76696000Y-70144741D01*
X76696000Y-69967259D01*
X76730624Y-69793188D01*
X76798544Y-69629216D01*
X76897147Y-69481646D01*
X77022646Y-69356147D01*
X77170216Y-69257544D01*
X77334188Y-69189624D01*
X77487410Y-69159147D01*
X77508258Y-69155000D01*
X77685742Y-69155000D01*
X77706590Y-69159147D01*
G37*
G36*
X113774590Y-69159147D02*
G01*
X113927812Y-69189624D01*
X114091784Y-69257544D01*
X114239354Y-69356147D01*
X114364853Y-69481646D01*
X114463456Y-69629216D01*
X114531376Y-69793188D01*
X114566000Y-69967259D01*
X114566000Y-70144741D01*
X114531376Y-70318812D01*
X114463456Y-70482784D01*
X114364853Y-70630354D01*
X114239354Y-70755853D01*
X114091784Y-70854456D01*
X113927812Y-70922376D01*
X113778512Y-70952073D01*
X113753742Y-70957000D01*
X113576258Y-70957000D01*
X113551488Y-70952073D01*
X113402188Y-70922376D01*
X113238216Y-70854456D01*
X113090646Y-70755853D01*
X112965147Y-70630354D01*
X112866544Y-70482784D01*
X112798624Y-70318812D01*
X112764000Y-70144741D01*
X112764000Y-69967259D01*
X112798624Y-69793188D01*
X112866544Y-69629216D01*
X112965147Y-69481646D01*
X113090646Y-69356147D01*
X113238216Y-69257544D01*
X113402188Y-69189624D01*
X113555410Y-69159147D01*
X113576258Y-69155000D01*
X113753742Y-69155000D01*
X113774590Y-69159147D01*
G37*
G36*
X107427823Y-67693313D02*
G01*
X107588242Y-67741976D01*
X107720906Y-67812886D01*
X107736078Y-67820996D01*
X107865659Y-67927341D01*
X107972004Y-68056922D01*
X107972005Y-68056924D01*
X108051024Y-68204758D01*
X108099687Y-68365177D01*
X108116117Y-68532000D01*
X108099687Y-68698823D01*
X108051024Y-68859242D01*
X108003860Y-68947480D01*
X107972004Y-69007078D01*
X107865659Y-69136659D01*
X107736078Y-69243004D01*
X107736076Y-69243005D01*
X107588242Y-69322024D01*
X107427823Y-69370687D01*
X107302804Y-69383000D01*
X106819196Y-69383000D01*
X106694177Y-69370687D01*
X106533758Y-69322024D01*
X106385924Y-69243005D01*
X106385922Y-69243004D01*
X106256341Y-69136659D01*
X106149996Y-69007078D01*
X106118140Y-68947480D01*
X106070976Y-68859242D01*
X106022313Y-68698823D01*
X106005883Y-68532000D01*
X106022313Y-68365177D01*
X106070976Y-68204758D01*
X106149995Y-68056924D01*
X106149996Y-68056922D01*
X106256341Y-67927341D01*
X106385922Y-67820996D01*
X106401094Y-67812886D01*
X106533758Y-67741976D01*
X106694177Y-67693313D01*
X106819196Y-67681000D01*
X107302804Y-67681000D01*
X107427823Y-67693313D01*
G37*
G36*
X84567823Y-67693313D02*
G01*
X84728242Y-67741976D01*
X84860906Y-67812886D01*
X84876078Y-67820996D01*
X85005659Y-67927341D01*
X85112004Y-68056922D01*
X85112005Y-68056924D01*
X85191024Y-68204758D01*
X85239687Y-68365177D01*
X85256117Y-68532000D01*
X85239687Y-68698823D01*
X85191024Y-68859242D01*
X85143860Y-68947480D01*
X85112004Y-69007078D01*
X85005659Y-69136659D01*
X84876078Y-69243004D01*
X84876076Y-69243005D01*
X84728242Y-69322024D01*
X84567823Y-69370687D01*
X84442804Y-69383000D01*
X83959196Y-69383000D01*
X83834177Y-69370687D01*
X83673758Y-69322024D01*
X83525924Y-69243005D01*
X83525922Y-69243004D01*
X83396341Y-69136659D01*
X83289996Y-69007078D01*
X83258140Y-68947480D01*
X83210976Y-68859242D01*
X83162313Y-68698823D01*
X83145883Y-68532000D01*
X83162313Y-68365177D01*
X83210976Y-68204758D01*
X83289995Y-68056924D01*
X83289996Y-68056922D01*
X83396341Y-67927341D01*
X83525922Y-67820996D01*
X83541094Y-67812886D01*
X83673758Y-67741976D01*
X83834177Y-67693313D01*
X83959196Y-67681000D01*
X84442804Y-67681000D01*
X84567823Y-67693313D01*
G37*
G36*
X99228228Y-67586703D02*
G01*
X99383100Y-67650853D01*
X99522481Y-67743985D01*
X99641015Y-67862519D01*
X99734147Y-68001900D01*
X99798297Y-68156772D01*
X99831000Y-68321184D01*
X99831000Y-68488816D01*
X99798297Y-68653228D01*
X99734147Y-68808100D01*
X99641015Y-68947481D01*
X99522481Y-69066015D01*
X99383100Y-69159147D01*
X99228228Y-69223297D01*
X99063816Y-69256000D01*
X98896184Y-69256000D01*
X98731772Y-69223297D01*
X98576900Y-69159147D01*
X98437519Y-69066015D01*
X98318985Y-68947481D01*
X98225853Y-68808100D01*
X98161703Y-68653228D01*
X98129000Y-68488816D01*
X98129000Y-68321184D01*
X98161703Y-68156772D01*
X98225853Y-68001900D01*
X98318985Y-67862519D01*
X98437519Y-67743985D01*
X98576900Y-67650853D01*
X98731772Y-67586703D01*
X98896184Y-67554000D01*
X99063816Y-67554000D01*
X99228228Y-67586703D01*
G37*
G36*
X94228228Y-67586703D02*
G01*
X94383100Y-67650853D01*
X94522481Y-67743985D01*
X94641015Y-67862519D01*
X94734147Y-68001900D01*
X94798297Y-68156772D01*
X94831000Y-68321184D01*
X94831000Y-68488816D01*
X94798297Y-68653228D01*
X94734147Y-68808100D01*
X94641015Y-68947481D01*
X94522481Y-69066015D01*
X94383100Y-69159147D01*
X94228228Y-69223297D01*
X94063816Y-69256000D01*
X93896184Y-69256000D01*
X93731772Y-69223297D01*
X93576900Y-69159147D01*
X93437519Y-69066015D01*
X93318985Y-68947481D01*
X93225853Y-68808100D01*
X93161703Y-68653228D01*
X93129000Y-68488816D01*
X93129000Y-68321184D01*
X93161703Y-68156772D01*
X93225853Y-68001900D01*
X93318985Y-67862519D01*
X93437519Y-67743985D01*
X93576900Y-67650853D01*
X93731772Y-67586703D01*
X93896184Y-67554000D01*
X94063816Y-67554000D01*
X94228228Y-67586703D01*
G37*
G36*
X114566000Y-68417000D02*
G01*
X112764000Y-68417000D01*
X112764000Y-66615000D01*
X114566000Y-66615000D01*
X114566000Y-68417000D01*
G37*
G36*
X78498000Y-68417000D02*
G01*
X76696000Y-68417000D01*
X76696000Y-66615000D01*
X78498000Y-66615000D01*
X78498000Y-68417000D01*
G37*
G36*
X107427823Y-65153313D02*
G01*
X107588242Y-65201976D01*
X107720906Y-65272886D01*
X107736078Y-65280996D01*
X107865659Y-65387341D01*
X107972004Y-65516922D01*
X107972005Y-65516924D01*
X108051024Y-65664758D01*
X108099687Y-65825177D01*
X108116117Y-65992000D01*
X108099687Y-66158823D01*
X108051024Y-66319242D01*
X107980114Y-66451906D01*
X107972004Y-66467078D01*
X107865659Y-66596659D01*
X107736078Y-66703004D01*
X107736076Y-66703005D01*
X107588242Y-66782024D01*
X107427823Y-66830687D01*
X107302804Y-66843000D01*
X106819196Y-66843000D01*
X106694177Y-66830687D01*
X106533758Y-66782024D01*
X106385924Y-66703005D01*
X106385922Y-66703004D01*
X106256341Y-66596659D01*
X106149996Y-66467078D01*
X106141886Y-66451906D01*
X106070976Y-66319242D01*
X106022313Y-66158823D01*
X106005883Y-65992000D01*
X106022313Y-65825177D01*
X106070976Y-65664758D01*
X106149995Y-65516924D01*
X106149996Y-65516922D01*
X106256341Y-65387341D01*
X106385922Y-65280996D01*
X106401094Y-65272886D01*
X106533758Y-65201976D01*
X106694177Y-65153313D01*
X106819196Y-65141000D01*
X107302804Y-65141000D01*
X107427823Y-65153313D01*
G37*
G36*
X84567823Y-65153313D02*
G01*
X84728242Y-65201976D01*
X84860906Y-65272886D01*
X84876078Y-65280996D01*
X85005659Y-65387341D01*
X85112004Y-65516922D01*
X85112005Y-65516924D01*
X85191024Y-65664758D01*
X85239687Y-65825177D01*
X85256117Y-65992000D01*
X85239687Y-66158823D01*
X85191024Y-66319242D01*
X85120114Y-66451906D01*
X85112004Y-66467078D01*
X85005659Y-66596659D01*
X84876078Y-66703004D01*
X84876076Y-66703005D01*
X84728242Y-66782024D01*
X84567823Y-66830687D01*
X84442804Y-66843000D01*
X83959196Y-66843000D01*
X83834177Y-66830687D01*
X83673758Y-66782024D01*
X83525924Y-66703005D01*
X83525922Y-66703004D01*
X83396341Y-66596659D01*
X83289996Y-66467078D01*
X83281886Y-66451906D01*
X83210976Y-66319242D01*
X83162313Y-66158823D01*
X83145883Y-65992000D01*
X83162313Y-65825177D01*
X83210976Y-65664758D01*
X83289995Y-65516924D01*
X83289996Y-65516922D01*
X83396341Y-65387341D01*
X83525922Y-65280996D01*
X83541094Y-65272886D01*
X83673758Y-65201976D01*
X83834177Y-65153313D01*
X83959196Y-65141000D01*
X84442804Y-65141000D01*
X84567823Y-65153313D01*
G37*
G36*
X85252000Y-64503000D02*
G01*
X83150000Y-64503000D01*
X83150000Y-62401000D01*
X85252000Y-62401000D01*
X85252000Y-64503000D01*
G37*
G36*
X107427823Y-62613313D02*
G01*
X107588242Y-62661976D01*
X107720906Y-62732886D01*
X107736078Y-62740996D01*
X107865659Y-62847341D01*
X107972004Y-62976922D01*
X107972005Y-62976924D01*
X108051024Y-63124758D01*
X108099687Y-63285177D01*
X108116117Y-63452000D01*
X108099687Y-63618823D01*
X108051024Y-63779242D01*
X107980114Y-63911906D01*
X107972004Y-63927078D01*
X107865659Y-64056659D01*
X107736078Y-64163004D01*
X107736076Y-64163005D01*
X107588242Y-64242024D01*
X107427823Y-64290687D01*
X107302804Y-64303000D01*
X106819196Y-64303000D01*
X106694177Y-64290687D01*
X106533758Y-64242024D01*
X106385924Y-64163005D01*
X106385922Y-64163004D01*
X106256341Y-64056659D01*
X106149996Y-63927078D01*
X106141886Y-63911906D01*
X106070976Y-63779242D01*
X106022313Y-63618823D01*
X106005883Y-63452000D01*
X106022313Y-63285177D01*
X106070976Y-63124758D01*
X106149995Y-62976924D01*
X106149996Y-62976922D01*
X106256341Y-62847341D01*
X106385922Y-62740996D01*
X106401094Y-62732886D01*
X106533758Y-62661976D01*
X106694177Y-62613313D01*
X106819196Y-62601000D01*
X107302804Y-62601000D01*
X107427823Y-62613313D01*
G37*
G36*
X75889943Y-55066248D02*
G01*
X76445189Y-55296238D01*
X76445190Y-55296239D01*
X76944899Y-55630134D01*
X77369866Y-56055101D01*
X77369867Y-56055103D01*
X77703762Y-56554811D01*
X77933752Y-57110057D01*
X78051000Y-57699501D01*
X78051000Y-58300499D01*
X77933752Y-58889943D01*
X77703762Y-59445189D01*
X77703761Y-59445190D01*
X77369866Y-59944899D01*
X76944899Y-60369866D01*
X76693347Y-60537948D01*
X76445189Y-60703762D01*
X75889943Y-60933752D01*
X75300499Y-61051000D01*
X74699501Y-61051000D01*
X74110057Y-60933752D01*
X73554811Y-60703762D01*
X73306653Y-60537948D01*
X73055101Y-60369866D01*
X72630134Y-59944899D01*
X72296239Y-59445190D01*
X72296238Y-59445189D01*
X72066248Y-58889943D01*
X71949000Y-58300499D01*
X71949000Y-57699501D01*
X72066248Y-57110057D01*
X72296238Y-56554811D01*
X72630133Y-56055103D01*
X72630134Y-56055101D01*
X73055101Y-55630134D01*
X73554810Y-55296239D01*
X73554811Y-55296238D01*
X74110057Y-55066248D01*
X74699501Y-54949000D01*
X75300499Y-54949000D01*
X75889943Y-55066248D01*
G37*
G36*
X115889943Y-55066248D02*
G01*
X116445189Y-55296238D01*
X116445190Y-55296239D01*
X116944899Y-55630134D01*
X117369866Y-56055101D01*
X117369867Y-56055103D01*
X117703762Y-56554811D01*
X117933752Y-57110057D01*
X118051000Y-57699501D01*
X118051000Y-58300499D01*
X117933752Y-58889943D01*
X117703762Y-59445189D01*
X117703761Y-59445190D01*
X117369866Y-59944899D01*
X116944899Y-60369866D01*
X116693347Y-60537948D01*
X116445189Y-60703762D01*
X115889943Y-60933752D01*
X115300499Y-61051000D01*
X114699501Y-61051000D01*
X114110057Y-60933752D01*
X113554811Y-60703762D01*
X113306653Y-60537948D01*
X113055101Y-60369866D01*
X112630134Y-59944899D01*
X112296239Y-59445190D01*
X112296238Y-59445189D01*
X112066248Y-58889943D01*
X111949000Y-58300499D01*
X111949000Y-57699501D01*
X112066248Y-57110057D01*
X112296238Y-56554811D01*
X112630133Y-56055103D01*
X112630134Y-56055101D01*
X113055101Y-55630134D01*
X113554810Y-55296239D01*
X113554811Y-55296238D01*
X114110057Y-55066248D01*
X114699501Y-54949000D01*
X115300499Y-54949000D01*
X115889943Y-55066248D01*
G37*
M02*
