M48
INCH,TZ
T1C0.0157
T2C0.0315
T3C0.0394
T4C0.0469
T5C0.1181
%
G90
G05
T1
X28900Y-35200
X29000Y-24700
X31000Y-24700
X31000Y-35200
X34500Y-25000
X34500Y-34000
X37400Y-31281
X37600Y-29881
X38400Y-31281
X38500Y-29527
X39400Y-30481
X39700Y-28300
X40519Y-29881
X41000Y-25000
X41000Y-34000
X44000Y-35200
X44100Y-24700
X46000Y-24700
X46000Y-35200
T2
X37000Y-26931
X38969Y-26931
X38300Y-36800
X38300Y-37784
T3
X30550Y-26581
X30550Y-27581
X30550Y-28581
X30550Y-29581
X30550Y-30581
X30550Y-31581
X30550Y-32581
X30550Y-33581
X33150Y-24981
X33150Y-25981
X33150Y-26981
X33150Y-27981
X33150Y-28981
X33150Y-29981
X33150Y-30981
X33150Y-31981
X42150Y-24981
X42150Y-25981
X42150Y-26981
X42150Y-27981
X42150Y-28981
X42150Y-29981
X42150Y-30981
X42150Y-31981
X44750Y-26581
X44750Y-27581
X44750Y-28581
X44750Y-29581
X44750Y-30581
X44750Y-31581
X44750Y-32581
X44750Y-33581
T4
X33700Y-35650
X34700Y-35650
X35700Y-35650
X36700Y-35650
X39900Y-35600
X40900Y-35600
T5
X29528Y-38189
X45276Y-22835
X45276Y-38189
X29528Y-22835
T0
M30
